<svg width="14" height="14" viewBox="0 0 14 14" fill="none" xmlns="http://www.w3.org/2000/svg">
    <g id="Menu">
        <path id="Vector" fill-rule="evenodd" clip-rule="evenodd" d="M0.5 3C0.5 2.72386 0.723858 2.5 1 2.5H13C13.2761 2.5 13.5 2.72386 13.5 3C13.5 3.27614 13.2761 3.5 13 3.5H1C0.723858 3.5 0.5 3.27614 0.5 3ZM0.5 7C0.5 6.72386 0.723858 6.5 1 6.5H13C13.2761 6.5 13.5 6.72386 13.5 7C13.5 7.27614 13.2761 7.5 13 7.5H1C0.723858 7.5 0.5 7.27614 0.5 7ZM0.5 11C0.5 10.7239 0.723858 10.5 1 10.5H13C13.2761 10.5 13.5 10.7239 13.5 11C13.5 11.2761 13.2761 11.5 13 11.5H1C0.723858 11.5 0.5 11.2761 0.5 11Z" fill="#FCFCFD"/>
    </g>
</svg>
