<svg width="20" height="20" viewBox="0 0 20 20" fill="none" xmlns="http://www.w3.org/2000/svg">
<g id="Case">
<path id="Vector" d="M2.8 18C2.305 18 1.88125 17.8248 1.52875 17.4743C1.17625 17.1239 1 16.7026 1 16.2105V6.36842C1 5.87632 1.17625 5.45504 1.52875 5.10461C1.88125 4.75417 2.305 4.57895 2.8 4.57895H6.4V2.78947C6.4 2.29737 6.57625 1.8761 6.92875 1.52566C7.28125 1.17522 7.705 1 8.2 1H11.8C12.295 1 12.7188 1.17522 13.0712 1.52566C13.4237 1.8761 13.6 2.29737 13.6 2.78947V4.57895H17.2C17.695 4.57895 18.1187 4.75417 18.4713 5.10461C18.8237 5.45504 19 5.87632 19 6.36842V16.2105C19 16.7026 18.8237 17.1239 18.4713 17.4743C18.1187 17.8248 17.695 18 17.2 18H2.8ZM2.8 16.2105H17.2V6.36842H2.8V16.2105ZM8.2 4.57895H11.8V2.78947H8.2V4.57895Z" fill="#FCFCFD"/>
</g>
</svg>
