<svg width="20" height="20" viewBox="0 0 20 20" fill="none" xmlns="http://www.w3.org/2000/svg">
<g id="Coinflip">
<path id="Vector" fill-rule="evenodd" clip-rule="evenodd" d="M8.77334 11.0253C10.0956 12.3288 11.5958 13.0765 12.8788 13.3046C14.1723 13.5346 15.0325 13.2226 15.5033 12.7451C15.9741 12.2676 16.2738 11.4029 16.0253 10.1128C15.7789 8.83332 15.0099 7.34389 13.6876 6.04038C12.3654 4.73687 10.8651 3.98918 9.5822 3.76106C8.2887 3.53106 7.42844 3.84306 6.95767 4.3206C6.48689 4.79815 6.1872 5.66278 6.43565 6.95286C6.68205 8.23239 7.45109 9.72182 8.77334 11.0253ZM16.9276 14.1492C14.7951 16.3123 10.5157 15.5514 7.36925 12.4496C4.22284 9.34779 3.4009 5.07968 5.53339 2.91652C7.66589 0.753361 11.9453 1.51429 15.0917 4.61611C18.2381 7.71792 19.0601 11.986 16.9276 14.1492ZM4.03771 14.762C4.33406 14.4726 4.80891 14.4783 5.09829 14.7747C5.38768 15.071 5.38203 15.5459 5.08567 15.8352L2.93902 17.9314C2.64266 18.2208 2.16782 18.2151 1.87843 17.9188C1.58904 17.6224 1.59469 17.1476 1.89105 16.8582L4.03771 14.762ZM2.95235 11.255C2.66374 10.9579 2.18892 10.951 1.8918 11.2396L0.477434 12.6135C0.180315 12.9021 0.173413 13.3769 0.462019 13.674C0.750625 13.9711 1.22545 13.978 1.52257 13.6894L2.93693 12.3156C3.23405 12.027 3.24095 11.5522 2.95235 11.255ZM7.54105 16.8641C7.83394 16.5712 8.30882 16.5712 8.60171 16.8641C8.8946 17.157 8.8946 17.6319 8.60171 17.9247L7.1875 19.339C6.8946 19.6319 6.41973 19.6319 6.12684 19.339C5.83394 19.0461 5.83394 18.5712 6.12684 18.2783L7.54105 16.8641Z" fill="#FCFCFD"/>
</g>
</svg>
