<svg width="20" height="20" viewBox="0 0 20 20" fill="none" xmlns="http://www.w3.org/2000/svg">
<g id="Daily free">
<path id="Vector" d="M18.9757 6.18359L13.514 5.41565L11.0729 0.642205C10.6355 -0.208652 9.36823 -0.219468 8.9271 0.642205L6.48599 5.41565L1.02432 6.18359C0.0448775 6.32059 -0.347645 7.48511 0.362634 8.15209L4.31403 11.8656L3.37945 17.1113C3.21123 18.0595 4.24674 18.7698 5.11403 18.3263L10 15.8495L14.886 18.3263C15.7533 18.7662 16.7888 18.0595 16.6206 17.1113L15.686 11.8656L19.6374 8.15209C20.3476 7.48511 19.9551 6.32059 18.9757 6.18359ZM13.7607 11.2599L14.6467 16.2497L10 13.8954L5.35328 16.2497L6.23926 11.2599L2.47852 7.72667L7.67477 6.99839L10 2.45568L12.3252 6.99839L17.5215 7.72667L13.7607 11.2599Z" fill="#FCFCFD"/>
</g>
</svg>
