<svg width="16" height="16" viewBox="0 0 16 16" fill="none" xmlns="http://www.w3.org/2000/svg">
    <path fill-rule="evenodd" clip-rule="evenodd" d="M4 2.85721C2.42205 2.85721 1.14286 4.1364 1.14286 5.71436V14.2858C1.14286 14.5927 1.40741 14.8572 1.71429 14.8572H12.5714C12.8783 14.8572 13.1429 14.5926 13.1429 14.2858V12.5715H10.8571C10.2259 12.5715 9.71429 12.0597 9.71429 11.4286V9.14293C9.71429 8.51175 10.226 8.00007 10.8571 8.00007H13.1429V6.28578C13.1429 5.97891 12.8783 5.71436 12.5714 5.71436H4C3.68441 5.71436 3.42857 5.45852 3.42857 5.14293C3.42857 4.82734 3.68441 4.5715 4 4.5715H10.8571V2.85721H4ZM12 4.5715V2.28578C12 1.97019 11.7442 1.71436 11.4286 1.71436H4C1.79087 1.71436 0 3.50522 0 5.71436V14.2858C0 15.2238 0.776222 16.0001 1.71429 16.0001H12.5714C13.5095 16.0001 14.2857 15.2238 14.2857 14.2858V12.5715H14.8571C15.4883 12.5715 16 12.0598 16 11.4286V9.14293C16 8.51172 15.4882 8.00007 14.8571 8.00007H14.2857V6.28578C14.2857 5.34772 13.5095 4.5715 12.5714 4.5715H12ZM10.8571 9.14293V11.4286H14.8571V9.14293H10.8571Z" fill="#ED7753"/>
</svg>
