<svg xmlns="http://www.w3.org/2000/svg" width="16" height="16" viewBox="0 0 16 16" fill="none">
    <g clip-path="url(#clip0_3668_4663)">
        <path fill-rule="evenodd" clip-rule="evenodd" d="M1.23172 1.23807V4.66664H2.17755C2.49314 4.66664 2.74898 4.92248 2.74898 5.23807C2.74898 5.55366 2.49314 5.8095 2.17755 5.8095H1.22486C0.921328 5.8095 0.631659 5.68739 0.419174 5.47234C0.206914 5.25749 0.0888672 4.96753 0.0888672 4.66664V1.23807C0.0888672 0.937182 0.206894 0.647244 0.419155 0.432401C0.63165 0.21732 0.921331 0.0952148 1.22486 0.0952148H14.7743C15.0779 0.0952148 15.3675 0.217388 15.5799 0.432273C15.7919 0.646973 15.9103 0.937033 15.9103 1.23807V4.66664C15.9103 4.96768 15.7921 5.25752 15.5801 5.47223C15.3677 5.68708 15.0779 5.8095 14.7743 5.8095H13.8216C13.506 5.8095 13.2502 5.55366 13.2502 5.23807C13.2502 4.92248 13.506 4.66664 13.8216 4.66664H14.7675V1.23807L1.23172 1.23807ZM3.71387 4.00007C3.71387 3.36889 4.22554 2.85721 4.85672 2.85721H11.1424C11.7735 2.85721 12.2853 3.36886 12.2853 4.00007V14.7144C12.2853 15.3455 11.7736 15.8572 11.1424 15.8572H4.85672C4.22551 15.8572 3.71387 15.3455 3.71387 14.7144V4.00007ZM11.1424 4.00007H4.85672V14.7144H11.1424V4.00007ZM5.99958 9.35721C5.99958 8.25264 6.89501 7.35721 7.99958 7.35721C9.10416 7.35721 9.99958 8.25264 9.99958 9.35721C9.99958 10.4618 9.10416 11.3572 7.99958 11.3572C6.89501 11.3572 5.99958 10.4618 5.99958 9.35721ZM7.99958 8.50007C7.52619 8.50007 7.14244 8.88382 7.14244 9.35721C7.14244 9.8306 7.52619 10.2144 7.99958 10.2144C8.47297 10.2144 8.85672 9.8306 8.85672 9.35721C8.85672 8.88382 8.47297 8.50007 7.99958 8.50007Z" fill="#ED7753"/>
    </g>
    <defs>
        <clipPath id="clip0_3668_4663">
            <rect width="16" height="16" fill="white"/>
        </clipPath>
    </defs>
</svg>