<svg width="16" height="16" viewBox="0 0 16 16" fill="none" xmlns="http://www.w3.org/2000/svg">
    <g clip-path="url(#clip0_3668_4667)">
        <path fill-rule="evenodd" clip-rule="evenodd" d="M11.5684 0.370144C11.6796 0.0748121 12.0092 -0.0744141 12.3045 0.0368378L14.7621 0.962619C15.0567 1.07357 15.206 1.40178 15.0962 1.69673L14.1815 4.15381C14.0714 4.44957 13.7423 4.60007 13.4466 4.48996C13.1508 4.37985 13.0003 4.05083 13.1104 3.75507L13.5453 2.58688L1.65439 7.99467C1.36711 8.12532 1.02832 7.99835 0.897666 7.71107C0.767017 7.42379 0.89399 7.08499 1.18127 6.95434L13.0713 1.54695L11.9017 1.10633C11.6063 0.995077 11.4571 0.665476 11.5684 0.370144ZM12.8576 7.42873V14.8573H14.5718V7.42873H12.8576ZM12.0495 6.62054C12.2638 6.40628 12.5545 6.28587 12.8576 6.28587H14.5718C14.8749 6.28587 15.1656 6.40628 15.38 6.62054C15.5941 6.83478 15.7147 7.12559 15.7147 7.42873V15.4287C15.7147 15.7443 15.4589 16.0002 15.1433 16.0002H12.2861C11.9705 16.0002 11.7147 15.7443 11.7147 15.4287V7.42873C11.7147 7.12559 11.8354 6.83478 12.0495 6.62054ZM6.33518 8.33487C6.5495 8.12055 6.84019 8.00015 7.14328 8.00015H8.85756C9.16064 8.00015 9.45133 8.12055 9.66566 8.33487C9.66564 8.33486 9.66567 8.33489 9.66566 8.33487M6.33518 8.33487C6.33517 8.33489 6.33519 8.33486 6.33518 8.33487C6.12085 8.5492 6.00042 8.83993 6.00042 9.14301V15.4287C6.00042 15.7443 6.25626 16.0002 6.57185 16.0002H9.42899C9.74458 16.0002 10.0004 15.7443 10.0004 15.4287V9.14301C10.0004 8.83993 9.87998 8.5492 9.66566 8.33487M7.14328 9.14301L7.14328 14.8573H8.85756L8.85755 9.14301H7.14328ZM0.620864 10.0492C0.835188 9.83486 1.12588 9.71444 1.42899 9.71444H3.14328C3.44638 9.71444 3.73709 9.83485 3.95142 10.0492C4.16574 10.2635 4.28613 10.5542 4.28613 10.8573V15.4287C4.28613 15.7443 4.0303 16.0002 3.7147 16.0002H0.857561C0.54197 16.0002 0.286133 15.7443 0.286133 15.4287V10.8573C0.286133 10.5542 0.406528 10.2635 0.620864 10.0492ZM3.14328 10.8573H1.42899L1.42899 14.8573H3.14328V10.8573Z" fill="#ED7753"/>
    </g>
    <defs>
        <clipPath id="clip0_3668_4667">
            <rect width="16" height="16" fill="white"/>
        </clipPath>
    </defs>
</svg>
