<svg width="16" height="16" viewBox="0 0 16 16" fill="none" xmlns="http://www.w3.org/2000/svg">
<g clip-path="url(#clip0_3668_4655)">
<path fill-rule="evenodd" clip-rule="evenodd" d="M0 8C0 3.58172 3.58172 0 8 0C12.4183 0 16 3.58173 16 8C16 12.4183 12.4183 16 8 16C3.58173 16 0 12.4183 0 8ZM8 1.14286C4.21291 1.14286 1.14286 4.21291 1.14286 8C1.14286 9.83103 1.8605 11.4944 3.02987 12.7243C3.54329 12.0613 4.18572 11.5059 4.92092 11.0929C5.86102 10.5648 6.92115 10.2874 7.99942 10.2874C9.07769 10.2874 10.1378 10.5648 11.0779 11.0929C11.8134 11.506 12.456 12.0617 12.9695 12.7249C14.1392 11.495 14.8571 9.83137 14.8571 8C14.8571 4.2129 11.7871 1.14286 8 1.14286ZM12.1134 13.4869C11.6856 12.9167 11.1428 12.4401 10.5182 12.0893L10.5181 12.0893C9.749 11.6572 8.88163 11.4302 7.99942 11.4302C7.11721 11.4302 6.24984 11.6572 5.48069 12.0893L5.48063 12.0893C4.85624 12.44 4.3136 12.9164 3.88591 13.4864C5.03192 14.3471 6.4564 14.8571 8 14.8571C9.54329 14.8571 10.9675 14.3473 12.1134 13.4869ZM4.57143 6.28571C4.57143 4.39217 6.10645 2.85714 8 2.85714C9.89355 2.85714 11.4286 4.39217 11.4286 6.28571C11.4286 8.17926 9.89355 9.71429 8 9.71429C6.10645 9.71429 4.57143 8.17926 4.57143 6.28571ZM8 4C6.73764 4 5.71429 5.02335 5.71429 6.28571C5.71429 7.54808 6.73764 8.57143 8 8.57143C9.26236 8.57143 10.2857 7.54808 10.2857 6.28571C10.2857 5.02335 9.26236 4 8 4Z" fill="#ED7753"/>
</g>
<defs>
<clipPath id="clip0_3668_4655">
<rect width="16" height="16" fill="white"/>
</clipPath>
</defs>
</svg>
