<svg width="16" height="16" viewBox="0 0 16 16" fill="none" xmlns="http://www.w3.org/2000/svg">
    <g clip-path="url(#clip0_3668_4676)">
        <path fill-rule="evenodd" clip-rule="evenodd" d="M9.51803 1.41553C8.56597 1.04025 7.43403 1.04025 6.48197 1.41553C5.02494 1.98986 4.0253 3.43901 4 4.99906V10.2859C4 10.9046 3.47584 11.4287 2.85714 11.4287H1.71429C0.776216 11.4287 0 10.6525 0 9.71443V7.42871C0 6.49064 0.776216 5.71443 1.71429 5.71443H2.85714V4.98596C2.88772 2.96222 4.17278 1.09732 6.06286 0.352299C7.28425 -0.129152 8.71575 -0.129152 9.93714 0.352299C11.8272 1.09732 13.1123 2.9622 13.1428 4.98597L13.1429 4.99459L13.1429 5.71443H14.2857C15.2238 5.71443 16 6.49065 16 7.42871V9.71443C16 10.6525 15.2238 11.4287 14.2857 11.4287H13.1429V11.7144C13.1429 13.1044 12.1142 14.2849 10.7867 14.5264C10.6959 14.8593 10.5196 15.1661 10.2713 15.4144C9.89627 15.7894 9.38758 16.0001 8.85714 16.0001H7.14286C6.61242 16.0001 6.10373 15.7894 5.72866 15.4144C4.95528 14.6411 4.95528 13.3592 5.72866 12.5859C6.10373 12.2109 6.61242 12.0001 7.14286 12.0001H8.85714C9.38758 12.0001 9.89627 12.2109 10.2713 12.5859C10.4914 12.8059 10.6548 13.072 10.7524 13.3614C11.4635 13.1524 12 12.4828 12 11.7144V4.99903C11.9747 3.43899 10.9751 1.98986 9.51803 1.41553ZM13.1429 10.2756C13.1439 10.2772 13.1454 10.2791 13.1475 10.2812C13.1496 10.2833 13.1516 10.2848 13.1531 10.2859H14.2857C14.5926 10.2859 14.8571 10.0213 14.8571 9.71443V7.42871C14.8571 7.12184 14.5926 6.85728 14.2857 6.85728H13.1531C13.1516 6.85835 13.1496 6.85988 13.1475 6.86198C13.1454 6.86407 13.1439 6.86599 13.1429 6.8675V10.2756ZM2.84693 6.85728H1.71429C1.4074 6.85728 1.14286 7.12183 1.14286 7.42871V9.71443C1.14286 10.0213 1.4074 10.2859 1.71429 10.2859H2.84693C2.84845 10.2848 2.85037 10.2833 2.85246 10.2812C2.85455 10.2791 2.85608 10.2772 2.85714 10.2756V6.8675C2.85608 6.86598 2.85455 6.86406 2.85246 6.86197C2.85037 6.85987 2.84845 6.85835 2.84693 6.85728ZM7.14286 13.143C6.91553 13.143 6.69751 13.2333 6.53675 13.394C6.20972 13.721 6.20972 14.2792 6.53675 14.6062C6.69751 14.767 6.91553 14.8573 7.14286 14.8573H8.85714C9.08447 14.8573 9.30249 14.767 9.46325 14.6062C9.62396 14.4455 9.71429 14.2275 9.71429 14.0001C9.71429 13.7728 9.62396 13.5547 9.46325 13.394C9.30249 13.2333 9.08447 13.143 8.85714 13.143H7.14286Z" fill="#ED7753"/>
    </g>
    <defs>
        <clipPath id="clip0_3668_4676">
            <rect width="16" height="16" fill="white"/>
        </clipPath>
    </defs>
</svg>
