<svg width="16" height="16" viewBox="0 0 16 16" fill="none" xmlns="http://www.w3.org/2000/svg">
    <g clip-path="url(#clip0_3668_4672)">
        <path fill-rule="evenodd" clip-rule="evenodd" d="M0 0.571429C0 0.255837 0.255837 0 0.571429 0H15.4286C15.7442 0 16 0.255837 16 0.571429V4C16 6.06273 14.4387 7.7608 12.4333 7.9768C11.9791 9.78076 10.4528 11.1586 8.57143 11.3932V14.8571H12C12.3156 14.8571 12.5714 15.113 12.5714 15.4286C12.5714 15.7442 12.3156 16 12 16H4C3.68441 16 3.42857 15.7442 3.42857 15.4286C3.42857 15.113 3.68441 14.8571 4 14.8571H7.42857V11.3932C5.54719 11.1586 4.02086 9.78076 3.56669 7.9768C1.56136 7.76079 0 6.06273 0 4V0.571429ZM3.42857 6.79999V1.14286H1.14286V4C1.14286 5.38226 2.12444 6.53526 3.42857 6.79999ZM4.57143 1.14286V6.85714C4.57143 8.75069 6.10645 10.2857 8 10.2857C9.89355 10.2857 11.4286 8.75069 11.4286 6.85714V1.14286H4.57143ZM12.5714 1.14286V6.79999C13.8756 6.53527 14.8571 5.38227 14.8571 4V1.14286H12.5714Z" fill="#ED7753"/>
    </g>
    <defs>
        <clipPath id="clip0_3668_4672">
            <rect width="16" height="16" fill="white"/>
        </clipPath>
    </defs>
</svg>
