<svg width="20" height="20" viewBox="0 0 20 20" fill="none" xmlns="http://www.w3.org/2000/svg">
<g id="Upgrade" clip-path="url(#clip0_232_2596)">
<path id="Vector" fill-rule="evenodd" clip-rule="evenodd" d="M10 18C5.58172 18 2 14.4183 2 10C2 5.58172 5.58172 2 10 2C14.4183 2 18 5.58172 18 10C18 14.4183 14.4183 18 10 18ZM10 20C4.47715 20 0 15.5228 0 10C0 4.47715 4.47715 0 10 0C15.5228 0 20 4.47715 20 10C20 15.5228 15.5228 20 10 20ZM14.0379 11.6458L13.8465 6.09548L8.2961 5.90409L8.24441 7.4032L12.3956 7.54635L12.5387 11.6975L14.0379 11.6458ZM11.068 14.6157L10.8766 9.06533L5.32625 8.87394L5.27456 10.373L9.42575 10.5162L9.5689 14.6674L11.068 14.6157Z" fill="#FCFCFD"/>
</g>
<defs>
<clipPath id="clip0_232_2596">
<rect width="20" height="20" fill="white"/>
</clipPath>
</defs>
</svg>
