<svg width="20" height="20" viewBox="0 0 20 20" fill="none" xmlns="http://www.w3.org/2000/svg">
<path fill-rule="evenodd" clip-rule="evenodd" d="M11.1126 2.56238C11.0077 2.35762 10.8484 2.18579 10.6521 2.0658C10.4558 1.94581 10.2302 1.88232 10.0001 1.88232C9.77007 1.88232 9.54447 1.94581 9.34818 2.0658C9.15189 2.18579 8.99252 2.35762 8.88763 2.56238L2.01262 16.3124C1.91674 16.5026 1.87108 16.7142 1.88 16.9272C1.88892 17.1401 1.95211 17.3471 2.06358 17.5287C2.17504 17.7104 2.33108 17.8605 2.51688 17.9648C2.70267 18.0691 2.91204 18.1243 3.12513 18.1249H16.8751C17.0882 18.1243 17.2976 18.0691 17.4833 17.9648C17.6692 17.8605 17.8252 17.7104 17.9367 17.5287C18.0481 17.3471 18.1113 17.1401 18.1202 16.9272C18.1292 16.7142 18.0835 16.5026 17.9876 16.3124L11.1126 2.56238ZM10 7C10.5523 7 11 7.44772 11 8V12C11 12.5523 10.5523 13 10 13C9.44772 13 9 12.5523 9 12V8C9 7.44772 9.44772 7 10 7ZM10 16C10.5523 16 11 15.5523 11 15C11 14.4477 10.5523 14 10 14C9.44772 14 9 14.4477 9 15C9 15.5523 9.44772 16 10 16Z" fill="#ED6158"/>
</svg>
