<svg width="1018" height="40" viewBox="0 0 1018 40" fill="none" xmlns="http://www.w3.org/2000/svg">
<g clip-path="url(#clip0_2401_29448)">
<path d="M0 9.6C0 6.23969 0 4.55953 0.653961 3.27606C1.2292 2.14708 2.14708 1.2292 3.27606 0.653961C4.55953 0 6.23969 0 9.6 0H1008.4C1011.76 0 1013.44 0 1014.72 0.653961C1015.85 1.2292 1016.77 2.14708 1017.35 3.27606C1018 4.55953 1018 6.23969 1018 9.6V30.4C1018 33.7603 1018 35.4405 1017.35 36.7239C1016.77 37.8529 1015.85 38.7708 1014.72 39.346C1013.44 40 1011.76 40 1008.4 40H9.59997C6.23968 40 4.55953 40 3.27606 39.346C2.14708 38.7708 1.2292 37.8529 0.653961 36.7239C0 35.4405 0 33.7603 0 30.4V9.6Z" fill="#2A2C3B"/>
<g filter="url(#filter0_f_2401_29448)">
<rect x="-20" y="85" width="130" height="72" rx="36" transform="rotate(-90 -20 85)" fill="#E63939" fill-opacity="0.35"/>
</g>
</g>
<defs>
<filter id="filter0_f_2401_29448" x="-120" y="-145" width="272" height="330" filterUnits="userSpaceOnUse" color-interpolation-filters="sRGB">
<feFlood flood-opacity="0" result="BackgroundImageFix"/>
<feBlend mode="normal" in="SourceGraphic" in2="BackgroundImageFix" result="shape"/>
<feGaussianBlur stdDeviation="50" result="effect1_foregroundBlur_2401_29448"/>
</filter>
<clipPath id="clip0_2401_29448">
<path d="M0 9.6C0 6.23969 0 4.55953 0.653961 3.27606C1.2292 2.14708 2.14708 1.2292 3.27606 0.653961C4.55953 0 6.23969 0 9.6 0H1008.4C1011.76 0 1013.44 0 1014.72 0.653961C1015.85 1.2292 1016.77 2.14708 1017.35 3.27606C1018 4.55953 1018 6.23969 1018 9.6V30.4C1018 33.7603 1018 35.4405 1017.35 36.7239C1016.77 37.8529 1015.85 38.7708 1014.72 39.346C1013.44 40 1011.76 40 1008.4 40H9.59997C6.23968 40 4.55953 40 3.27606 39.346C2.14708 38.7708 1.2292 37.8529 0.653961 36.7239C0 35.4405 0 33.7603 0 30.4V9.6Z" fill="white"/>
</clipPath>
</defs>
</svg>
