<svg xmlns="http://www.w3.org/2000/svg" width="100" height="100" viewBox="0 0 100 100" fill="none">
<circle cx="49.9997" cy="50" r="49" transform="rotate(-45 49.9997 50)" fill="url(#paint0_radial_5756_27761)" stroke="#1F9EFE" stroke-width="2"/>
<path d="M74.9787 56.7479C75.273 56.5003 75.6125 54.131 75.5677 53.0286C64.9694 49.7119 43.8018 43.1055 49.815 48.8379C57.2896 55.9635 65.2441 59.8391 66.5049 60.0983C67.6439 60.3325 72.177 60.2065 74.197 60.0495C74.3341 60.0512 74.6047 60.0004 74.907 59.7228C75.2093 59.4452 75.2104 58.0952 75.1896 57.4588C75.1183 57.4884 74.0294 57.5964 74.0403 57.1824C74.0559 56.5861 74.6677 57.0095 74.9787 56.7479Z" fill="#09374E"/>
<path d="M57.659 74.0676C57.4114 74.3619 55.0422 74.7013 53.9397 74.6565C50.6231 64.0582 44.0166 42.8907 49.749 48.9038C56.8746 56.3784 60.7502 64.3329 61.0095 65.5937C61.2437 66.7328 61.1176 71.2659 60.9606 73.2859C60.9623 73.423 60.9115 73.6935 60.6339 73.9958C60.3563 74.2981 59.0063 74.2993 58.37 74.2784C58.3995 74.2072 58.5075 73.1183 58.0935 73.1292C57.4972 73.1448 57.9206 73.7566 57.659 74.0676Z" fill="#09374E"/>
<path d="M40.311 70.8748C40.8256 70.8663 42.3256 70.6515 42.8784 69.277L49.3037 67.3516C49.3037 67.3516 51.4308 75.1734 50.774 75.8301C45.0537 81.966 37.4093 81.3542 38.0351 80.7873C38.4917 80.3736 39.2813 79.0397 39.2514 78.7695C36.8614 80.4166 33.5908 79.7038 34.0999 79.1388C34.5586 78.6299 35.9739 76.257 35.8308 76.3588C32.6549 78.6166 27.3732 76.3574 28.7408 75.7033C29.2207 75.4737 31.4016 73.2117 30.7467 73.607C28.419 75.0122 24.5372 72.512 25.3786 72.198C26.3324 71.9266 27.8872 70.6509 27.8864 70.1041C24.0957 70.6115 20.0896 67.4852 20.8801 67.5068C21.2436 67.4652 23.6661 66.2215 23.6744 66.0715C23.6771 66.0226 21.2869 65.9837 19.3557 64.4786C17.5326 63.0577 17.2233 62.3326 18.1583 62.4583C18.92 62.5607 22.9363 61.1114 22.8637 60.9453C22.8177 60.8399 20.5279 60.2505 19.2555 59.1685C17.3233 57.5253 15.5106 55.2827 16.5259 55.4149C16.893 55.4627 18.2641 55.7337 21.149 55.0281C21.1653 54.9264 19.4963 54.303 18.0068 52.2279C16.4571 50.0689 15.9734 48.6321 16.1601 48.5014C16.3469 48.3707 17.3548 49.075 20.2001 49.395C20.1705 49.3255 18.8644 48.44 17.8787 47.0494C16.8076 45.5381 15.7697 43.0449 16.0241 42.9835C16.1019 42.9647 17.2789 43.7019 19.5395 43.8861C19.4473 43.8258 17.8742 42.909 17.0366 41.2976C16.3081 39.896 16.0685 38.0284 16.3113 38.3832C16.5055 38.6671 18.5313 39.8 18.7989 39.8157C18.3408 39.3576 17.3127 38.4368 16.8944 37.2482C16.3641 35.7415 16.3756 34.1521 16.6309 34.1515C16.8159 34.151 19.3615 37.1478 21.3831 37.7307C22.9282 41.2409 25.5298 53.8411 32.8226 63.3864C36.4313 68.1098 39.0068 70.8964 40.311 70.8748Z" fill="#00406C"/>
<path d="M41.2697 59.8284C41.5224 58.1856 44.6117 57.7134 46.2801 57.4707C48.4619 61.2897 52.3535 69.0747 51.747 71.182C51.1007 73.4273 47.8153 75.81 47.6496 75.6442C47.5629 75.3661 50.0393 69.1852 48.2968 71.7197C45.1487 76.5017 41.0281 78.7749 40.1357 77.8825C39.8578 77.6046 44.1166 71.7726 43.4599 72.4293C41.0219 75.3437 36.9625 77.1999 37.4489 75.9984C37.798 75.1359 39.5538 72.9632 39.2868 72.7846C37.2328 74.4145 31.4957 74.0628 31.7297 73.3392C31.9505 72.6563 34.5775 71.2207 34.4024 71.2341C29.911 71.5796 28.7128 70.0384 28.8644 69.9482C29.1769 69.7622 32.8677 67.9754 32.0773 68.1061C28.9857 68.617 25.0981 66.2857 25.3257 65.6592C25.5533 65.0327 31.2124 64.6998 30.2938 64.5484C27.0294 63.5651 23.6746 60.7883 24.4651 60.8099C24.8618 60.8208 30.3623 61.0734 30.2938 60.8694C30.2782 60.8229 27.9969 60.337 26.0657 58.8319C24.2426 57.4111 22.1059 55.2633 23.0409 55.389C23.8214 55.6365 26.9673 55.7057 26.8646 55.4705C26.8185 55.3651 25.4861 55.0565 24.2137 53.9744C22.2815 52.3313 20.742 49.8384 21.3491 50.0008C21.7136 50.0984 24.664 50.7004 24.7034 50.5448C24.7197 50.4431 23.488 49.735 22.5578 48.3712C21.5544 46.9 20.741 44.6978 20.9278 44.5671C21.1145 44.4364 22.7098 45.0571 22.7491 44.9601C22.7737 44.899 21.7809 44.3067 20.7927 43.1104C20.083 42.2513 19.4375 40.3462 19.7083 40.2809C19.925 40.2286 20.8267 40.5489 21.2344 40.7263C21.1629 40.6609 20.7919 40.2932 20.015 39.0979C19.2149 37.867 19.2931 36.6176 19.5359 36.9724C19.7301 37.2563 20.0749 37.3376 20.2932 37.3665C19.9446 36.9557 19.0789 35.8392 18.9673 34.584C18.8237 32.9685 19.6923 31.4522 20.0975 31.4512C20.3192 31.4507 20.4507 32.0122 20.5208 32.195C23.6264 40.2895 28.1846 52.7475 35.4775 62.2928C39.0862 67.0161 42.0069 67.8954 43.3111 67.8739C43.8257 67.8654 45.3257 67.6505 45.8785 66.276C46.6271 64.4146 41.0369 61.3415 41.2697 59.8284Z" fill="#0075BC"/>
<path d="M71.68 39.5053C71.6715 40.02 71.4566 41.52 70.0821 42.0727L68.1568 48.498C68.1568 48.498 75.9785 50.6251 76.6353 49.9684C82.7711 44.248 82.1594 36.6036 81.5924 37.2294C81.1788 37.686 79.8448 38.4757 79.5746 38.4458C81.2218 36.0557 80.5089 32.7851 79.944 33.2943C79.4351 33.7529 77.0622 35.1683 77.164 35.0251C79.4218 31.8492 77.1626 26.5675 76.5084 27.9351C76.2789 28.4151 74.0169 30.5959 74.4122 29.9411C75.8174 27.6134 73.3172 23.7316 73.0032 24.573C72.7317 25.5268 71.4561 27.0816 70.9093 27.0807C71.4167 23.29 68.2904 19.2839 68.312 20.0744C68.2704 20.4379 67.0267 22.8604 66.8767 22.8687C66.8278 22.8714 66.7888 20.4813 65.2837 18.55C63.8629 16.727 63.1378 16.4176 63.2635 17.3526C63.3659 18.1143 61.9165 22.1306 61.7505 22.0581C61.6451 22.012 61.0557 19.7222 59.9737 18.4499C58.3305 16.5177 56.0878 14.705 56.22 15.7202C56.2679 16.0873 56.5388 17.4585 55.8332 20.3433C55.7316 20.3596 55.1081 18.6907 53.033 17.2011C50.8741 15.6514 49.4373 15.1677 49.3066 15.3544C49.1759 15.5412 49.8802 16.5492 50.2002 19.3945C50.1307 19.3648 49.2451 18.0587 47.8545 17.0731C46.3433 16.0019 43.85 14.964 43.7886 15.2184C43.7698 15.2962 44.5071 16.4732 44.6913 18.7339C44.631 18.6416 43.7142 17.0685 42.1028 16.231C40.7011 15.5024 38.8336 15.2629 39.1884 15.5056C39.4722 15.6999 40.6052 17.7256 40.6209 17.9933C40.1628 17.5352 39.242 16.507 38.0533 16.0887C36.5467 15.5584 34.9573 15.57 34.9566 15.8253C34.9561 16.0103 37.9529 18.5558 38.5359 20.5774C42.046 22.1226 55.7044 25.0335 65.2497 32.3264C69.9731 35.9351 71.7016 38.2012 71.68 39.5053Z" fill="#00406C"/>
<path d="M60.6341 40.4645C58.9912 40.7173 58.5191 43.8065 58.2764 45.4749C62.0954 47.6567 69.8803 51.5484 71.9877 50.9418C74.2329 50.2955 76.6156 47.0101 76.4499 46.8444C76.1718 46.7577 69.9909 49.2341 72.5253 47.4916C77.3074 44.3435 79.5806 40.2229 78.6882 39.3305C78.4103 39.0526 72.5783 43.3115 73.235 42.6547C76.1493 40.2167 78.0056 36.1574 76.804 36.6437C75.9416 36.9928 73.7689 38.7486 73.5902 38.4816C75.2201 36.4276 74.8685 30.6905 74.1449 30.9245C73.462 31.1454 72.0263 33.7724 72.0398 33.5972C72.3853 29.1058 70.844 27.9076 70.7538 28.0592C70.5679 28.3718 68.7811 32.0625 68.9117 31.2721C69.4226 28.1805 67.0914 24.2929 66.4649 24.5206C65.8384 24.7482 65.5055 30.4072 65.3541 29.4886C64.3707 26.2242 61.594 22.8694 61.6156 23.66C61.6264 24.0567 61.8791 29.5571 61.675 29.4886C61.6286 29.473 61.1427 27.1917 59.6376 25.2605C58.2168 23.4374 56.069 21.3007 56.1947 22.2357C56.4422 23.0162 56.5113 26.1621 56.2762 26.0594C56.1708 26.0133 55.8621 24.6809 54.7801 23.4086C53.1369 21.4764 50.6441 19.9368 50.8065 20.5439C50.904 20.9084 51.5061 23.8589 51.3504 23.8982C51.2488 23.9145 50.5406 22.6828 49.1768 21.7526C47.7057 20.7493 45.5035 19.9358 45.3728 20.1226C45.2421 20.3093 45.8628 21.9047 45.7657 21.9439C45.7047 21.9685 45.1123 20.9757 43.916 19.9875C43.057 19.2778 41.1519 18.6324 41.0865 18.9032C41.0342 19.1198 41.3545 20.0215 41.5319 20.4293C41.4666 20.3577 41.0988 19.9867 39.9036 19.2098C38.6727 18.4097 37.4233 18.488 37.7781 18.7307C38.062 18.925 38.1432 19.2697 38.1722 19.488C37.7614 19.1394 36.6448 18.2737 35.3897 18.1622C33.7742 18.0186 32.2578 18.8871 32.2569 19.2923C32.2563 19.514 32.8178 19.6455 33.0006 19.7156C41.0952 22.8212 53.5531 27.3795 63.0984 34.6723C67.8218 38.281 68.7011 41.2017 68.6796 42.5059C68.671 43.0205 68.4562 44.5205 67.0817 45.0733C65.2203 45.8219 62.1472 40.2317 60.6341 40.4645Z" fill="#0075BC"/>
<path d="M30.7154 36.0202C31.2942 36.1847 38.5436 39.9274 42.3234 41.9221C42.0594 42.3101 41.6684 43.2239 42.2879 43.8433C43.0373 44.5927 44.1359 43.9976 44.5701 43.5635C45.1053 43.0283 45.3808 42.0042 44.7539 41.3773C44.0972 40.7205 43.2556 41.1786 42.8007 41.4448C42.8007 41.4448 37.0865 30.5207 36.9371 29.7985C37.1793 29.5563 38.0267 29.2541 39.1744 29.8053C39.7279 30.0712 46.6695 36.5348 49.4356 39.2521C50.2053 40.3987 51.4445 44.393 51.4445 44.393C56.4208 45.1534 66.3418 46.1337 72.9154 47.5767C75.7204 48.1925 77.8488 49.4418 78.8361 49.9675C82.0063 51.6555 86.375 55.3723 88.9638 57.9611C89.2498 58.2471 89.8662 60.0879 88.6976 61.3637C87.2645 62.9283 85.7344 62.6918 84.7926 62.1323C82.241 59.3136 78.62 56.6774 75.7094 55.1719C72.7987 53.6664 58.8275 51.8355 52.1782 51.25C53.0452 58.4617 53.6441 69.3744 56.1336 74.9655C57.4638 77.9529 61.577 82.4841 62.8958 83.8029C63.8485 84.9842 63.4053 86.656 62.2888 87.7725C61.4619 88.5994 59.6186 88.6806 58.8375 88.0518C58.4752 87.6895 54.9968 84.0272 52.4117 80.4198C50.7731 78.1332 49.3597 75.1481 48.666 73.0979C48.1441 71.5555 46.4177 58.3685 45.2836 50.5484C45.2836 50.5484 42.0464 49.6103 40.127 48.5715C36.8575 45.2052 31.0509 38.7445 30.7808 38.4185C30.4432 38.011 30.1971 36.3628 30.7154 36.0202Z" fill="#00B1FF"/>
<path d="M52.2615 73.888C51.1653 71.6004 49.811 58.4824 48.6768 50.6623L52.1778 51.2501C52.0186 50.4109 51.5472 47.792 51.5472 47.792C56.5163 48.4828 63.8147 49.2824 70.0102 50.3932C72.806 50.8945 74.3955 51.1478 75.4232 51.5893C77.389 52.4337 84.077 57.4313 84.3942 57.6799L84.4027 57.6866C84.7618 57.968 87.6949 60.2668 88.6674 61.3736C87.2343 62.9382 85.7339 62.6919 84.7922 62.1324C82.2406 59.3137 78.6195 56.6776 75.7089 55.1721C72.7983 53.6666 58.827 51.8356 52.1778 51.2501C53.0447 58.4619 53.6436 69.3746 56.1332 74.9657C57.4633 77.953 61.5766 82.4842 62.8954 83.803C63.848 84.9844 63.4049 86.6561 62.2883 87.7727C60.5391 86.0235 57.8411 82.619 56.2025 80.3324C54.5638 78.0458 53.2489 75.9487 52.2615 73.888Z" fill="#0075BC"/>
<defs>
<radialGradient id="paint0_radial_5756_27761" cx="0" cy="0" r="1" gradientUnits="userSpaceOnUse" gradientTransform="translate(49.9997 50) rotate(90) scale(50)">
<stop stop-color="#252E35"/>
<stop offset="1" stop-color="#181D22"/>
</radialGradient>
</defs>
</svg>
