<svg width="26" height="26" viewBox="0 0 26 26" fill="none" xmlns="http://www.w3.org/2000/svg">
<g id="Counter-Terrorists" clip-path="url(#clip0_1640_46857)">
<circle id="Ellipse 50" cx="13" cy="13" r="13" fill="#21232F"/>
<circle id="Ellipse 49" cx="13" cy="13" r="9.5" fill="url(#paint0_radial_1640_46857)" stroke="#1F9EFE"/>
<g id="Group 1174">
<path id="Vector 32" d="M15.3205 17.0376C15.3895 17.0436 15.7342 16.7852 15.8688 16.6392C14.942 14.8681 13.0887 11.3331 13.1244 12.828C13.1689 14.6863 13.688 16.1921 13.8155 16.3855C13.9307 16.5603 14.5237 17.1213 14.8008 17.3584C14.818 17.376 14.8589 17.404 14.9327 17.4071C15.0065 17.4103 15.1785 17.2386 15.2568 17.155C15.244 17.1497 15.0917 17.0248 15.1457 16.9735C15.2236 16.8996 15.2476 17.0314 15.3205 17.0376Z" fill="#00406C"/>
<path id="Vector 31" d="M10.9115 17.0376C10.8425 17.0436 10.4978 16.7852 10.3632 16.6392C11.29 14.8681 13.1433 11.3331 13.1076 12.828C13.0631 14.6863 12.544 16.1921 12.4165 16.3855C12.3013 16.5603 11.7083 17.1213 11.4312 17.3584C11.414 17.376 11.3731 17.404 11.2993 17.4071C11.2255 17.4103 11.0535 17.2386 10.9752 17.155C10.988 17.1497 11.1403 17.0248 11.0862 16.9735C11.0084 16.8996 10.9844 17.0314 10.9115 17.0376Z" fill="#00406C"/>
<path id="Vector 28" d="M9.11 14.424C9.17658 14.4884 9.39485 14.652 9.64015 14.5474L10.703 15.1201C10.703 15.1201 9.9782 16.3864 9.81102 16.3864C8.30197 16.4393 7.40686 15.3884 7.55868 15.3959C7.66943 15.4014 7.93973 15.3321 7.97031 15.2939C7.45646 15.1994 7.13091 14.6924 7.26762 14.6853C7.39077 14.6789 7.87294 14.557 7.84176 14.5517C7.15017 14.4349 6.76547 13.4751 7.02279 13.5659C7.1131 13.5977 7.67858 13.5874 7.54492 13.5544C7.06979 13.437 6.89394 12.6247 7.04101 12.6918C7.19695 12.7786 7.55721 12.8142 7.6267 12.7445C7.07964 12.3266 6.96766 11.4188 7.06553 11.5221C7.11708 11.5631 7.58371 11.7131 7.60387 11.6951C7.61043 11.6892 7.31117 11.3801 7.25694 10.9427C7.20574 10.5298 7.25866 10.3981 7.36166 10.5331C7.44558 10.6431 8.14124 10.9698 8.15315 10.9395C8.1607 10.9202 7.94427 10.5537 7.92005 10.2541C7.88326 9.79899 7.93799 9.28284 8.05038 9.42888C8.09102 9.48169 8.23105 9.6907 8.68804 9.96807C8.70306 9.95721 8.56998 9.66544 8.64451 9.21173C8.72204 8.7397 8.84335 8.49525 8.88376 8.50238C8.92417 8.50952 8.96282 8.72745 9.28424 9.13033C9.28931 9.11772 9.23578 8.83877 9.28732 8.53632C9.34333 8.20763 9.52858 7.75819 9.56877 7.78275C9.58106 7.79026 9.63703 8.0339 9.90132 8.34509C9.89726 8.32567 9.81373 8.00876 9.91222 7.69706C9.99789 7.42593 10.2051 7.15773 10.1908 7.23379C10.1794 7.29464 10.2931 7.69668 10.3251 7.73274C10.3251 7.61613 10.3115 7.36807 10.4095 7.16353C10.5338 6.90428 10.7376 6.70345 10.7701 6.73586C10.7937 6.75935 10.7363 7.46477 10.9194 7.79628C10.6693 8.43971 9.39669 10.3746 9.11 12.5177C8.96813 13.5782 8.94126 14.2607 9.11 14.424Z" fill="#00406C"/>
<path id="Vector 27" d="M10.638 13.1402C10.8793 12.9633 11.3326 13.2964 11.5758 13.4779C11.3675 14.2416 10.8719 15.7278 10.5265 15.9188C10.1585 16.1224 9.43705 16.0075 9.43705 15.9653C9.46141 15.9188 10.5633 15.4473 10.0189 15.5481C9.00959 15.7561 8.1958 15.521 8.1958 15.2938C8.1958 15.2231 9.48015 15.0228 9.31297 15.0228C8.63174 15.0835 7.8788 14.8031 8.09363 14.712C8.24784 14.6467 8.74786 14.5936 8.73661 14.5369C8.26772 14.4829 7.58227 13.7079 7.70416 13.6456C7.81919 13.5868 8.33627 13.7385 8.31226 13.7179C7.69663 13.1902 7.74029 12.8415 7.77108 12.8493C7.83452 12.8654 8.5317 13.1078 8.41447 13.0238C7.95594 12.6953 7.75786 11.9038 7.86657 11.853C7.97528 11.8023 8.73793 12.4802 8.64028 12.344C8.34995 11.8033 8.27637 11.0229 8.37424 11.1263C8.42336 11.1782 9.0913 11.9104 9.10855 11.8757C9.11247 11.8678 8.88396 11.5156 8.82972 11.0782C8.77853 10.6654 8.77993 10.12 8.88293 10.255C8.95078 10.3859 9.34238 10.7951 9.35924 10.7521C9.3668 10.7328 9.23649 10.5239 9.21227 10.2243C9.17548 9.7692 9.29682 9.25596 9.35341 9.35391C9.38739 9.41271 9.68629 9.86488 9.71111 9.85007C9.72613 9.8392 9.65948 9.5923 9.71468 9.30032C9.77422 8.98537 9.95098 8.60155 9.99138 8.60868C10.0318 8.61581 10.1558 8.89787 10.1732 8.89051C10.1841 8.88587 10.1331 8.68412 10.1596 8.40607C10.1786 8.20641 10.3389 7.88177 10.3817 7.90792C10.416 7.92884 10.49 8.08438 10.5193 8.15886C10.5185 8.14143 10.5181 8.0474 10.5713 7.79639C10.6262 7.53788 10.7951 7.38882 10.7809 7.46488C10.7695 7.52573 10.803 7.57996 10.8271 7.61143C10.835 7.51477 10.8669 7.26247 11.0125 7.08852C11.1998 6.86462 11.5034 6.78217 11.5551 6.83363C11.5834 6.86178 11.5286 6.94997 11.5143 6.98217C10.8793 8.40771 9.87385 10.5735 9.58715 12.7167C9.44528 13.7772 9.70511 14.2608 9.87385 14.4241C9.94043 14.4885 10.1587 14.6521 10.404 14.5475C10.7362 14.4058 10.4158 13.3032 10.638 13.1402Z" fill="#1F9EFE"/>
<path id="Vector 29" d="M17.0951 14.4235C17.0285 14.4879 16.8102 14.6515 16.5649 14.5469L15.5021 15.1196C15.5021 15.1196 16.2269 16.3859 16.3941 16.3859C17.9031 16.4388 18.7982 15.388 18.6464 15.3954C18.5356 15.4009 18.2654 15.3316 18.2348 15.2934C18.7486 15.1989 19.0742 14.6919 18.9375 14.6848C18.8143 14.6784 18.3321 14.5565 18.3633 14.5512C19.0549 14.4344 19.4396 13.4746 19.1823 13.5654C19.092 13.5973 18.5265 13.5869 18.6602 13.5539C19.1353 13.4365 19.3111 12.6242 19.1641 12.6913C19.0081 12.7782 18.6479 12.8137 18.5784 12.744C19.1254 12.3261 19.2374 11.4183 19.1395 11.5216C19.088 11.5626 18.6214 11.7127 18.6012 11.6946C18.5946 11.6887 18.8939 11.3796 18.9481 10.9422C18.9993 10.5293 18.9464 10.3976 18.8434 10.5326C18.7595 10.6426 18.0638 10.9693 18.0519 10.939C18.0444 10.9197 18.2608 10.5532 18.285 10.2536C18.3218 9.79851 18.2671 9.28235 18.1547 9.42839C18.1141 9.48121 17.974 9.69021 17.517 9.96758C17.502 9.95672 17.6351 9.66495 17.5606 9.21124C17.483 8.73921 17.3617 8.49477 17.3213 8.5019C17.2809 8.50903 17.2423 8.72696 16.9208 9.12985C16.9158 9.11723 16.9693 8.83828 16.9178 8.53583C16.8617 8.20714 16.6765 7.7577 16.6363 7.78226C16.624 7.78978 16.568 8.03341 16.3038 8.3446C16.3078 8.32518 16.3914 8.00827 16.2929 7.69657C16.2072 7.42544 16 7.15724 16.0142 7.2333C16.0256 7.29415 15.912 7.6962 15.8799 7.73225C15.8799 7.61564 15.8936 7.36758 15.7956 7.16305C15.6713 6.90379 15.4675 6.70296 15.4349 6.73537C15.4113 6.75886 15.4688 7.46428 15.2857 7.79579C15.5358 8.43922 16.9037 10.5482 17.1904 12.6913C17.3322 13.7518 17.2638 14.2602 17.0951 14.4235Z" fill="#00406C"/>
<path id="Vector 30" d="M15.5671 13.1402C15.3258 12.9633 14.8725 13.2964 14.6293 13.4779C14.8377 14.2416 15.3332 15.7278 15.6786 15.9188C16.0467 16.1224 16.7681 16.0075 16.7681 15.9653C16.7437 15.9188 15.6418 15.4473 16.1862 15.5481C17.1955 15.7561 18.0093 15.521 18.0093 15.2938C18.0093 15.2231 16.725 15.0228 16.8922 15.0228C17.5734 15.0835 18.3263 14.8031 18.1115 14.712C17.9573 14.6467 17.4573 14.5936 17.4685 14.5369C17.9374 14.4829 18.6229 13.7079 18.501 13.6456C18.386 13.5868 17.8689 13.7385 17.8929 13.7179C18.5085 13.1902 18.4648 12.8415 18.4341 12.8493C18.3706 12.8654 17.6734 13.1078 17.7907 13.0238C18.2492 12.6953 18.4473 11.9038 18.3386 11.853C18.2299 11.8023 17.4672 12.4802 17.5649 12.344C17.8552 11.8033 17.9288 11.0229 17.8309 11.1263C17.7818 11.1782 17.1138 11.9104 17.0966 11.8757C17.0927 11.8678 17.3212 11.5156 17.3754 11.0782C17.4266 10.6654 17.4252 10.12 17.3222 10.255C17.2544 10.3859 16.8628 10.7951 16.8459 10.7521C16.8383 10.7328 16.9686 10.5239 16.9929 10.2243C17.0297 9.7692 16.9083 9.25596 16.8517 9.35391C16.8178 9.41271 16.5188 9.86488 16.494 9.85007C16.479 9.8392 16.5457 9.5923 16.4905 9.30032C16.4309 8.98537 16.2542 8.60155 16.2138 8.60868C16.1733 8.61581 16.0493 8.89787 16.032 8.89051C16.021 8.88587 16.072 8.68412 16.0455 8.40607C16.0265 8.20641 15.8662 7.88177 15.8234 7.90792C15.7892 7.92884 15.7152 8.08438 15.6859 8.15886C15.6867 8.14143 15.6871 8.0474 15.6338 7.79639C15.579 7.53788 15.41 7.38882 15.4243 7.46488C15.4357 7.52573 15.4021 7.57996 15.378 7.61143C15.3701 7.51477 15.3382 7.26247 15.1926 7.08852C15.0053 6.86462 14.7017 6.78217 14.65 6.83363C14.6218 6.86178 14.6765 6.94997 14.6908 6.98217C15.3258 8.40771 16.3313 10.5735 16.618 12.7167C16.7599 13.7772 16.5 14.2608 16.3313 14.4241C16.2647 14.4885 16.0464 14.6521 15.8011 14.5475C15.4689 14.4058 15.7893 13.3032 15.5671 13.1402Z" fill="#1F9EFE"/>
<path id="Vector 26" d="M12.3251 8.76562C12.3778 8.86023 12.8241 10.2593 13.0513 10.9943C12.9683 11.0101 12.8023 11.0766 12.8023 11.2343C12.8023 11.425 13.0178 11.4891 13.1284 11.4891C13.2646 11.4891 13.43 11.3939 13.43 11.2343C13.43 11.0671 13.2646 11.0183 13.1728 10.9943C13.1728 10.9943 13.8359 8.87656 13.9088 8.76562C13.9705 8.76562 14.1168 8.83502 14.1927 9.05124C14.2293 9.15554 14.2902 10.8617 14.2964 11.5597C14.2484 11.8036 13.8978 12.4697 13.8978 12.4697C14.4344 13.1998 15.5723 14.5874 16.2253 15.6077C16.504 16.0431 16.6159 16.473 16.6746 16.6656C16.8633 17.2839 16.9462 18.3131 16.9462 18.9721C16.9462 19.0449 16.7904 19.3576 16.4793 19.3713C16.0977 19.388 15.9331 19.1631 15.8844 18.9721C15.9184 18.2885 15.7931 17.4921 15.6142 16.93C15.4354 16.368 13.8902 14.3567 13.1184 13.4358C12.3108 14.4641 10.9981 15.9293 10.6033 16.9578C10.3924 17.5073 10.3392 18.6076 10.3392 18.9433C10.3101 19.2149 10.0409 19.3713 9.75669 19.3713C9.54619 19.3713 9.30126 19.147 9.28186 18.9675C9.28186 18.8753 9.30528 17.9664 9.43539 17.1783C9.51786 16.6787 9.71791 16.1188 9.89056 15.7696C10.0205 15.5068 11.4792 13.6087 12.3301 12.469C12.3301 12.469 12.0375 11.9376 11.9254 11.561C11.9377 10.7164 12.021 9.15507 12.0281 9.0792C12.037 8.98437 12.2155 8.74326 12.3251 8.76562Z" fill="#1F9EFE"/>
<path id="Vector 33" d="M10.2475 16.3284C10.3991 15.8977 11.8964 14.0557 12.7474 12.916L13.1182 13.4364C13.2047 13.3093 13.4781 12.916 13.4781 12.916C14.0226 13.6364 14.8498 14.6671 15.4969 15.597C15.789 16.0167 15.959 16.2512 16.0337 16.4382C16.1764 16.7959 16.3915 18.2833 16.4003 18.3553L16.4005 18.3572C16.4104 18.4387 16.4911 19.1046 16.474 19.3693C16.0925 19.386 15.9329 19.1637 15.8842 18.9726C15.9182 18.2891 15.7929 17.4927 15.614 16.9306C15.4352 16.3685 13.89 14.3572 13.1182 13.4364C12.3106 14.4647 10.9979 15.9299 10.6031 16.9584C10.3922 17.5079 10.339 18.6081 10.339 18.9439C10.3099 19.2155 10.0407 19.3718 9.75647 19.3718C9.75647 18.9266 9.84639 18.1498 9.92887 17.6502C10.0113 17.1506 10.1109 16.7164 10.2475 16.3284Z" fill="#1F9EFE"/>
</g>
</g>
<defs>
<radialGradient id="paint0_radial_1640_46857" cx="0" cy="0" r="1" gradientUnits="userSpaceOnUse" gradientTransform="translate(13 13) rotate(90) scale(9)">
<stop stop-color="#252E35"/>
<stop offset="1" stop-color="#181D22"/>
</radialGradient>
<clipPath id="clip0_1640_46857">
<rect width="26" height="26" fill="white"/>
</clipPath>
</defs>
</svg>
