<svg width="58" height="58" viewBox="0 0 58 58" fill="none" xmlns="http://www.w3.org/2000/svg">
<circle cx="29" cy="28.9999" r="26.6" fill="url(#paint0_radial_5512_6446)" stroke="#1F9EFE"/>
<path d="M35.7291 40.7092C35.9292 40.7264 36.929 39.9772 37.3193 39.5538C34.6316 34.4176 29.257 24.166 29.3606 28.5013C29.4894 33.8904 30.995 38.257 31.3647 38.8181C31.6987 39.325 33.4184 40.9517 34.222 41.6393C34.2719 41.6906 34.3905 41.7717 34.6046 41.7808C34.8186 41.7899 35.3174 41.292 35.5445 41.0495C35.5073 41.034 35.0656 40.672 35.2224 40.5232C35.4482 40.3089 35.5178 40.691 35.7291 40.7092Z" fill="#09374E"/>
<path d="M22.9437 40.7092C22.7437 40.7264 21.7439 39.9772 21.3535 39.5538C24.0412 34.4176 29.4159 24.166 29.3123 28.5013C29.1834 33.8904 27.6779 38.257 27.3082 38.8181C26.9742 39.325 25.2544 40.9517 24.4509 41.6393C24.4009 41.6906 24.2823 41.7717 24.0683 41.7808C23.8542 41.7899 23.3555 41.292 23.1283 41.0495C23.1655 41.034 23.6073 40.672 23.4505 40.5232C23.2246 40.3089 23.1551 40.691 22.9437 40.7092Z" fill="#09374E"/>
<path d="M17.7186 33.1297C17.9117 33.3165 18.5447 33.7909 19.256 33.4876L22.3383 35.1485C22.3383 35.1485 20.2364 38.8207 19.7515 38.8207C15.3753 38.9741 12.7795 35.9267 13.2198 35.9484C13.541 35.9643 14.3248 35.7633 14.4135 35.6526C12.9233 35.3784 11.9792 33.908 12.3757 33.8874C12.7328 33.8689 14.1311 33.5155 14.0407 33.5002C12.0351 33.1613 10.9194 30.3779 11.6657 30.6412C11.9276 30.7336 13.5675 30.7037 13.1799 30.6079C11.802 30.2674 11.292 27.9117 11.7185 28.1064C12.1708 28.3583 13.2155 28.4613 13.417 28.2592C11.8305 27.0473 11.5058 24.4146 11.7896 24.7144C11.9391 24.8332 13.2924 25.2683 13.3508 25.216C13.3699 25.199 12.502 24.3023 12.3447 23.034C12.1962 21.8366 12.3497 21.4548 12.6484 21.8463C12.8918 22.1652 14.9092 23.1127 14.9437 23.0247C14.9656 22.9687 14.338 21.906 14.2677 21.037C14.1611 19.7173 14.3198 18.2204 14.6457 18.6439C14.7636 18.7971 15.1696 19.4032 16.4949 20.2076C16.5385 20.1761 16.1525 19.33 16.3687 18.0142C16.5935 16.6453 16.9453 15.9364 17.0625 15.9571C17.1797 15.9778 17.2918 16.6098 18.2239 17.7782C18.2386 17.7416 18.0834 16.9326 18.2328 16.0555C18.3953 15.1023 18.9325 13.7989 19.049 13.8702C19.0847 13.892 19.247 14.5985 20.0134 15.501C20.0016 15.4446 19.7594 14.5256 20.045 13.6217C20.2935 12.8354 20.8944 12.0576 20.853 12.2782C20.82 12.4547 21.1495 13.6206 21.2425 13.7251C21.2425 13.387 21.2029 12.6676 21.4872 12.0744C21.8476 11.3226 22.4385 10.7402 22.533 10.8342C22.6015 10.9023 22.4349 12.948 22.9659 13.9094C22.2406 15.7754 18.55 21.3865 17.7186 27.6016C17.3072 30.6771 17.2293 32.6563 17.7186 33.1297Z" fill="#00406C"/>
<path d="M22.1502 29.4067C22.8499 28.8936 24.1645 29.8596 24.8699 30.3858C24.2656 32.6008 22.8285 36.9108 21.8268 37.4647C20.7595 38.0549 18.6674 37.7217 18.6674 37.5994C18.738 37.4647 21.9335 36.0973 20.3548 36.3897C17.4278 36.9928 15.0677 36.3109 15.0677 35.6521C15.0677 35.4469 18.7924 34.8663 18.3076 34.8663C16.332 35.0421 14.1484 34.2289 14.7715 33.9649C15.2187 33.7754 16.6687 33.6215 16.6361 33.4571C15.2763 33.3005 13.2885 31.0531 13.642 30.8724C13.9756 30.7018 15.4751 31.1416 15.4055 31.0819C13.6202 29.5516 13.7468 28.5404 13.8361 28.5631C14.02 28.6098 16.0418 29.3126 15.7019 29.0691C14.3722 28.1165 13.7977 25.8211 14.113 25.6739C14.4282 25.5266 16.6399 27.4926 16.3567 27.0976C15.5148 25.5297 15.3014 23.2665 15.5852 23.5663C15.7277 23.7167 17.6647 25.8402 17.7147 25.7396C17.7261 25.7168 17.0634 24.6953 16.9061 23.427C16.7577 22.2296 16.7617 20.6482 17.0604 21.0397C17.2572 21.4191 18.3928 22.6058 18.4417 22.4811C18.4636 22.4252 18.0858 21.8195 18.0155 20.9504C17.9088 19.6307 18.2607 18.1423 18.4248 18.4264C18.5234 18.5969 19.3902 19.9082 19.4621 19.8652C19.5057 19.8337 19.3124 19.1177 19.4725 18.271C19.6452 17.3576 20.1578 16.2445 20.2749 16.2652C20.3921 16.2859 20.7519 17.1039 20.8022 17.0825C20.8338 17.0691 20.686 16.484 20.7628 15.6777C20.8179 15.0986 21.2829 14.1572 21.4069 14.233C21.5062 14.2937 21.7208 14.7447 21.8058 14.9607C21.8035 14.9102 21.8024 14.6375 21.9568 13.9096C22.1158 13.1599 22.6058 12.7276 22.5645 12.9482C22.5314 13.1247 22.6287 13.2819 22.6985 13.3732C22.7215 13.0929 22.8141 12.3612 23.2362 11.8567C23.7795 11.2074 24.6598 10.9683 24.8097 11.1176C24.8917 11.1992 24.733 11.455 24.6914 11.5483C22.8499 15.6824 19.9341 21.9633 19.1027 28.1784C18.6913 31.2538 19.4447 32.6564 19.9341 33.1299C20.1272 33.3167 20.7601 33.791 21.4715 33.4877C22.4349 33.077 21.5058 29.8793 22.1502 29.4067Z" fill="#1F9EFE"/>
<path d="M40.8744 33.1282C40.6813 33.315 40.0484 33.7894 39.337 33.4861L36.2547 35.1471C36.2547 35.1471 38.3566 38.8193 38.8415 38.8193C43.2177 38.9726 45.8135 35.9252 45.3733 35.9469C45.0521 35.9628 44.2682 35.7619 44.1795 35.6511C45.6697 35.3769 46.6138 33.9066 46.2173 33.886C45.8602 33.8674 44.4619 33.514 44.5523 33.4987C46.5579 33.1598 47.6736 30.3764 46.9273 30.6398C46.6654 30.7322 45.0255 30.7022 45.4132 30.6064C46.791 30.2659 47.301 27.9103 46.8745 28.1049C46.4223 28.3568 45.3775 28.4599 45.176 28.2577C46.7625 27.0458 47.0872 24.4131 46.8034 24.7129C46.6539 24.8317 45.3007 25.2668 45.2422 25.2145C45.2232 25.1975 46.091 24.3009 46.2483 23.0325C46.3968 21.8351 46.2433 21.4533 45.9446 21.8448C45.7012 22.1638 43.6838 23.1113 43.6493 23.0232C43.6274 22.9673 44.255 21.9046 44.3253 21.0355C44.432 19.7158 44.2733 18.219 43.9473 18.6425C43.8295 18.7956 43.4234 19.4018 42.0981 20.2061C42.0546 20.1746 42.4405 19.3285 42.2244 18.0127C41.9995 16.6438 41.6477 15.935 41.5305 15.9556C41.4133 15.9763 41.3012 16.6083 40.3691 17.7767C40.3544 17.7401 40.5096 16.9311 40.3602 16.054C40.1978 15.1009 39.6605 13.7975 39.544 13.8687C39.5083 13.8905 39.346 14.597 38.5796 15.4995C38.5914 15.4432 38.8336 14.5241 38.548 13.6202C38.2995 12.8339 37.6986 12.0561 37.74 12.2767C37.7731 12.4532 37.4435 13.6191 37.3505 13.7237C37.3505 13.3855 37.3901 12.6661 37.1058 12.073C36.7454 11.3211 36.1545 10.7387 36.06 10.8327C35.9916 10.9008 36.1581 12.9466 35.6271 13.9079C36.3524 15.7739 40.3194 21.8898 41.1508 28.1049C41.5622 31.1804 41.3638 32.6548 40.8744 33.1282Z" fill="#00406C"/>
<path d="M36.4445 29.4067C35.7448 28.8936 34.4302 29.8596 33.7248 30.3858C34.3291 32.6008 35.7662 36.9108 36.7679 37.4647C37.8352 38.0549 39.9274 37.7217 39.9274 37.5994C39.8567 37.4647 36.6612 36.0973 38.2399 36.3897C41.167 36.9928 43.527 36.3109 43.527 35.6521C43.527 35.4469 39.8023 34.8663 40.2872 34.8663C42.2628 35.0421 44.4463 34.2289 43.8233 33.9649C43.3761 33.7754 41.926 33.6215 41.9586 33.4571C43.3184 33.3005 45.3062 31.0531 44.9527 30.8724C44.6192 30.7018 43.1196 31.1416 43.1892 31.0819C44.9746 29.5516 44.8479 28.5404 44.7587 28.5631C44.5747 28.6098 42.5529 29.3126 42.8928 29.0691C44.2226 28.1165 44.797 25.8211 44.4817 25.6739C44.1665 25.5266 41.9548 27.4926 42.238 27.0976C43.0799 25.5297 43.2933 23.2665 43.0095 23.5663C42.8671 23.7167 40.93 25.8402 40.88 25.7396C40.8686 25.7168 41.5313 24.6953 41.6886 23.427C41.8371 22.2296 41.833 20.6482 41.5343 21.0397C41.3375 21.4191 40.2019 22.6058 40.153 22.4811C40.1311 22.4252 40.509 21.8195 40.5792 20.9504C40.6859 19.6307 40.334 18.1423 40.1699 18.4264C40.0714 18.5969 39.2045 19.9082 39.1326 19.8652C39.089 19.8337 39.2823 19.1177 39.1222 18.271C38.9496 17.3576 38.437 16.2445 38.3198 16.2652C38.2026 16.2859 37.8429 17.1039 37.7926 17.0825C37.7609 17.0691 37.9087 16.484 37.8319 15.6777C37.7768 15.0986 37.3119 14.1572 37.1878 14.233C37.0885 14.2937 36.8739 14.7447 36.7889 14.9607C36.7912 14.9102 36.7924 14.6375 36.638 13.9096C36.4789 13.1599 35.9889 12.7276 36.0302 12.9482C36.0633 13.1247 35.9661 13.2819 35.8962 13.3732C35.8732 13.0929 35.7806 12.3612 35.3585 11.8567C34.8152 11.2074 33.935 10.9683 33.785 11.1176C33.703 11.1992 33.8617 11.455 33.9033 11.5483C35.7448 15.6824 38.6606 21.9633 39.4921 28.1784C39.9035 31.2538 39.15 32.6564 38.6606 33.1299C38.4675 33.3167 37.8346 33.791 37.1232 33.4877C36.1598 33.077 37.0889 29.8793 36.4445 29.4067Z" fill="#1F9EFE"/>
<path d="M27.0421 16.72C27.195 16.9944 28.4893 21.0517 29.1482 23.1831C28.9076 23.2289 28.426 23.4219 28.426 23.8792C28.426 24.4324 29.0511 24.6183 29.3717 24.6183C29.7668 24.6183 30.2465 24.3419 30.2465 23.8792C30.2465 23.3943 29.7668 23.2528 29.5006 23.1831C29.5006 23.1831 31.4236 17.0418 31.635 16.72C31.8138 16.72 32.2382 16.9213 32.4583 17.5484C32.5645 17.8508 32.7409 22.7988 32.7589 24.8228C32.6198 25.5301 31.6029 27.4619 31.6029 27.4619C33.159 29.5793 36.4591 33.6031 38.3529 36.5621C39.1609 37.8247 39.4854 39.0715 39.6558 39.6299C40.2029 41.4232 40.4435 44.4076 40.4435 46.3187C40.4435 46.5299 39.9915 47.4368 39.0893 47.4764C37.9828 47.5249 37.5053 46.8728 37.3643 46.3187C37.4629 44.3365 37.0993 42.0269 36.5807 40.3969C36.062 38.7668 31.5809 32.9341 29.3427 30.2637C27.0008 33.2456 23.1939 37.4946 22.0491 40.4773C21.4374 42.0709 21.2831 45.2617 21.2831 46.2352C21.1987 47.0229 20.4181 47.4764 19.5938 47.4764C18.9834 47.4764 18.273 46.826 18.2168 46.3056C18.2168 46.0381 18.2847 43.4024 18.662 41.1167C18.9012 39.6679 19.4813 38.0443 19.982 37.0316C20.3587 36.2696 24.5889 30.7649 27.0568 27.4598C27.0568 27.4598 26.2082 25.9187 25.8832 24.8268C25.9189 22.3774 26.1603 17.8495 26.181 17.6294C26.2067 17.3544 26.7243 16.6552 27.0421 16.72Z" fill="#1F9EFE"/>
<path d="M21.0172 38.6521C21.457 37.4031 25.7991 32.0613 28.2669 28.7562L29.3422 30.2654C29.5932 29.8968 30.3858 28.7562 30.3858 28.7562C31.965 30.8453 34.3638 33.8344 36.2406 36.5312C37.0876 37.7482 37.5807 38.4283 37.7971 38.9707C38.211 40.008 38.835 44.3212 38.8603 44.5301L38.861 44.5356C38.8896 44.7718 39.1238 46.7032 39.0742 47.4707C37.9677 47.5193 37.5048 46.8745 37.3637 46.3204C37.4623 44.3382 37.0988 42.0286 36.5801 40.3986C36.0615 38.7685 31.5804 32.9358 29.3422 30.2654C27.0003 33.2473 23.1934 37.4963 22.0485 40.479C21.4369 42.0726 21.2826 45.2634 21.2826 46.2369C21.1982 47.0246 20.4175 47.4781 19.5933 47.4781C19.5932 46.1868 19.854 43.9343 20.0932 42.4855C20.3324 41.0366 20.6211 39.7772 21.0172 38.6521Z" fill="#1F9EFE"/>
<defs>
<radialGradient id="paint0_radial_5512_6446" cx="0" cy="0" r="1" gradientUnits="userSpaceOnUse" gradientTransform="translate(29 28.9999) rotate(90) scale(26.1)">
<stop stop-color="#252E35"/>
<stop offset="1" stop-color="#181D22"/>
</radialGradient>
</defs>
</svg>
