<svg width="103" height="105" viewBox="0 0 103 105" fill="none" xmlns="http://www.w3.org/2000/svg">
<g id="Counter-Terrorists">
<path id="Vector 32" d="M69.4682 85.5932C70.0387 85.6421 72.8904 83.5165 74.0039 82.3151C66.3378 67.7433 51.0079 38.6582 51.3035 50.9581C51.671 66.2476 55.9652 78.6362 57.0196 80.2279C57.9723 81.666 62.8774 86.2812 65.1694 88.2321C65.3119 88.3774 65.6502 88.6076 66.2607 88.6334C66.8712 88.6592 68.2937 87.2468 68.9417 86.5585C68.8356 86.5148 67.5756 85.4876 68.0228 85.0655C68.667 84.4575 68.8653 85.5415 69.4682 85.5932Z" fill="#09374E"/>
<path id="Vector 31" d="M32.9986 85.5932C32.4281 85.6421 29.5764 83.5165 28.4629 82.3151C36.129 67.7433 51.459 38.6582 51.1635 50.9581C50.796 66.2476 46.5017 78.6362 45.4473 80.2279C44.4946 81.666 39.5895 86.2812 37.2975 88.2321C37.155 88.3774 36.8167 88.6076 36.2062 88.6334C35.5956 88.6592 34.1731 87.2468 33.5251 86.5585C33.6313 86.5148 34.8913 85.4876 34.444 85.0655C33.7998 84.4575 33.6015 85.5415 32.9986 85.5932Z" fill="#09374E"/>
<path id="Vector 28" d="M18.0966 64.083C18.6473 64.613 20.4527 65.9588 22.4818 65.0983L31.2733 69.8107C31.2733 69.8107 25.278 80.2291 23.8951 80.2291C11.4129 80.6643 4.00896 72.0184 5.2647 72.08C6.18082 72.125 8.41658 71.555 8.66959 71.2407C4.41924 70.4627 1.72641 66.2913 2.85722 66.2328C3.87581 66.1802 7.86415 65.1775 7.60624 65.1341C1.88566 64.1727 -1.29642 56.2758 0.83207 57.0229C1.57902 57.2851 6.25648 57.2001 5.15087 56.9284C1.22084 55.9624 -0.233727 49.2791 0.982729 49.8313C2.27266 50.5459 5.25256 50.8383 5.82733 50.2647C1.30226 46.8264 0.376045 39.3573 1.18557 40.2078C1.61201 40.5449 5.47177 41.7794 5.63847 41.631C5.69281 41.5826 3.21742 39.0388 2.76882 35.4403C2.34533 32.0432 2.78306 30.9599 3.63508 32.0706C4.32918 32.9755 10.0834 35.6637 10.1819 35.4139C10.2444 35.2552 8.45418 32.2401 8.2538 29.7746C7.94951 26.0304 8.40219 21.7837 9.33183 22.9853C9.66803 23.4198 10.8263 25.1394 14.6063 27.4215C14.7305 27.3322 13.6298 24.9316 14.2462 21.1986C14.8876 17.3149 15.891 15.3037 16.2253 15.3624C16.5595 15.4211 16.8792 17.2142 19.5378 20.5289C19.5798 20.4251 19.137 18.13 19.5633 15.6416C20.0266 12.9373 21.5589 9.23945 21.8914 9.44152C21.9931 9.50335 22.456 11.5079 24.6421 14.0682C24.6085 13.9085 23.9175 11.301 24.7322 8.73649C25.4409 6.50572 27.1549 4.29907 27.0369 4.92489C26.9425 5.42555 27.8825 8.7334 28.1478 9.03004C28.1478 8.07064 28.0347 6.0297 28.8457 4.34684C29.8737 2.2138 31.5591 0.56144 31.8286 0.828097C32.0239 1.02132 31.5488 6.82528 33.0634 9.55283C30.9947 14.8467 20.468 30.7661 18.0966 48.3991C16.9231 57.1246 16.7009 62.7398 18.0966 64.083Z" fill="#00406C"/>
<path id="Vector 27" d="M30.7366 53.5188C32.7323 52.0631 36.4817 54.8037 38.4937 56.2967C36.7701 62.5808 32.6712 74.8086 29.814 76.3803C26.7698 78.0547 20.8024 77.1094 20.8024 76.7623C21.004 76.3803 30.1183 72.5009 25.6156 73.3303C17.2667 75.0414 10.5353 73.1067 10.5353 71.2377C10.5353 70.6556 21.159 69.0082 19.7762 69.0082C14.1412 69.507 7.91324 67.1999 9.69026 66.4509C10.9658 65.9133 15.1017 65.4768 15.0087 65.0101C11.1303 64.566 5.46047 58.1897 6.46868 57.677C7.42014 57.1932 11.6973 58.4408 11.4987 58.2715C6.4064 53.9299 6.76759 51.0611 7.02221 51.1254C7.54696 51.258 13.3137 53.2518 12.3441 52.5609C8.55135 49.8583 6.91288 43.346 7.81208 42.9283C8.71127 42.5106 15.0196 48.0881 14.2119 46.9676C11.8104 42.5193 11.2018 36.0984 12.0114 36.9488C12.4176 37.3756 17.9426 43.4003 18.0852 43.1149C18.1177 43.05 16.2275 40.1521 15.7789 36.5535C15.3554 33.1565 15.367 28.6698 16.219 29.7805C16.7802 30.8571 20.0194 34.2238 20.1588 33.8701C20.2213 33.7115 19.1435 31.993 18.9432 29.5274C18.6389 25.7832 19.6425 21.5605 20.1106 22.3663C20.3917 22.8502 22.8641 26.5704 23.0694 26.4486C23.1936 26.3592 22.6423 24.3278 23.0989 21.9255C23.5914 19.3342 25.0534 16.1762 25.3877 16.2349C25.7219 16.2936 26.748 18.6142 26.8915 18.5536C26.9817 18.5155 26.5601 16.8556 26.7791 14.5679C26.9364 12.9251 28.2626 10.2542 28.6165 10.4693C28.8996 10.6414 29.5117 11.9211 29.7542 12.5339C29.7477 12.3905 29.7443 11.6169 30.1847 9.55169C30.6383 7.42475 32.036 6.19831 31.9181 6.82413C31.8237 7.32479 32.1011 7.77094 32.3004 8.02985C32.3659 7.2346 32.63 5.15879 33.834 3.72752C35.3836 1.88539 37.8944 1.20699 38.3221 1.63038C38.556 1.862 38.1033 2.58763 37.9846 2.85252C32.7323 14.5814 24.4155 32.4008 22.044 50.0338C20.8706 58.7593 23.0197 62.7387 24.4155 64.0818C24.9662 64.6118 26.7716 65.9577 28.8007 65.0972C31.5485 63.9318 28.8985 54.8596 30.7366 53.5188Z" fill="#0075BC"/>
<path id="Vector 29" d="M84.1476 64.083C83.5968 64.613 81.7914 65.9588 79.7624 65.0983L70.9708 69.8107C70.9708 69.8107 76.9662 80.2292 78.349 80.2292C90.8312 80.6643 98.2352 72.0184 96.9794 72.08C96.0633 72.125 93.8276 71.555 93.5746 71.2408C97.8249 70.4628 100.518 66.2913 99.3869 66.2328C98.3683 66.1802 94.38 65.1775 94.6379 65.1341C100.358 64.1727 103.541 56.2758 101.412 57.0229C100.665 57.2851 95.9877 57.2002 97.0933 56.9284C101.023 55.9624 102.478 49.2791 101.261 49.8313C99.9715 50.5459 96.9916 50.8383 96.4168 50.2647C100.942 46.8265 101.868 39.3573 101.059 40.2078C100.632 40.5449 96.7724 41.7794 96.6057 41.631C96.5513 41.5826 99.0267 39.0388 99.4753 35.4403C99.8988 32.0432 99.4611 30.9599 98.6091 32.0706C97.915 32.9755 92.1607 35.6637 92.0622 35.4139C91.9997 35.2552 93.79 32.2402 93.9903 29.7746C94.2946 26.0304 93.842 21.7837 92.9123 22.9853C92.5761 23.4198 91.4179 25.1394 87.6378 27.4216C87.5136 27.3322 88.6144 24.9316 87.9979 21.1986C87.3565 17.3149 86.3531 15.3037 86.0189 15.3624C85.6846 15.4211 85.3649 17.2142 82.7063 20.529C82.6644 20.4251 83.1071 18.13 82.6808 15.6416C82.2175 12.9373 80.6852 9.23945 80.3528 9.44152C80.2511 9.50335 79.7881 11.5079 77.602 14.0682C77.6357 13.9085 78.3266 11.301 77.5119 8.73649C76.8033 6.50572 75.0893 4.29907 75.2072 4.92489C75.3016 5.42555 74.3616 8.7334 74.0964 9.03004C74.0964 8.07064 74.2094 6.0297 73.3984 4.34684C72.3705 2.2138 70.685 0.56144 70.4155 0.828097C70.2203 1.02132 70.6953 6.82528 69.1807 9.55283C71.2495 14.8467 82.5644 32.1983 84.9358 49.8313C86.1093 58.5568 85.5433 62.7398 84.1476 64.083Z" fill="#00406C"/>
<path id="Vector 30" d="M71.5086 53.5188C69.5129 52.0631 65.7635 54.8037 63.7515 56.2967C65.4751 62.5808 69.5739 74.8086 72.4311 76.3803C75.4754 78.0547 81.4427 77.1094 81.4427 76.7623C81.2412 76.3803 72.1268 72.5009 76.6296 73.3303C84.9784 75.0414 91.7098 73.1067 91.7098 71.2377C91.7098 70.6556 81.0861 69.0082 82.469 69.0082C88.1039 69.507 94.3319 67.1999 92.5549 66.4509C91.2793 65.9133 87.1434 65.4768 87.2364 65.0101C91.1149 64.566 96.7846 58.1897 95.7764 57.677C94.825 57.1932 90.5478 58.4408 90.7464 58.2715C95.8387 53.9299 95.4775 51.0611 95.2229 51.1254C94.6982 51.258 88.9314 53.2518 89.901 52.5609C93.6938 49.8583 95.3322 43.346 94.433 42.9283C93.5339 42.5106 87.2255 48.0881 88.0332 46.9676C90.4347 42.5193 91.0433 36.0984 90.2338 36.9488C89.8275 37.3756 84.3026 43.4003 84.1599 43.1149C84.1274 43.05 86.0176 40.1521 86.4662 36.5535C86.8897 33.1565 86.8781 28.6698 86.0261 29.7805C85.4649 30.8571 82.2257 34.2238 82.0863 33.8701C82.0238 33.7115 83.1016 31.993 83.302 29.5274C83.6063 25.7832 82.6026 21.5605 82.1345 22.3663C81.8535 22.8502 79.3811 26.5704 79.1758 26.4486C79.0516 26.3592 79.6028 24.3278 79.1463 21.9255C78.6538 19.3342 77.1917 16.1762 76.8575 16.2349C76.5232 16.2936 75.4972 18.6142 75.3537 18.5536C75.2634 18.5155 75.6851 16.8556 75.466 14.5679C75.3087 12.9251 73.9826 10.2542 73.6287 10.4693C73.3456 10.6414 72.7334 11.9211 72.491 12.5339C72.4975 12.3905 72.5009 11.6169 72.0605 9.55169C71.6069 7.42475 70.2091 6.19831 70.3271 6.82413C70.4215 7.32479 70.1441 7.77094 69.9448 8.02985C69.8792 7.2346 69.6152 5.15879 68.4112 3.72752C66.8615 1.88539 64.3508 1.20699 63.9231 1.63038C63.6891 1.862 64.1419 2.58763 64.2605 2.85252C69.5129 14.5814 77.8297 32.4008 80.2011 50.0338C81.3746 58.7593 79.2254 62.7387 77.8297 64.0818C77.2789 64.6118 75.4736 65.9577 73.4445 65.0972C70.6967 63.9318 73.3467 54.8596 71.5086 53.5188Z" fill="#0075BC"/>
<path id="Vector 26" d="M44.6896 17.5335C45.1258 18.3119 48.8176 29.8229 50.6969 35.87C50.0105 35.9999 48.6369 36.5473 48.6369 37.8447C48.6369 39.4143 50.42 39.9416 51.3342 39.9416C52.4612 39.9416 53.8294 39.1577 53.8294 37.8447C53.8294 36.4692 52.4612 36.0676 51.7019 35.87C51.7019 35.87 57.1869 18.4463 57.79 17.5335C58.3 17.5335 59.5103 18.1045 60.1382 19.8835C60.441 20.7416 60.9443 34.7796 60.9956 40.522C60.5989 42.5286 57.6982 48.0093 57.6982 48.0093C62.1368 54.0167 71.5495 65.4327 76.951 73.8277C79.2558 77.4099 80.1813 80.947 80.6673 82.5315C82.2278 87.6191 82.9141 96.0863 82.9141 101.508C82.9141 102.107 81.625 104.681 79.0515 104.793C75.8956 104.93 74.5336 103.08 74.1313 101.508C74.4125 95.8845 73.3755 89.3319 71.8962 84.7073C70.4169 80.0827 57.6356 63.5345 51.2517 55.9583C44.5719 64.4183 33.7136 76.4734 30.4482 84.9355C28.7036 89.4568 28.2635 98.5093 28.2635 101.271C28.0228 103.506 25.7962 104.793 23.4451 104.793C21.704 104.793 19.678 102.947 19.5176 101.471C19.5176 100.712 19.7113 93.2344 20.7875 86.7496C21.4697 82.6391 23.1244 78.0329 24.5525 75.1596C25.6269 72.9978 37.6926 57.3803 44.7316 48.0034C44.7316 48.0034 42.3112 43.6311 41.3841 40.5332C41.4859 33.5842 42.1746 20.7377 42.2335 20.1135C42.307 19.3333 43.7831 17.3495 44.6896 17.5335Z" fill="#00B1FF"/>
<path id="Vector 33" d="M27.5059 79.7525C28.7602 76.2089 41.145 61.0535 48.184 51.6766L51.2509 55.9583C51.9668 54.9128 54.2277 51.6766 54.2277 51.6766C58.732 57.6037 65.574 66.084 70.9271 73.7352C73.3428 77.1879 74.7495 79.1176 75.3667 80.6562C76.5472 83.5992 78.3269 95.8364 78.3991 96.4289L78.401 96.4445C78.4827 97.1145 79.1507 102.594 79.0092 104.772C75.8533 104.91 74.5329 103.08 74.1305 101.508C74.4117 95.8845 73.3748 89.3319 71.8955 84.7074C70.4161 80.0828 57.6349 63.5346 51.2509 55.9583C44.5711 64.4184 33.7128 76.4734 30.4474 84.9355C28.7028 89.4568 28.2627 98.5094 28.2627 101.271C28.022 103.506 25.7954 104.793 23.4443 104.793C23.4443 101.129 24.1881 94.7387 24.8703 90.6281C25.5525 86.5176 26.376 82.9446 27.5059 79.7525Z" fill="#0075BC"/>
</g>
</svg>
