<svg width="24" height="24" viewBox="0 0 24 24" fill="none" xmlns="http://www.w3.org/2000/svg">
<g id="logo">
<path id="Vector 32" d="M15.5205 18.3263C15.63 18.3357 16.1772 17.9257 16.3909 17.6939C14.9199 14.8828 11.9782 9.27196 12.035 11.6448C12.1055 14.5943 12.9295 16.9842 13.1318 17.2913C13.3146 17.5687 14.2558 18.459 14.6956 18.8354C14.723 18.8634 14.7879 18.9078 14.9051 18.9128C15.0222 18.9178 15.2952 18.6453 15.4195 18.5125C15.3991 18.5041 15.1574 18.3059 15.2432 18.2245C15.3668 18.1072 15.4049 18.3163 15.5205 18.3263Z" fill="#005595"/>
<path id="Vector 31" d="M8.5225 18.3263C8.41302 18.3357 7.86581 17.9257 7.65215 17.6939C9.12318 14.8828 12.0648 9.27196 12.0081 11.6448C11.9376 14.5943 11.1136 16.9842 10.9112 17.2913C10.7284 17.5687 9.7872 18.459 9.3474 18.8354C9.32005 18.8634 9.25514 18.9078 9.13798 18.9128C9.02083 18.9178 8.74787 18.6453 8.62352 18.5125C8.6439 18.5041 8.88568 18.3059 8.79985 18.2245C8.67624 18.1072 8.63819 18.3163 8.5225 18.3263Z" fill="#005595"/>
<path id="Vector 28" d="M5.66264 14.1764C5.76832 14.2786 6.11475 14.5383 6.5041 14.3723L8.19109 15.2813C8.19109 15.2813 7.04066 17.2912 6.7753 17.2912C4.38012 17.3751 2.9594 15.7072 3.20036 15.7191C3.37615 15.7278 3.80516 15.6178 3.85371 15.5572C3.03812 15.4071 2.5214 14.6024 2.73839 14.5911C2.93385 14.581 3.69916 14.3875 3.64967 14.3792C2.55196 14.1937 1.94136 12.6703 2.34979 12.8144C2.49312 12.865 3.39067 12.8486 3.17852 12.7962C2.42439 12.6098 2.14528 11.3205 2.3787 11.4271C2.62622 11.5649 3.19803 11.6213 3.30832 11.5107C2.44002 10.8474 2.26229 9.40649 2.41762 9.57056C2.49945 9.6356 3.24009 9.87374 3.27208 9.84511C3.28251 9.83578 2.80751 9.34505 2.72143 8.65085C2.64017 7.99552 2.72416 7.78652 2.88765 8.0008C3.02084 8.17537 4.12501 8.69395 4.14391 8.64575C4.1559 8.61515 3.81238 8.0335 3.77393 7.55786C3.71554 6.83557 3.8024 6.01632 3.98079 6.24812C4.0453 6.33195 4.26755 6.66369 4.99289 7.10393C5.01673 7.08669 4.80551 6.62359 4.9238 5.90346C5.04687 5.15424 5.23942 4.76626 5.30355 4.77757C5.36769 4.78889 5.42904 5.1348 5.93919 5.77426C5.94724 5.75424 5.86229 5.31148 5.94409 4.83143C6.03299 4.30974 6.32701 3.59638 6.3908 3.63536C6.41032 3.64729 6.49915 4.03399 6.91864 4.52791C6.91219 4.49709 6.77961 3.99408 6.93593 3.49935C7.07192 3.06901 7.40081 2.64331 7.37817 2.76404C7.36006 2.86063 7.54043 3.49875 7.59133 3.55598C7.59133 3.3709 7.56964 2.97717 7.72526 2.65253C7.92251 2.24104 8.24593 1.92228 8.29764 1.97372C8.33511 2.01099 8.24395 3.13065 8.53458 3.65683C8.13762 4.67809 6.11768 7.74915 5.66264 11.1508C5.43746 12.834 5.39481 13.9173 5.66264 14.1764Z" fill="#005595"/>
<path id="Vector 27" d="M8.08811 12.1389C8.47106 11.858 9.19053 12.3867 9.57661 12.6748C9.24587 13.887 8.45935 16.2459 7.91108 16.5491C7.32693 16.8722 6.18187 16.6898 6.18187 16.6228C6.22055 16.5491 7.96948 15.8007 7.10546 15.9607C5.50341 16.2908 4.21174 15.9176 4.21174 15.5571C4.21174 15.4448 6.25029 15.127 5.98494 15.127C4.90367 15.2232 3.7086 14.7781 4.04959 14.6336C4.29435 14.5299 5.08798 14.4457 5.07014 14.3557C4.3259 14.27 3.23794 13.0399 3.43141 12.941C3.61398 12.8477 4.43471 13.0884 4.3966 13.0557C3.41945 12.2182 3.48876 11.6647 3.53762 11.6771C3.63831 11.7027 4.74489 12.0874 4.55883 11.9541C3.83104 11.4327 3.51664 10.1764 3.68919 10.0958C3.86173 10.0152 5.07222 11.0912 4.91724 10.8751C4.45641 10.0169 4.33964 8.77824 4.49498 8.9423C4.57293 9.02463 5.6331 10.1869 5.66048 10.1318C5.66671 10.1193 5.304 9.56025 5.21792 8.86605C5.13666 8.21072 5.13888 7.34517 5.30237 7.55945C5.41006 7.76713 6.03162 8.41662 6.05837 8.34837C6.07037 8.31777 5.86355 7.98625 5.8251 7.51061C5.76671 6.78832 5.9593 5.97369 6.04912 6.12915C6.10305 6.22249 6.57748 6.94017 6.61687 6.91667C6.6407 6.89943 6.53493 6.50754 6.62253 6.04411C6.71704 5.54421 6.99759 4.935 7.06173 4.94632C7.12586 4.95764 7.32275 5.40532 7.35028 5.39364C7.3676 5.38628 7.2867 5.06606 7.32873 4.62474C7.35891 4.30783 7.61338 3.79256 7.68129 3.83406C7.73561 3.86726 7.85308 4.11414 7.89961 4.23235C7.89835 4.20468 7.8977 4.05545 7.98221 3.65705C8.06925 3.24673 8.33746 3.01014 8.31482 3.13087C8.29671 3.22745 8.34995 3.31352 8.38819 3.36346C8.40077 3.21005 8.45144 2.8096 8.68247 2.53349C8.97982 2.17812 9.4616 2.04725 9.54367 2.12892C9.58857 2.17361 9.50169 2.31359 9.47892 2.36469C8.47107 4.62734 6.87517 8.06494 6.42012 11.4666C6.19495 13.1498 6.60734 13.9175 6.87517 14.1766C6.98085 14.2788 7.32728 14.5385 7.71663 14.3725C8.2439 14.1477 7.7354 12.3975 8.08811 12.1389Z" fill="#1F9EFE"/>
<path id="Vector 29" d="M18.3374 14.1769C18.2317 14.2791 17.8852 14.5387 17.4959 14.3727L15.8089 15.2818C15.8089 15.2818 16.9593 17.2917 17.2247 17.2917C19.6199 17.3756 21.0406 15.7077 20.7996 15.7196C20.6238 15.7283 20.1948 15.6183 20.1463 15.5577C20.9619 15.4076 21.4786 14.6029 21.2616 14.5916C21.0661 14.5815 20.3008 14.388 20.3503 14.3797C21.448 14.1942 22.0586 12.6708 21.6502 12.8149C21.5069 12.8655 20.6093 12.8491 20.8215 12.7967C21.5756 12.6103 21.8547 11.321 21.6213 11.4275C21.3738 11.5654 20.802 11.6218 20.6917 11.5112C21.56 10.8479 21.7377 9.40698 21.5824 9.57104C21.5005 9.63609 20.7599 9.87423 20.7279 9.8456C20.7175 9.83627 21.1925 9.34554 21.2786 8.65133C21.3598 7.996 21.2758 7.78701 21.1123 8.00129C20.9791 8.17585 19.875 8.69444 19.8561 8.64624C19.8441 8.61564 20.1876 8.03399 20.2261 7.55835C20.2845 6.83606 20.1976 6.0168 20.0192 6.2486C19.9547 6.33243 19.7324 6.66417 19.0071 7.10442C18.9833 7.08718 19.1945 6.62407 19.0762 5.90394C18.9531 5.15472 18.7606 4.76674 18.6964 4.77806C18.6323 4.78938 18.571 5.13529 18.0608 5.77475C18.0528 5.75473 18.1377 5.31197 18.0559 4.83192C17.967 4.31022 17.673 3.59686 17.6092 3.63585C17.5897 3.64777 17.5008 4.03448 17.0814 4.5284C17.0878 4.49758 17.2204 3.99457 17.0641 3.49984C16.9281 3.06949 16.5992 2.6438 16.6218 2.76453C16.6399 2.86111 16.4596 3.49924 16.4087 3.55647C16.4087 3.37139 16.4303 2.97766 16.2747 2.65302C16.0775 2.24153 15.7541 1.92277 15.7024 1.97421C15.6649 2.01148 15.756 3.13114 15.4654 3.65732C15.8624 4.67858 18.0336 8.02592 18.4886 11.4275C18.7138 13.1108 18.6052 13.9178 18.3374 14.1769Z" fill="#005595"/>
<path id="Vector 30" d="M15.9119 12.1389C15.5289 11.858 14.8095 12.3867 14.4234 12.6748C14.7541 13.887 15.5406 16.2459 16.0889 16.5491C16.6731 16.8722 17.8181 16.6898 17.8181 16.6228C17.7794 16.5491 16.0305 15.8007 16.8945 15.9607C18.4966 16.2908 19.7882 15.9176 19.7882 15.5571C19.7882 15.4448 17.7497 15.127 18.015 15.127C19.0963 15.2232 20.2914 14.7781 19.9504 14.6336C19.7056 14.5299 18.912 14.4457 18.9298 14.3557C19.6741 14.27 20.762 13.0399 20.5686 12.941C20.386 12.8477 19.5653 13.0884 19.6034 13.0557C20.5805 12.2182 20.5112 11.6647 20.4624 11.6771C20.3617 11.7027 19.2551 12.0874 19.4412 11.9541C20.1689 11.4327 20.4833 10.1764 20.3108 10.0958C20.1383 10.0152 18.9278 11.0912 19.0827 10.8751C19.5436 10.0169 19.6603 8.77824 19.505 8.9423C19.4271 9.02463 18.3669 10.1869 18.3395 10.1318C18.3333 10.1193 18.696 9.56025 18.7821 8.86605C18.8633 8.21072 18.8611 7.34517 18.6976 7.55945C18.5899 7.76713 17.9684 8.41662 17.9416 8.34837C17.9296 8.31777 18.1364 7.98625 18.1749 7.51061C18.2333 6.78832 18.0407 5.97369 17.9509 6.12915C17.8969 6.22249 17.4225 6.94017 17.3831 6.91667C17.3593 6.89943 17.4651 6.50754 17.3775 6.04411C17.2829 5.54421 17.0024 4.935 16.9383 4.94632C16.8741 4.95764 16.6772 5.40532 16.6497 5.39364C16.6324 5.38628 16.7133 5.06606 16.6713 4.62474C16.6411 4.30783 16.3866 3.79256 16.3187 3.83406C16.2644 3.86726 16.1469 4.11414 16.1004 4.23235C16.1016 4.20468 16.1023 4.05545 16.0178 3.65705C15.9307 3.24673 15.6625 3.01014 15.6852 3.13087C15.7033 3.22745 15.65 3.31352 15.6118 3.36346C15.5992 3.21005 15.5485 2.8096 15.3175 2.53349C15.0202 2.17812 14.5384 2.04725 14.4563 2.12892C14.4114 2.17361 14.4983 2.31359 14.5211 2.36469C15.5289 4.62734 17.1248 8.06494 17.5799 11.4666C17.805 13.1498 17.3926 13.9175 17.1248 14.1766C17.0191 14.2788 16.6727 14.5385 16.2834 14.3725C15.7561 14.1477 16.2646 12.3975 15.9119 12.1389Z" fill="#1F9EFE"/>
<path id="Vector 26" d="M10.7657 5.19665C10.8494 5.34681 11.5578 7.56743 11.9184 8.73399C11.7867 8.75906 11.5231 8.86466 11.5231 9.11494C11.5231 9.41773 11.8653 9.51946 12.0407 9.51946C12.2569 9.51946 12.5195 9.36823 12.5195 9.11494C12.5195 8.8496 12.2569 8.77213 12.1113 8.73399C12.1113 8.73399 13.1638 5.37274 13.2795 5.19665C13.3773 5.19665 13.6096 5.3068 13.7301 5.65C13.7882 5.81554 13.8847 8.52365 13.8946 9.63142C13.8185 10.0185 13.2619 11.0758 13.2619 11.0758C14.1136 12.2347 15.9198 14.437 16.9562 16.0565C17.3985 16.7476 17.5761 17.4299 17.6694 17.7356C17.9688 18.7171 18.1005 20.3505 18.1005 21.3965C18.1005 21.512 17.8531 22.0084 17.3593 22.0301C16.7537 22.0566 16.4924 21.6997 16.4152 21.3965C16.4691 20.3116 16.2702 19.0475 15.9863 18.1553C15.7024 17.2632 13.2499 14.0708 12.0249 12.6093C10.7431 14.2413 8.6595 16.5669 8.03292 18.1994C7.69814 19.0716 7.6137 20.8179 7.6137 21.3508C7.56751 21.7819 7.14025 22.0301 6.68911 22.0301C6.35502 22.0301 5.96625 21.6741 5.93546 21.3893C5.93546 21.2429 5.97263 19.8003 6.17915 18.5493C6.31005 17.7563 6.62757 16.8678 6.9016 16.3135C7.10777 15.8964 9.42304 12.8836 10.7737 11.0747C10.7737 11.0747 10.3093 10.2312 10.1314 9.63359C10.1509 8.29303 10.2831 5.81479 10.2944 5.69437C10.3085 5.54385 10.5917 5.16116 10.7657 5.19665Z" fill="#1F9EFE"/>
<path id="Vector 33" d="M7.46823 17.1998C7.70893 16.5162 10.0854 13.5925 11.4361 11.7836L12.0246 12.6096C12.162 12.4079 12.5958 11.7836 12.5958 11.7836C13.4601 12.927 14.773 14.5629 15.8002 16.039C16.2638 16.705 16.5337 17.0773 16.6521 17.3741C16.8787 17.9419 17.2202 20.3026 17.234 20.4169L17.2344 20.4199C17.2501 20.5493 17.3782 21.6063 17.3511 22.0263C16.7455 22.0529 16.4921 21.7 16.4149 21.3967C16.4689 20.3119 16.2699 19.0478 15.986 18.1556C15.7022 17.2635 13.2496 14.0711 12.0246 12.6096C10.7428 14.2416 8.65926 16.5672 8.03268 18.1996C7.6979 19.0719 7.61346 20.8182 7.61346 21.3511C7.56727 21.7822 7.14001 22.0304 6.68887 22.0304C6.68887 21.3236 6.8316 20.0908 6.9625 19.2978C7.09341 18.5048 7.25142 17.8156 7.46823 17.1998Z" fill="#1F9EFE"/>
</g>
</svg>
