<svg width="101" height="100" viewBox="0 0 101 100" fill="none" xmlns="http://www.w3.org/2000/svg">
<g id="UI">
<mask id="mask0_5590_93" style="mask-type:alpha" maskUnits="userSpaceOnUse" x="1" y="0" width="100" height="100">
<circle id="Ellipse 1130" cx="51" cy="50" r="50" fill="#D9D9D9"/>
</mask>
<g mask="url(#mask0_5590_93)">
<path id="Rectangle 267" d="M-30.9519 99.1744C-39.0289 104.199 -43.0673 106.711 -43.6167 108.968C-44.091 110.916 -43.5042 112.97 -42.0725 114.374C-40.4139 116 -35.6578 116 -26.1457 116H134.143C143.656 116 148.412 116 150.071 114.374C151.503 112.97 152.09 110.916 151.615 108.968C151.066 106.711 147.027 104.199 138.949 99.1742L91.0377 69.3727C90.2166 68.862 89.8061 68.6067 89.3659 68.426C88.9752 68.2656 88.5678 68.1492 88.1513 68.0791C87.6821 68 87.1987 68 86.2317 68H21.7618C20.7948 68 20.3113 68 19.8421 68.0791C19.4256 68.1493 19.0181 68.2656 18.6274 68.426C18.1872 68.6067 17.7767 68.8621 16.9555 69.3729L-30.9519 99.1744Z" fill="url(#paint0_linear_5590_93)" fill-opacity="0.21"/>
</g>
</g>
<defs>
<linearGradient id="paint0_linear_5590_93" x1="54" y1="115.586" x2="54.4113" y2="68" gradientUnits="userSpaceOnUse">
<stop stop-color="#ED7753"/>
<stop offset="1" stop-color="#ED7753" stop-opacity="0"/>
</linearGradient>
</defs>
</svg>
