<svg width="26" height="26" viewBox="0 0 26 26" fill="none" xmlns="http://www.w3.org/2000/svg">
<g id="Terrorists" clip-path="url(#clip0_1640_46872)">
<circle id="Ellipse 50" cx="13" cy="13" r="13" fill="#21232F"/>
<circle id="Ellipse 49" cx="13" cy="13" r="9.5" fill="url(#paint0_radial_1640_46872)" stroke="#FFC728"/>
<g id="&#208;&#151;&#208;&#189;&#208;&#176;&#208;&#186;">
<path id="Star 4" d="M12.9097 6.75343L13.7763 9.38686H16.6177L14.2842 10.985L15.1864 13.5438L12.9097 11.9602L10.6308 13.5438L11.5024 10.985L9.18774 9.38686H11.9901L12.9097 6.75343Z" fill="#FFC728"/>
<path id="Vector 25" d="M18.58 12.1387C18.7352 11.9942 19.2494 11.5011 19.4673 11.2271C19.4994 11.6443 19.509 12.1799 19.206 12.7269C18.8785 13.3181 18.0553 13.9989 17.918 14.1293C17.7807 14.2597 16.7125 15.1402 16.1216 15.505C16.0347 15.457 15.9462 15.3709 15.773 15.3516C15.5559 15.3273 15.3104 15.5917 15.2383 15.747C15.2071 15.8879 15.2691 16.1229 15.3339 16.1796C15.4469 16.2784 15.5881 16.2468 15.6239 16.3286C15.672 16.4384 15.3987 16.5862 15.2205 16.5085C15.0358 16.4599 14.9015 16.1427 14.6923 16.1601C14.5276 16.1739 13.8719 16.9196 13.5041 17.2274C13.1291 17.5413 12.3234 18.1128 12.201 18.1997L12.1945 18.2043C12.1075 18.2661 11.3839 18.7168 11.298 18.767C11.3109 18.9258 11.2467 19.2057 11.1916 19.2478C11.1458 19.1922 11.0714 19.1222 11.0059 19.0573C10.9404 18.9925 10.6958 18.851 10.6506 18.8214C10.577 18.7731 10.5245 18.7147 10.5002 18.6599C10.4726 18.5978 10.4515 18.5147 10.445 18.4308C10.409 18.3741 10.3294 18.2435 10.3032 18.2043C10.2743 18.1609 10.2048 18.0016 10.18 17.9257C10.3194 18.0112 10.4893 17.9726 10.6051 17.934C10.7209 17.8954 11.2001 17.4246 11.3597 17.3129C11.4562 17.2453 12.2415 16.6291 12.3368 16.5469C12.4462 16.4524 12.6888 16.2676 12.7949 16.1904C12.8799 16.1286 13.6795 15.5965 14.0828 15.3408L14.0796 15.3366C13.9755 15.2032 13.7647 14.9333 13.7724 14.7804C13.7801 14.626 13.8438 14.4443 13.9601 14.4382C14.0054 14.4358 14.0732 14.4644 14.0732 14.4644V14.8219C14.1947 14.9405 14.5011 15.0537 14.5011 15.0537C15.0211 14.6226 15.6885 14.1363 16.3899 13.6374C17.4439 12.8877 18.3021 12.3975 18.58 12.1387Z" fill="#FFC728"/>
<path id="Vector 24" d="M7.23199 12.1387C7.07686 11.9942 6.56257 11.5011 6.34472 11.2271C6.31264 11.6443 6.30302 12.1799 6.60604 12.7269C6.9335 13.3181 7.75675 13.9989 7.89401 14.1293C8.03127 14.2597 9.09956 15.1402 9.69037 15.505C9.7773 15.457 9.86577 15.3709 10.039 15.3516C10.2561 15.3273 10.5016 15.5917 10.5737 15.747C10.6049 15.8879 10.5429 16.1229 10.4781 16.1796C10.3651 16.2784 10.2239 16.2468 10.1881 16.3286C10.14 16.4384 10.4133 16.5862 10.5915 16.5085C10.7762 16.4599 10.9105 16.1427 11.1197 16.1601C11.2844 16.1739 11.9401 16.9196 12.3079 17.2274C12.6829 17.5413 13.4886 18.1128 13.611 18.1997L13.6175 18.2043C13.7045 18.2661 14.4282 18.7168 14.514 18.767C14.5011 18.9258 14.5653 19.2057 14.6204 19.2478C14.6662 19.1922 14.7406 19.1222 14.8061 19.0573C14.8716 18.9925 15.1162 18.851 15.1614 18.8214C15.235 18.7731 15.2875 18.7147 15.3118 18.6599C15.3394 18.5978 15.3605 18.5147 15.367 18.4308C15.403 18.3741 15.4827 18.2435 15.5088 18.2043C15.5377 18.1609 15.6072 18.0016 15.632 17.9257C15.4926 18.0112 15.3228 17.9726 15.207 17.934C15.0911 17.8954 14.6119 17.4246 14.4523 17.3129C14.3558 17.2453 13.5705 16.6291 13.4752 16.5469C13.3658 16.4524 13.1232 16.2676 13.0171 16.1904C12.9321 16.1286 12.1325 15.5965 11.7292 15.3408L11.7324 15.3366C11.8365 15.2032 12.0473 14.9333 12.0396 14.7804C12.0319 14.626 11.9682 14.4443 11.8519 14.4382C11.8066 14.4358 11.7388 14.4644 11.7388 14.4644V14.8219C11.6173 14.9405 11.311 15.0537 11.311 15.0537C10.7909 14.6226 10.1235 14.1363 9.4221 13.6374C8.36808 12.8877 7.50991 12.3975 7.23199 12.1387Z" fill="#FFC728"/>
</g>
</g>
<defs>
<radialGradient id="paint0_radial_1640_46872" cx="0" cy="0" r="1" gradientUnits="userSpaceOnUse" gradientTransform="translate(13 13) rotate(90) scale(9)">
<stop stop-color="#31363A"/>
<stop offset="1" stop-color="#202427"/>
</radialGradient>
<clipPath id="clip0_1640_46872">
<rect width="26" height="26" fill="white"/>
</clipPath>
</defs>
</svg>
