<svg xmlns="http://www.w3.org/2000/svg" width="100" height="100" viewBox="0 0 100 100" fill="none">
<circle cx="49.9997" cy="50" r="49" transform="rotate(-45 49.9997 50)" fill="url(#paint0_radial_5756_14974)" stroke="#FFC728" stroke-width="2"/>
<path d="M25.1058 25.8123L38.8552 32.7531L50.017 21.5913L47.1287 37.036L60.7246 43.5438L45.56 46.2665L42.8285 61.4399L36.2005 47.9642L20.8295 50.7787L31.8382 39.77L25.1058 25.8123Z" fill="#FFC728"/>
<path d="M68.5352 24.6925C68.5771 23.5155 68.6604 19.5582 68.4396 17.6258C70.2047 19.1389 72.3465 21.2051 73.3052 24.5445C74.3412 28.1533 73.7816 34.0618 73.7547 35.1133C73.7277 36.1647 72.9898 43.8201 72.1019 47.574C71.572 47.7271 70.8861 47.7364 70.1296 48.3411C69.1816 49.0988 69.2558 51.1016 69.5826 51.9948C70.0135 52.6713 71.1801 53.3505 71.6575 53.3186C72.4897 53.2632 72.9201 52.584 73.3824 52.7649C74.0025 53.0076 73.5096 54.6616 72.504 55.0562C71.5875 55.5909 69.8139 54.8725 69.0607 55.7627C68.4675 56.4637 68.8211 61.969 68.5856 64.6229C68.3454 67.3291 67.4258 72.739 67.286 73.5615L67.2786 73.6052C67.1793 74.1898 66.1074 78.8032 65.9674 79.3378C66.6421 79.9106 67.489 81.2624 67.4381 81.6443C67.0401 81.6058 66.4725 81.623 65.9605 81.6255C65.4484 81.6281 63.9319 82.0332 63.6376 82.0943C63.1587 82.1938 62.7235 82.1706 62.4124 82.0509C62.06 81.9154 61.6508 81.6717 61.2955 81.3678C60.9318 81.2865 60.1056 81.0863 59.8488 81.0349C59.5649 80.9781 58.6661 80.6251 58.2703 80.4245C59.154 80.213 59.6694 79.3938 59.9727 78.7872C60.276 78.1806 60.3093 74.4487 60.4975 73.3826C60.6112 72.7381 61.2754 67.2326 61.3266 66.5354C61.3853 65.7342 61.6122 64.0554 61.726 63.3351C61.8169 62.7589 62.8676 57.5272 63.4478 54.9382L63.4188 54.9346C62.4856 54.8197 60.5972 54.587 60.0269 53.9566C59.4507 53.3197 58.987 52.3555 59.4197 51.8748C59.5883 51.6875 59.9673 51.5332 59.9673 51.5332L61.3714 52.9374C62.3148 52.9266 63.9629 52.1675 63.9629 52.1675C64.3123 48.4311 65.0237 43.8992 65.8193 39.1837C67.0147 32.0979 68.4601 26.801 68.5352 24.6925Z" fill="#FFC728"/>
<path d="M23.9552 69.272C22.7782 69.3139 18.8209 69.3972 16.8885 69.1764C18.4016 70.9415 20.4677 73.0833 23.8072 74.042C27.416 75.078 33.3245 74.5185 34.376 74.4915C35.4274 74.4645 43.0828 73.7266 46.8367 72.8387C46.9898 72.3088 46.9991 71.623 47.6037 70.8664C48.3615 69.9184 50.3643 69.9926 51.2575 70.3194C51.934 70.7504 52.6132 71.917 52.5813 72.3943C52.5259 73.2265 51.8467 73.657 52.0276 74.1192C52.2703 74.7393 53.9243 74.2465 54.3189 73.2408C54.8536 72.3243 54.1352 70.5507 55.0254 69.7975C55.7264 69.2044 61.2317 69.558 63.8856 69.3224C66.5918 69.0822 72.0017 68.1626 72.8242 68.0228L72.8679 68.0154C73.4525 67.9161 78.0658 66.8442 78.6005 66.7042C79.1733 67.3789 80.5251 68.2259 80.907 68.1749C80.8685 67.7769 80.8857 67.2093 80.8882 66.6973C80.8908 66.1852 81.2959 64.6687 81.357 64.3745C81.4565 63.8955 81.4333 63.4603 81.3136 63.1492C81.1781 62.7968 80.9344 62.3876 80.6305 62.0324C80.5492 61.6686 80.349 60.8424 80.2976 60.5857C80.2408 60.3017 79.8878 59.4029 79.6872 59.0072C79.4757 59.8909 78.6565 60.4062 78.0499 60.7095C77.4433 61.0128 73.7114 61.0461 72.6453 61.2343C72.0008 61.348 66.4953 62.0123 65.7981 62.0634C64.9969 62.1222 63.3181 62.349 62.5978 62.4628C62.0216 62.5538 56.7898 63.6044 54.2009 64.1846L54.1973 64.1556C54.0823 63.2224 53.8497 61.334 53.2193 60.7637C52.5824 60.1875 51.6182 59.7238 51.1375 60.1565C50.9502 60.3251 50.7959 60.7041 50.7959 60.7041L52.2001 62.1083C52.1893 63.0516 51.4302 64.6997 51.4302 64.6997C47.6938 65.0491 43.1619 65.7606 38.4464 66.5561C31.3606 67.7515 26.0637 69.197 23.9552 69.272Z" fill="#FFC728"/>
<defs>
<radialGradient id="paint0_radial_5756_14974" cx="0" cy="0" r="1" gradientUnits="userSpaceOnUse" gradientTransform="translate(49.9997 50) rotate(90) scale(50)">
<stop stop-color="#31363A"/>
<stop offset="1" stop-color="#202427"/>
</radialGradient>
</defs>
</svg>
