<svg width="58" height="58" viewBox="0 0 58 58" fill="none" xmlns="http://www.w3.org/2000/svg">
<circle cx="29" cy="28.9999" r="26.6" fill="url(#paint0_radial_5512_8594)" stroke="#FFC728"/>
<path d="M28.7381 10.8853L31.2512 18.5222H39.4911L32.7242 23.157L35.3405 30.5774L28.7381 25.985L22.1293 30.5774L24.6568 23.157L17.9443 18.5222H26.0712L28.7381 10.8853Z" fill="#FFC728"/>
<path d="M45.1826 26.5025C45.6325 26.0836 47.124 24.6536 47.7557 23.8589C47.8487 25.0689 47.8766 26.6221 46.9979 28.2086C46.0483 29.923 43.6608 31.8974 43.2628 32.2755C42.8647 32.6537 39.7667 35.207 38.0533 36.2649C37.8012 36.1257 37.5447 35.876 37.0422 35.82C36.4126 35.7498 35.7008 36.5164 35.4917 36.9667C35.401 37.3755 35.581 38.0568 35.7689 38.2212C36.0965 38.5079 36.5061 38.4161 36.6099 38.6535C36.7493 38.9719 35.9568 39.4006 35.44 39.175C34.9044 39.0341 34.5149 38.1143 33.9083 38.1648C33.4306 38.2046 31.529 40.3672 30.4625 41.2599C29.375 42.17 27.039 43.8273 26.6836 44.0794L26.6646 44.0929C26.4122 44.272 24.3137 45.5792 24.0647 45.7249C24.1023 46.1853 23.9159 46.9969 23.7562 47.1191C23.6235 46.958 23.4076 46.7548 23.2177 46.5667C23.0278 46.3787 22.3185 45.9684 22.1873 45.8824C21.9738 45.7423 21.8217 45.5731 21.7511 45.4141C21.671 45.234 21.6099 44.993 21.591 44.7497C21.4867 44.5854 21.2557 44.2066 21.1799 44.0929C21.096 43.9671 20.8946 43.505 20.8225 43.2849C21.2268 43.5331 21.7194 43.4209 22.0552 43.3089C22.3911 43.197 23.7809 41.8318 24.2438 41.5077C24.5237 41.3118 26.801 39.5248 27.0772 39.2864C27.3946 39.0124 28.098 38.4765 28.4059 38.2526C28.6522 38.0734 30.9711 36.5302 32.1408 35.7887L32.1314 35.7767C31.8294 35.3898 31.2183 34.6069 31.2404 34.1637C31.2628 33.716 31.4476 33.1889 31.7847 33.1712C31.9161 33.1643 32.1129 33.2472 32.1129 33.2472V34.2838C32.4651 34.628 33.3536 34.9562 33.3536 34.9562C34.8617 33.706 36.7971 32.2958 38.8313 30.8489C41.888 28.6747 44.3767 27.2531 45.1826 26.5025Z" fill="#FFC728"/>
<path d="M12.273 26.5025C11.8231 26.0836 10.3316 24.6536 9.69985 23.8589C9.60683 25.0689 9.57892 26.6221 10.4577 28.2086C11.4073 29.923 13.7947 31.8974 14.1928 32.2755C14.5909 32.6537 17.6889 35.207 19.4022 36.2649C19.6543 36.1257 19.9109 35.876 20.4133 35.82C21.043 35.7498 21.7548 36.5164 21.9639 36.9667C22.0545 37.3755 21.8746 38.0568 21.6867 38.2212C21.359 38.5079 20.9495 38.4161 20.8456 38.6535C20.7063 38.9719 21.4987 39.4006 22.0156 39.175C22.5512 39.0341 22.9407 38.1143 23.5473 38.1648C24.025 38.2046 25.9265 40.3672 26.9931 41.2599C28.0805 42.17 30.4165 43.8273 30.772 44.0794L30.7909 44.0929C31.0434 44.272 33.1418 45.5792 33.3909 45.7249C33.3533 46.1853 33.5396 46.9969 33.6994 47.1191C33.8321 46.958 34.0479 46.7548 34.2379 46.5667C34.4278 46.3787 35.1371 45.9684 35.2683 45.8824C35.4818 45.7423 35.6338 45.5731 35.7045 45.4141C35.7846 45.234 35.8456 44.993 35.8646 44.7497C35.9689 44.5854 36.1999 44.2066 36.2757 44.0929C36.3596 43.9671 36.561 43.505 36.633 43.2849C36.2288 43.5331 35.7362 43.4209 35.4003 43.3089C35.0645 43.197 33.6747 41.8318 33.2118 41.5077C32.9319 41.3118 30.6546 39.5248 30.3783 39.2864C30.0609 39.0124 29.3575 38.4765 29.0497 38.2526C28.8034 38.0734 26.4845 36.5302 25.3148 35.7887L25.3241 35.7767C25.6261 35.3898 26.2373 34.6069 26.2151 34.1637C26.1927 33.716 26.008 33.1889 25.6708 33.1712C25.5394 33.1643 25.3426 33.2472 25.3426 33.2472V34.2838C24.9904 34.628 24.1019 34.9562 24.1019 34.9562C22.5938 33.706 20.6584 32.2958 18.6243 30.8489C15.5676 28.6747 13.0789 27.2531 12.273 26.5025Z" fill="#FFC728"/>
<defs>
<radialGradient id="paint0_radial_5512_8594" cx="0" cy="0" r="1" gradientUnits="userSpaceOnUse" gradientTransform="translate(29 28.9999) rotate(90) scale(26.1)">
<stop stop-color="#31363A"/>
<stop offset="1" stop-color="#202427"/>
</radialGradient>
</defs>
</svg>
