<svg width="112" height="106" viewBox="0 0 112 106" fill="none" xmlns="http://www.w3.org/2000/svg">
<g id="Terrorists">
<path id="Star 4" d="M55.8133 0.799876L63.1151 22.871H87.0559L67.3948 36.2656L74.9965 57.7111L55.8133 44.4387L36.6114 57.7111L43.9551 36.2656L24.4521 22.871H48.0645L55.8133 0.799876Z" fill="#FFC728"/>
<path id="Vector 25" d="M103.59 45.9322C104.897 44.7214 109.23 40.5888 111.066 38.292C111.336 41.7889 111.417 46.2778 108.864 50.8627C106.105 55.8175 99.1682 61.5235 98.0116 62.6164C96.855 63.7093 87.8538 71.0885 82.8757 74.1458C82.1432 73.7437 81.3977 73.0221 79.9379 72.8601C78.1086 72.6571 76.0403 74.8727 75.4328 76.1741C75.1695 77.3555 75.6922 79.3245 76.2383 79.7998C77.1903 80.6283 78.3802 80.3631 78.6819 81.0491C79.0867 81.9694 76.7843 83.2081 75.2827 82.5563C73.7264 82.149 72.5947 79.4907 70.8322 79.6368C69.4443 79.7519 63.9194 86.0019 60.8206 88.5816C57.6609 91.2122 50.8731 96.002 49.8408 96.7304L49.786 96.7691C49.0526 97.2868 42.9555 101.065 42.2319 101.486C42.3411 102.816 41.7997 105.162 41.3356 105.515C40.95 105.049 40.3229 104.462 39.771 103.919C39.2192 103.375 37.1583 102.19 36.7772 101.941C36.1568 101.536 35.715 101.047 35.5097 100.588C35.2771 100.067 35.0996 99.3706 35.0445 98.6675C34.7416 98.1927 34.0703 97.0979 33.85 96.7691C33.6064 96.4056 33.0212 95.0703 32.8118 94.4341C33.9863 95.1512 35.4177 94.827 36.3934 94.5035C37.3692 94.18 41.4072 90.2345 42.7523 89.298C43.5655 88.7318 50.1822 83.5674 50.9848 82.8782C51.907 82.0863 53.9507 80.5374 54.8452 79.8904C55.5607 79.3727 62.2982 74.9126 65.6969 72.7697L65.6697 72.735C64.7922 71.6169 63.0165 69.3542 63.0809 68.0735C63.146 66.7794 63.6828 65.2561 64.6624 65.2049C65.0441 65.185 65.6159 65.4247 65.6159 65.4247V68.4205C66.6392 69.4152 69.2208 70.3637 69.2208 70.3637C73.6025 66.7506 79.2258 62.6751 85.136 58.4935C94.0171 52.21 101.248 48.1014 103.59 45.9322Z" fill="#FFC728"/>
<path id="Vector 24" d="M7.97184 45.9322C6.66467 44.7214 2.3313 40.5888 0.495721 38.292C0.225447 41.7889 0.144363 46.2778 2.69759 50.8627C5.45673 55.8175 12.3934 61.5235 13.5499 62.6164C14.7065 63.7093 23.7078 71.0885 28.6859 74.1458C29.4184 73.7437 30.1638 73.0221 31.6236 72.8601C33.453 72.6571 35.5212 74.8727 36.1287 76.1741C36.392 77.3555 35.8693 79.3245 35.3232 79.7998C34.3713 80.6283 33.1813 80.3631 32.8796 81.0491C32.4748 81.9694 34.7772 83.2081 36.2789 82.5563C37.8352 82.149 38.9668 79.4907 40.7293 79.6368C42.1172 79.7519 47.6421 86.0019 50.7409 88.5816C53.9007 91.2122 60.6885 96.002 61.7207 96.7304L61.7755 96.7691C62.509 97.2868 68.6061 101.065 69.3296 101.486C69.2204 102.816 69.7618 105.162 70.226 105.515C70.6115 105.049 71.2387 104.462 71.7905 103.919C72.3424 103.375 74.4032 102.19 74.7843 101.941C75.4047 101.536 75.8465 101.047 76.0519 100.588C76.2844 100.067 76.4619 99.3706 76.517 98.6675C76.8199 98.1927 77.4912 97.0979 77.7115 96.7691C77.9551 96.4056 78.5404 95.0703 78.7497 94.4341C77.5752 95.1512 76.1439 94.827 75.1681 94.5035C74.1923 94.18 70.1543 90.2345 68.8092 89.298C67.9961 88.7318 61.3793 83.5674 60.5768 82.8782C59.6546 82.0863 57.6108 80.5374 56.7164 79.8904C56.0008 79.3727 49.2633 74.9126 45.8646 72.7697L45.8918 72.735C46.7693 71.6169 48.545 69.3542 48.4806 68.0735C48.4156 66.7794 47.8787 65.2561 46.8991 65.2049C46.5174 65.185 45.9456 65.4247 45.9456 65.4247V68.4205C44.9223 69.4152 42.3407 70.3637 42.3407 70.3637C37.959 66.7506 32.3357 62.6751 26.4255 58.4935C17.5444 52.21 10.3136 48.1014 7.97184 45.9322Z" fill="#FFC728"/>
</g>
</svg>
