<svg width="22" height="22" viewBox="0 0 22 22" fill="none" xmlns="http://www.w3.org/2000/svg">
<g id="Logo">
<path id="Star 4" d="M11.0057 2.10353L12.2398 5.85375H16.2861L12.9632 8.12969L14.2479 11.7736L11.0057 9.51841L7.76038 11.7736L9.00155 8.12969L5.70532 5.85375H9.6961L11.0057 2.10353Z" fill="#FFC728"/>
<path id="Vector 25" d="M19.08 9.77231C19.301 9.56657 20.0334 8.86439 20.3436 8.47412C20.3893 9.0683 20.403 9.83102 19.9714 10.6101C19.5051 11.452 18.3327 12.4215 18.1373 12.6072C17.9418 12.7929 16.4205 14.0467 15.5791 14.5662C15.4553 14.4979 15.3293 14.3753 15.0826 14.3478C14.7734 14.3133 14.4239 14.6897 14.3212 14.9109C14.2767 15.1116 14.365 15.4462 14.4573 15.5269C14.6182 15.6677 14.8193 15.6226 14.8703 15.7392C14.9387 15.8956 14.5496 16.106 14.2958 15.9953C14.0328 15.9261 13.8415 15.4744 13.5436 15.4992C13.3091 15.5188 12.3753 16.5807 11.8515 17.0191C11.3175 17.4661 10.1702 18.28 9.99581 18.4037L9.98656 18.4103C9.8626 18.4982 8.83212 19.1401 8.70983 19.2117C8.72829 19.4378 8.63679 19.8363 8.55834 19.8963C8.49317 19.8172 8.38718 19.7174 8.29391 19.6251C8.20064 19.5327 7.85234 19.3313 7.78792 19.289C7.68307 19.2202 7.60839 19.1372 7.57369 19.0591C7.53438 18.9706 7.50438 18.8523 7.49508 18.7328C7.44388 18.6522 7.33043 18.4661 7.29319 18.4103C7.25202 18.3485 7.1531 18.1216 7.11773 18.0135C7.31623 18.1354 7.55814 18.0803 7.72306 18.0253C7.88798 17.9703 8.57045 17.2999 8.79778 17.1408C8.93521 17.0446 10.0535 16.1671 10.1892 16.05C10.345 15.9154 10.6904 15.6523 10.8416 15.5423C10.9626 15.4544 12.1013 14.6965 12.6757 14.3324L12.6711 14.3265C12.5228 14.1365 12.2227 13.7521 12.2336 13.5344C12.2446 13.3146 12.3353 13.0557 12.5009 13.047C12.5654 13.0436 12.662 13.0844 12.662 13.0844V13.5934C12.835 13.7624 13.2713 13.9236 13.2713 13.9236C14.0118 13.3097 14.9622 12.6172 15.9611 11.9067C17.4622 10.839 18.6843 10.1409 19.08 9.77231Z" fill="#FFC728"/>
<path id="Vector 24" d="M2.91972 9.77231C2.69879 9.56657 1.9664 8.86439 1.65617 8.47412C1.61049 9.0683 1.59678 9.83102 2.02831 10.6101C2.49464 11.452 3.66701 12.4215 3.86248 12.6072C4.05796 12.7929 5.57928 14.0467 6.42064 14.5662C6.54444 14.4979 6.67043 14.3753 6.91716 14.3478C7.22634 14.3133 7.5759 14.6897 7.67857 14.9109C7.72308 15.1116 7.63473 15.4462 7.54244 15.5269C7.38154 15.6677 7.18043 15.6226 7.12943 15.7392C7.06102 15.8956 7.45015 16.106 7.70395 15.9953C7.96698 15.9261 8.15825 15.4744 8.45613 15.4992C8.6907 15.5188 9.62448 16.5807 10.1482 17.0191C10.6823 17.4661 11.8296 18.28 12.004 18.4037L12.0132 18.4103C12.1372 18.4982 13.1676 19.1401 13.2899 19.2117C13.2715 19.4378 13.363 19.8363 13.4414 19.8963C13.5066 19.8172 13.6126 19.7174 13.7059 19.6251C13.7991 19.5327 14.1474 19.3313 14.2118 19.289C14.3167 19.2202 14.3914 19.1372 14.4261 19.0591C14.4654 18.9706 14.4954 18.8523 14.5047 18.7328C14.5559 18.6522 14.6693 18.4661 14.7066 18.4103C14.7477 18.3485 14.8467 18.1216 14.882 18.0135C14.6835 18.1354 14.4416 18.0803 14.2767 18.0253C14.1118 17.9703 13.4293 17.2999 13.202 17.1408C13.0645 17.0446 11.9462 16.1671 11.8106 16.05C11.6547 15.9154 11.3093 15.6523 11.1581 15.5423C11.0372 15.4544 9.89848 14.6965 9.32406 14.3324L9.32867 14.3265C9.47697 14.1365 9.77708 13.7521 9.7662 13.5344C9.7552 13.3146 9.66447 13.0557 9.49891 13.047C9.43439 13.0436 9.33775 13.0844 9.33775 13.0844V13.5934C9.16479 13.7624 8.72848 13.9236 8.72848 13.9236C7.98792 13.3097 7.03752 12.6172 6.03861 11.9067C4.5376 10.839 3.3155 10.1409 2.91972 9.77231Z" fill="#FFC728"/>
</g>
</svg>
