<svg width="20" height="20" viewBox="0 0 20 20" fill="none" xmlns="http://www.w3.org/2000/svg">
<g clip-path="url(#clip0_6009_19018)">
<path d="M16.6616 11.2653C16.8856 10.8774 16.5256 10.4132 16.0941 10.5338L12.8264 11.4466L12.3684 5.52625C12.3414 5.17597 11.971 4.96213 11.6541 5.11381L6.29793 7.67735L5.4546 4.39106C5.34324 3.95711 4.76129 3.87735 4.53728 4.26534L1.575 9.39617C1.35621 9.77512 1.29372 10.2237 1.40136 10.6432C1.509 11.0626 1.77794 11.4186 2.14896 11.6328L11.4754 17.0174C11.8464 17.2316 12.2892 17.2866 12.7063 17.1701C13.1233 17.0536 13.4806 16.7751 13.6994 16.3962L16.6616 11.2653Z" fill="#ED7753"/>
</g>
<defs>
<clipPath id="clip0_6009_19018">
<rect width="14" height="14" fill="white" transform="translate(7) rotate(30)"/>
</clipPath>
</defs>
</svg>
