<svg width="20" height="20" viewBox="0 0 20 20" fill="none" xmlns="http://www.w3.org/2000/svg">
<g id="Gun">
<g id="Vector">
<path d="M19.5 5.69183V2.8151C19.5 2.59419 19.3209 2.4151 19.1 2.4151H17.9503H16.5001H2.35547C1.84052 2.4151 1.41514 3.2953 1.28819 3.62226C1.14371 3.99439 1.13476 4.51594 1.11074 5.17688C1.09153 5.70563 1.50549 5.91848 1.77697 5.98548C2.08437 6.06135 2.48291 6.2259 2.78559 6.74434C2.92552 6.98399 3.00756 7.28521 2.90567 7.67455L2.53071 8.97651H8.14663L8.4294 7.8459C8.48536 7.71535 8.45972 7.51897 8.79808 7.23878C8.95746 7.10681 9.24705 6.97232 9.39844 6.93655C9.47739 6.91789 9.50851 6.91569 9.5579 6.91569H12.071H18.5877C18.8237 6.91569 19.0752 6.76252 19.276 6.51808C19.4825 6.26659 19.5 5.95595 19.5 5.69183Z" fill="#9753ED"/>
<path d="M8.79808 7.23878C8.82422 7.79592 9.13126 8.53982 9.5579 8.97651L10.0898 8.61623C10.0898 8.61623 9.63768 8.42461 9.39844 6.93655C9.24705 6.97232 8.95746 7.10681 8.79808 7.23878Z" fill="#9753ED"/>
<path d="M12.7316 6.91569H12.071C12.071 7.74106 11.6815 9.22828 10.9237 9.76376C10.169 10.297 8.65517 10.1887 7.88461 9.96667L7.71484 10.6085C8.35447 10.8894 10.5351 10.945 11.329 10.2777C12.328 9.43802 12.7316 8.00481 12.7316 6.91569Z" fill="#9753ED"/>
<path d="M1.39293 16.585H6.00858C6.14666 16.585 6.26657 16.4921 6.29956 16.358C6.50314 15.5305 7.2196 12.6186 7.71484 10.6085L7.88461 9.96667L8.14663 8.97651H2.53071L0.600374 15.6793C0.525783 15.9313 0.434288 16.2051 0.568772 16.3814C0.703255 16.5576 0.929561 16.585 1.39293 16.585Z" fill="#9753ED"/>
</g>
</g>
</svg>
