<svg width="20" height="20" viewBox="0 0 20 20" fill="none" xmlns="http://www.w3.org/2000/svg">
<g id="vault" clip-path="url(#clip0_6644_20939)">
<path id="Vector" fill-rule="evenodd" clip-rule="evenodd" d="M2.76108 0.817978C1.67068 0.817978 0.786743 1.70192 0.786743 2.79231V15.2964C0.786743 16.3868 1.67068 17.2707 2.76108 17.2707V18.195C2.76108 18.7402 3.20305 19.1822 3.74824 19.1822C4.29343 19.1822 4.73541 18.7402 4.73541 18.195V17.2707H15.2652V18.195C15.2652 18.7402 15.7072 19.1822 16.2523 19.1822C16.7975 19.1822 17.2395 18.7402 17.2395 18.195V17.2707C18.3299 17.2707 19.2138 16.3868 19.2138 15.2964V2.79231C19.2138 1.70192 18.3299 0.817978 17.2395 0.817978H2.76108ZM12.3028 7.32386C11.3543 7.32431 10.5853 8.09227 10.5832 9.04037L10.5832 9.04436L10.5832 9.04859C10.5855 9.99685 11.3549 10.7649 12.3037 10.7649C13.2539 10.7649 14.0241 9.99457 14.0241 9.04436C14.0241 8.09415 13.253 7.32386 12.3028 7.32386ZM11.481 5.77983C11.1588 5.86078 10.855 5.98819 10.5772 6.15451L9.80453 5.38183C9.48328 5.06058 8.96241 5.06058 8.64115 5.38183C8.31989 5.70309 8.31989 6.22396 8.64115 6.54523L9.41382 7.3179C9.24749 7.5957 9.1201 7.89949 9.03915 8.22172H7.94401C7.48969 8.22172 7.12137 8.59003 7.12137 9.04436C7.12137 9.49869 7.48969 9.867 7.94401 9.867H9.03915C9.1201 10.1892 9.24749 10.493 9.41382 10.7708L8.64115 11.5435C8.31989 11.8648 8.31989 12.3856 8.64115 12.7069C8.96241 13.0281 9.48328 13.0281 9.80453 12.7069L10.5772 11.9342C10.855 12.1005 11.1588 12.2279 11.481 12.3089V13.404C11.481 13.8584 11.8493 14.2267 12.3037 14.2267C12.758 14.2267 13.1263 13.8584 13.1263 13.404V12.3089C13.4485 12.2279 13.7523 12.1005 14.0302 11.9342L14.8028 12.7069C15.1241 13.0281 15.6449 13.0281 15.9662 12.7069C16.2875 12.3856 16.2875 11.8648 15.9662 11.5435L15.1936 10.7708C15.3598 10.493 15.4872 10.1892 15.5682 9.867H16.6634C17.1176 9.867 17.486 9.49869 17.486 9.04436C17.486 8.59003 17.1176 8.22172 16.6634 8.22172H15.5682C15.4872 7.89949 15.3598 7.5957 15.1936 7.31789L15.9662 6.54523C16.2875 6.22396 16.2875 5.70309 15.9662 5.38183C15.6449 5.06058 15.1241 5.06058 14.8028 5.38183L14.0302 6.15451C13.7523 5.98819 13.4485 5.86079 13.1263 5.77984V4.68469C13.1263 4.23036 12.758 3.86206 12.3037 3.86206C11.8493 3.86206 11.481 4.23036 11.481 4.68469V5.77983ZM4.89106 6.25897C4.89106 5.80464 4.52275 5.43634 4.06842 5.43634C3.61409 5.43634 3.24579 5.80464 3.24579 6.25897V11.8298C3.24579 12.2841 3.61409 12.6524 4.06842 12.6524C4.52275 12.6524 4.89106 12.2841 4.89106 11.8297V6.25897Z" fill="#ED7753"/>
</g>
<defs>
<clipPath id="clip0_6644_20939">
<rect width="20" height="20" fill="white"/>
</clipPath>
</defs>
</svg>
