<svg xmlns="http://www.w3.org/2000/svg" width="44" height="40" viewBox="0 0 44 40" fill="none">
  <path d="M1.30375 11.0596C0.99078 9.13367 0.761631 7.72079 0.677792 6.60213C0.594307 5.48818 0.660286 4.71902 0.903321 4.07035C1.35342 2.86899 2.20933 1.86278 3.32293 1.22581C3.92423 0.881877 4.67284 0.693382 5.78576 0.597114C6.90338 0.500439 8.33472 0.5 10.2859 0.5H33.7141C35.6653 0.5 37.0966 0.500439 38.2142 0.597114C39.3272 0.693382 40.0758 0.881878 40.6771 1.22581C41.7907 1.86278 42.6466 2.86899 43.0967 4.07035C43.3397 4.71902 43.4057 5.48818 43.3222 6.60213C43.2384 7.72078 43.0092 9.13366 42.6963 11.0596L39.3163 31.8596C39.0825 33.2983 38.9112 34.35 38.7116 35.1773C38.5135 35.9985 38.2952 36.5628 37.9847 37.0325C37.4109 37.9007 36.6026 38.5883 35.6536 39.0154C35.1401 39.2465 34.5481 39.3715 33.7058 39.4354C32.8572 39.4997 31.7917 39.5 30.3341 39.5H13.6659C12.2083 39.5 11.1428 39.4997 10.2942 39.4354C9.45191 39.3715 8.85989 39.2465 8.34641 39.0154C7.39741 38.5883 6.58906 37.9007 6.01526 37.0325C5.70479 36.5628 5.48648 35.9985 5.28836 35.1773C5.08877 34.35 4.91754 33.2983 4.68374 31.8596L1.30375 11.0596Z" fill="#FFC47B" fill-opacity="0.15" stroke="#E9A653"/>
</svg>

