<svg width="206" height="64" viewBox="0 0 206 64" fill="none" xmlns="http://www.w3.org/2000/svg">
<rect width="206" height="64" fill="url(#paint0_linear_1194_46012)" fill-opacity="0.15"/>
<path d="M193.5 21.6C193.5 19.9116 193.5 18.6754 193.42 17.6999C193.341 16.7303 193.186 16.0626 192.901 15.5031C192.373 14.4682 191.532 13.6268 190.497 13.0995C189.937 12.8144 189.27 12.6593 188.3 12.5801C187.325 12.5004 186.088 12.5 184.4 12.5H149.933C147.743 12.5 146.767 12.5065 145.915 12.8006C145.144 13.0664 144.442 13.5003 143.86 14.0707L143.51 13.7135L143.86 14.0707C143.215 14.7018 142.773 15.5716 141.794 17.5304L131.394 38.3303C130.239 40.6392 129.389 42.3403 128.859 43.6977C128.329 45.0558 128.148 45.9992 128.267 46.8039C128.488 48.3005 129.316 49.6399 130.556 50.507C131.222 50.9732 132.147 51.2338 133.599 51.3667C135.05 51.4995 136.952 51.5 139.533 51.5H184.4C186.088 51.5 187.325 51.4996 188.3 51.4199C189.27 51.3407 189.937 51.1856 190.497 50.9005C191.532 50.3732 192.373 49.5318 192.901 48.4969C193.186 47.9374 193.341 47.2697 193.42 46.3001C193.5 45.3246 193.5 44.0884 193.5 42.4V21.6Z" stroke="url(#paint1_linear_1194_46012)"/>
<path d="M12.5 21.6C12.5 19.9116 12.5004 18.6754 12.5801 17.6999C12.6593 16.7303 12.8144 16.0626 13.0995 15.5031C13.6268 14.4682 14.4682 13.6268 15.5031 13.0995C16.0626 12.8144 16.7303 12.6593 17.6999 12.5801C18.6754 12.5004 19.9116 12.5 21.6 12.5H56.0669C58.2569 12.5 59.2326 12.5065 60.0852 12.8006C60.8559 13.0664 61.5578 13.5003 62.1402 14.0707L62.4901 13.7135L62.1403 14.0707C62.7846 14.7018 63.2268 15.5716 64.2062 17.5304L74.6062 38.3303C75.7606 40.6392 76.6106 42.3403 77.1408 43.6977C77.6713 45.0558 77.8516 45.9992 77.7327 46.8039C77.5116 48.3005 76.6838 49.6399 75.4441 50.507C74.7775 50.9732 73.8531 51.2338 72.4011 51.3667C70.9499 51.4995 69.0483 51.5 66.4669 51.5H21.6C19.9116 51.5 18.6754 51.4996 17.6999 51.4199C16.7303 51.3407 16.0626 51.1856 15.5031 50.9005C14.4682 50.3732 13.6268 49.5318 13.0995 48.4969C12.8144 47.9374 12.6593 47.2697 12.5801 46.3001C12.5004 45.3246 12.5 44.0884 12.5 42.4V21.6Z" stroke="url(#paint2_linear_1194_46012)"/>
<defs>
<linearGradient id="paint0_linear_1194_46012" x1="52.8205" y1="0" x2="52.8205" y2="64" gradientUnits="userSpaceOnUse">
<stop stop-color="#1097E3" stop-opacity="0"/>
<stop offset="1" stop-color="#1097E3" stop-opacity="0.28"/>
</linearGradient>
<linearGradient id="paint1_linear_1194_46012" x1="150.25" y1="26" x2="123.237" y2="59.2774" gradientUnits="userSpaceOnUse">
<stop stop-color="#1097E3" stop-opacity="0"/>
<stop offset="1" stop-color="#1097E3" stop-opacity="0.2"/>
</linearGradient>
<linearGradient id="paint2_linear_1194_46012" x1="60.75" y1="26" x2="87.0238" y2="62.0652" gradientUnits="userSpaceOnUse">
<stop stop-color="#1097E3" stop-opacity="0"/>
<stop offset="1" stop-color="#1097E3" stop-opacity="0.2"/>
</linearGradient>
</defs>
</svg>
