<svg width="206" height="64" viewBox="0 0 206 64" fill="none" xmlns="http://www.w3.org/2000/svg">
<rect width="206" height="64" fill="url(#paint0_linear_1194_46039)" fill-opacity="0.15"/>
<path d="M184.65 12.5H150.183C147.993 12.5 147.017 12.5065 146.165 12.8006C145.394 13.0664 144.692 13.5003 144.11 14.0707C143.465 14.7018 143.023 15.5716 142.044 17.5304L131.644 38.3303C130.489 40.6392 129.639 42.3403 129.109 43.6977C128.579 45.0558 128.398 45.9992 128.517 46.8039C128.738 48.3005 129.566 49.6399 130.806 50.507C131.472 50.9732 132.397 51.2338 133.849 51.3667C135.3 51.4995 137.202 51.5 139.783 51.5H184.65C186.338 51.5 187.575 51.4996 188.55 51.4199C189.52 51.3407 190.187 51.1856 190.747 50.9005C191.782 50.3732 192.623 49.5318 193.151 48.4969C193.436 47.9374 193.591 47.2697 193.67 46.3001C193.75 45.3246 193.75 44.0884 193.75 42.4V21.6C193.75 19.9116 193.75 18.6754 193.67 17.6999C193.591 16.7303 193.436 16.0626 193.151 15.5031C192.623 14.4682 191.782 13.6268 190.747 13.0995C190.187 12.8144 189.52 12.6593 188.55 12.5801C187.575 12.5004 186.338 12.5 184.65 12.5Z" stroke="url(#paint1_linear_1194_46039)"/>
<path d="M12.75 21.6C12.75 19.9116 12.7504 18.6754 12.8301 17.6999C12.9093 16.7303 13.0644 16.0626 13.3495 15.5031C13.8768 14.4682 14.7182 13.6268 15.7531 13.0995C16.3126 12.8144 16.9803 12.6593 17.9499 12.5801C18.9254 12.5004 20.1616 12.5 21.85 12.5H56.3169C58.5069 12.5 59.4826 12.5065 60.3352 12.8006C61.1059 13.0664 61.8078 13.5003 62.3902 14.0707L62.7401 13.7135L62.3903 14.0707C63.0346 14.7018 63.4768 15.5716 64.4562 17.5304L74.8562 38.3303C76.0106 40.6392 76.8606 42.3403 77.3908 43.6977C77.9213 45.0558 78.1016 45.9992 77.9827 46.8039C77.7616 48.3005 76.9338 49.6399 75.6941 50.507C75.0275 50.9732 74.1031 51.2338 72.6511 51.3667C71.1999 51.4995 69.2983 51.5 66.7169 51.5H21.85C20.1616 51.5 18.9254 51.4996 17.9499 51.4199C16.9803 51.3407 16.3126 51.1856 15.7531 50.9005C14.7182 50.3732 13.8768 49.5318 13.3495 48.4969C13.0644 47.9374 12.9093 47.2697 12.8301 46.3001C12.7504 45.3246 12.75 44.0884 12.75 42.4V21.6Z" stroke="url(#paint2_linear_1194_46039)"/>
<defs>
<linearGradient id="paint0_linear_1194_46039" x1="52.8205" y1="0" x2="52.8205" y2="64" gradientUnits="userSpaceOnUse">
<stop stop-color="#00E37B" stop-opacity="0"/>
<stop offset="1" stop-color="#00E37B" stop-opacity="0.28"/>
</linearGradient>
<linearGradient id="paint1_linear_1194_46039" x1="150.5" y1="26" x2="123.487" y2="59.2774" gradientUnits="userSpaceOnUse">
<stop stop-color="#00E37B" stop-opacity="0"/>
<stop offset="1" stop-color="#00E37B" stop-opacity="0.2"/>
</linearGradient>
<linearGradient id="paint2_linear_1194_46039" x1="61" y1="26" x2="87.2738" y2="62.0652" gradientUnits="userSpaceOnUse">
<stop stop-color="#00E37B" stop-opacity="0"/>
<stop offset="1" stop-color="#00E37B" stop-opacity="0.2"/>
</linearGradient>
</defs>
</svg>
