<svg xmlns="http://www.w3.org/2000/svg" width="53" height="40" viewBox="0 0 53 40" fill="none">
  <path d="M0.5 9.6C0.5 7.91159 0.500389 6.67536 0.580085 5.69993C0.659303 4.73034 0.814384 4.06255 1.09946 3.50305C1.62677 2.46816 2.46816 1.62677 3.50305 1.09946C4.06255 0.814384 4.73034 0.659303 5.69993 0.580085C6.67536 0.500389 7.91159 0.5 9.6 0.5H38.1299C39.539 0.5 40.5686 0.50032 41.3903 0.561389C42.2057 0.621992 42.7811 0.740629 43.2837 0.960275C44.2124 1.36616 45.0109 2.02078 45.5911 2.85186C45.905 3.30161 46.1342 3.84262 46.3535 4.63029C46.5746 5.42402 46.7768 6.43363 47.0532 7.81534L51.2132 28.6153C51.6085 30.5922 51.8983 32.0432 52.0255 33.1929C52.1523 34.3384 52.1102 35.1298 51.8789 35.7982C51.4505 37.0365 50.5941 38.0812 49.4638 38.7442C48.8537 39.102 48.0859 39.2985 46.9379 39.3988C45.7855 39.4995 44.3059 39.5 42.2899 39.5H9.6C7.91159 39.5 6.67536 39.4996 5.69993 39.4199C4.73034 39.3407 4.06255 39.1856 3.50305 38.9005C2.46816 38.3732 1.62677 37.5318 1.09946 36.4969C0.814384 35.9374 0.659303 35.2697 0.580085 34.3001C0.500389 33.3246 0.5 32.0884 0.5 30.4V30.3594V30.3188V30.2781V30.2375V30.1969V30.1562V30.1156V30.075V30.0344V29.9937V29.9531V29.9125V29.8719V29.8312V29.7906V29.75V29.7094V29.6687V29.6281V29.5875V29.5469V29.5063V29.4656V29.425V29.3844V29.3438V29.3031V29.2625V29.2219V29.1812V29.1406V29.1V29.0594V29.0187V28.9781V28.9375V28.8969V28.8562V28.8156V28.775V28.7344V28.6938V28.6531V28.6125V28.5719V28.5312V28.4906V28.45V28.4094V28.3687V28.3281V28.2875V28.2469V28.2062V28.1656V28.125V28.0844V28.0438V28.0031V27.9625V27.9219V27.8813V27.8406V27.8V27.7594V27.7188V27.6781V27.6375V27.5969V27.5562V27.5156V27.475V27.4344V27.3937V27.3531V27.3125V27.2719V27.2313V27.1906V27.15V27.1094V27.0688V27.0281V26.9875V26.9469V26.9062V26.8656V26.825V26.7844V26.7437V26.7031V26.6625V26.6219V26.5812V26.5406V26.5V26.4594V26.4188V26.3781V26.3375V26.2969V26.2563V26.2156V26.175V26.1344V26.0938V26.0531V26.0125V25.9719V25.9312V25.8906V25.85V25.8094V25.7687V25.7281V25.6875V25.6469V25.6063V25.5656V25.525V25.4844V25.4438V25.4031V25.3625V25.3219V25.2812V25.2406V25.2V25.1594V25.1187V25.0781V25.0375V24.9969V24.9562V24.9156V24.875V24.8344V24.7938V24.7531V24.7125V24.6719V24.6313V24.5906V24.55V24.5094V24.4688V24.4281V24.3875V24.3469V24.3062V24.2656V24.225V24.1844V24.1437V24.1031V24.0625V24.0219V23.9813V23.9406V23.9V23.8594V23.8188V23.7781V23.7375V23.6969V23.6562V23.6156V23.575V23.5344V23.4937V23.4531V23.4125V23.3719V23.3312V23.2906V23.25V23.2094V23.1688V23.1281V23.0875V23.0469V23.0063V22.9656V22.925V22.8844V22.8438V22.8031V22.7625V22.7219V22.6812V22.6406V22.6V22.5594V22.5187V22.4781V22.4375V22.3969V22.3563V22.3156V22.275V22.2344V22.1938V22.1531V22.1125V22.0719V22.0312V21.9906V21.95V21.9094V21.8687V21.8281V21.7875V21.7469V21.7062V21.6656V21.625V21.5844V21.5438V21.5031V21.4625V21.4219V21.3813V21.3406V21.3V21.2594V21.2188V21.1781V21.1375V21.0969V21.0562V21.0156V20.975V20.9344V20.8937V20.8531V20.8125V20.7719V20.7313V20.6906V20.65V20.6094V20.5688V20.5281V20.4875V20.4469V20.4062V20.3656V20.325V20.2844V20.2437V20.2031V20.1625V20.1219V20.0812V20.0406V20V19.9594V19.9188V19.8781V19.8375V19.7969V19.7563V19.7156V19.675V19.6344V19.5938V19.5531V19.5125V19.4719V19.4312V19.3906V19.35V19.3094V19.2687V19.2281V19.1875V19.1469V19.1063V19.0656V19.025V18.9844V18.9438V18.9031V18.8625V18.8219V18.7812V18.7406V18.7V18.6594V18.6187V18.5781V18.5375V18.4969V18.4562V18.4156V18.375V18.3344V18.2938V18.2531V18.2125V18.1719V18.1313V18.0906V18.05V18.0094V17.9688V17.9281V17.8875V17.8469V17.8062V17.7656V17.725V17.6844V17.6437V17.6031V17.5625V17.5219V17.4813V17.4406V17.4V17.3594V17.3188V17.2781V17.2375V17.1969V17.1562V17.1156V17.075V17.0344V16.9937V16.9531V16.9125V16.8719V16.8312V16.7906V16.75V16.7094V16.6688V16.6281V16.5875V16.5469V16.5063V16.4656V16.425V16.3844V16.3438V16.3031V16.2625V16.2219V16.1812V16.1406V16.1V16.0594V16.0187V15.9781V15.9375V15.8969V15.8562V15.8156V15.775V15.7344V15.6938V15.6531V15.6125V15.5719V15.5312V15.4906V15.45V15.4094V15.3687V15.3281V15.2875V15.2469V15.2063V15.1656V15.125V15.0844V15.0437V15.0031V14.9625V14.9219V14.8813V14.8406V14.8V14.7594V14.7188V14.6781V14.6375V14.5969V14.5562V14.5156V14.475V14.4344V14.3938V14.3531V14.3125V14.2719V14.2312V14.1906V14.15V14.1094V14.0688V14.0281V13.9875V13.9469V13.9062V13.8656V13.825V13.7844V13.7437V13.7031V13.6625V13.6219V13.5813V13.5406V13.5V13.4594V13.4187V13.3781V13.3375V13.2969V13.2563V13.2156V13.175V13.1344V13.0938V13.0531V13.0125V12.9719V12.9312V12.8906V12.85V12.8094V12.7688V12.7281V12.6875V12.6469V12.6062V12.5656V12.525V12.4844V12.4438V12.4031V12.3625V12.3219V12.2812V12.2406V12.2V12.1594V12.1188V12.0781V12.0375V11.9969V11.9563V11.9156V11.875V11.8344V11.7937V11.7531V11.7125V11.6719V11.6313V11.5906V11.55V11.5094V11.4688V11.4281V11.3875V11.3469V11.3063V11.2656V11.225V11.1844V11.1438V11.1031V11.0625V11.0219V10.9812V10.9406V10.9V10.8594V10.8188V10.7781V10.7375V10.6969V10.6562V10.6156V10.575V10.5344V10.4938V10.4531V10.4125V10.3719V10.3313V10.2906V10.25V10.2094V10.1688V10.1281V10.0875V10.0469V10.0063V9.96563V9.925V9.88438V9.84375V9.80313V9.7625V9.72188V9.68125V9.64062V9.6Z" stroke="url(#paint0_linear_7120_19392)"/>
  <defs>
    <linearGradient id="paint0_linear_7120_19392" x1="24.3529" y1="13.5" x2="55.2722" y2="37.6621" gradientUnits="userSpaceOnUse">
      <stop stop-color="#FFC47B" stop-opacity="0"/>
      <stop offset="1" stop-color="#FFC47B" stop-opacity="0.2"/>
    </linearGradient>
  </defs>
</svg>