<svg width="102" height="30" viewBox="0 0 102 30" fill="none" xmlns="http://www.w3.org/2000/svg">
<g id="Frame" clip-path="url(#clip0_1714_35456)">
<g id="Bitcoin">
<g id="Group">
<path id="Vector" d="M26.1354 18.6287C24.3719 26.6644 17.2076 31.5548 10.1334 29.5509C3.06198 27.5475 -1.24283 19.4082 0.521512 11.373C2.2842 3.33634 9.44843 -1.55455 16.5206 0.448868C23.5945 2.45229 27.8989 10.5925 26.1354 18.6287Z" fill="#F7931A"/>
<path id="Vector_2" d="M19.15 12.8629C19.4128 10.867 18.0751 9.79402 16.246 9.07824L16.8393 6.37452L15.3907 5.96437L14.813 8.59684C14.4321 8.48903 14.041 8.38731 13.6523 8.28653L14.2341 5.63671L12.7862 5.22656L12.1925 7.92935C11.8772 7.84779 11.5678 7.76716 11.2674 7.68232L11.269 7.67388L9.27116 7.10717L8.88578 8.86496C8.88578 8.86496 9.96064 9.1448 9.93795 9.16215C10.5247 9.32855 10.6307 9.76964 10.613 10.1193L9.93712 13.1995C9.97756 13.2112 10.03 13.228 10.0877 13.2543C10.0395 13.2407 9.98788 13.2257 9.93465 13.2112L8.98728 17.526C8.91549 17.7285 8.73353 18.0322 8.32339 17.9169C8.33783 17.9408 7.2704 17.6183 7.2704 17.6183L6.55121 19.5022L8.43644 20.0361C8.78717 20.1359 9.13088 20.2405 9.46922 20.3389L8.86969 23.0736L10.3167 23.4837L10.9105 20.7781C11.3058 20.9 11.6895 21.0125 12.065 21.1184L11.4733 23.8114L12.922 24.2215L13.5215 21.492C15.9918 22.0231 17.8494 21.8089 18.6313 19.2706C19.2614 17.2269 18.6 16.048 17.3002 15.2793C18.2468 15.0313 18.9598 14.324 19.15 12.8629ZM15.84 18.1358C15.3923 20.1795 12.3633 19.0747 11.3813 18.7977L12.1768 15.1747C13.1588 15.4532 16.3079 16.0044 15.84 18.1358ZM16.2881 12.8334C15.8796 14.6924 13.3585 13.7479 12.5407 13.5163L13.262 10.2304C14.0798 10.462 16.7135 10.8942 16.2881 12.8334Z" fill="white"/>
</g>
</g>
<g id="Group_2">
<path id="Vector_3" d="M40.0009 10.8389C40.7528 10.8389 41.4025 10.9919 41.9484 11.2925C42.4969 11.5961 42.9495 12.005 43.3126 12.5192C43.6708 13.0361 43.9373 13.6402 44.1095 14.3325C44.2804 15.0269 44.3662 15.7732 44.3662 16.5722C44.3662 17.7996 44.1683 18.9591 43.7687 20.0521C43.3691 21.1468 42.827 22.0962 42.1373 22.9061C41.4483 23.715 40.6346 24.3527 39.6964 24.8238C38.7596 25.2953 37.741 25.531 36.6475 25.531C36.5061 25.531 36.2574 25.5264 35.9062 25.5182C35.555 25.5099 35.1514 25.4688 34.6994 25.3993C34.2444 25.3272 33.7634 25.2205 33.2555 25.0777C32.7478 24.9374 32.2656 24.7409 31.8116 24.4913L35.8718 5.10811L39.5083 4.46777L38.0546 11.3462C38.3658 11.1868 38.6793 11.0634 38.9922 10.9735C39.3055 10.8849 39.6416 10.8389 40.0009 10.8389ZM36.9505 22.2533C37.4982 22.2533 38.0143 22.1002 38.499 21.7996C38.9853 21.4987 39.4049 21.0924 39.7563 20.5864C40.1078 20.0781 40.386 19.5056 40.5888 18.8659C40.7917 18.2262 40.8942 17.5589 40.8942 16.8646C40.8942 16.0116 40.7688 15.3462 40.5187 14.8652C40.2686 14.3862 39.8059 14.1452 39.1339 14.1452C38.9137 14.1452 38.63 14.193 38.2782 14.2782C37.9253 14.3688 37.6095 14.5567 37.3264 14.8395L35.7785 22.1443C35.8718 22.1631 35.9543 22.1808 36.0248 22.1976C36.0937 22.2157 36.1699 22.2286 36.2458 22.2375C36.3261 22.2477 36.418 22.2529 36.5289 22.2529C36.6399 22.2529 36.7787 22.2533 36.9505 22.2533Z" fill="white"/>
<path id="Vector_4" d="M48.1374 25.1612H44.664L47.5973 11.1374H51.0945L48.1374 25.1612ZM49.8276 9.4287C49.3428 9.4287 48.9032 9.26475 48.5132 8.93619C48.12 8.6096 47.9253 8.10688 47.9253 7.42934C47.9253 7.05667 47.9919 6.70703 48.1241 6.37715C48.2582 6.04793 48.4335 5.76447 48.6532 5.52348C48.8725 5.28447 49.1267 5.09352 49.4153 4.94965C49.7056 4.80808 50.0145 4.7373 50.3437 4.7373C50.8282 4.7373 51.2654 4.90126 51.6569 5.22982C52.0469 5.56003 52.2431 6.06275 52.2431 6.73666C52.2431 7.11066 52.1767 7.46161 52.0434 7.79083C51.911 8.12005 51.7357 8.4035 51.5161 8.64449C51.2984 8.88384 51.042 9.07413 50.754 9.21668C50.4633 9.36055 50.1556 9.4287 49.8276 9.4287Z" fill="white"/>
<path id="Vector_5" d="M54.1386 7.64327L57.7766 7.00293L56.8833 11.1366H60.7794L60.0759 14.3887H56.2032L55.1716 19.2941C55.0766 19.703 55.0227 20.0849 55.0076 20.4398C54.9905 20.7963 55.0302 21.1025 55.1241 21.3603C55.2174 21.6187 55.3852 21.8179 55.6286 21.9588C55.8708 22.102 56.2177 22.1741 56.6726 22.1741C57.0473 22.1741 57.4124 22.1336 57.7653 22.0533C58.1162 21.9743 58.4717 21.8643 58.8316 21.7204L59.0907 24.7611C58.6213 24.9567 58.113 25.1249 57.5654 25.2665C57.0168 25.41 56.3675 25.4791 55.617 25.4791C54.5379 25.4791 53.7014 25.2971 53.1053 24.9346C52.5101 24.5695 52.0894 24.0707 51.8376 23.4393C51.5893 22.8102 51.4783 22.0849 51.5093 21.2677C51.5415 20.4486 51.6501 19.5877 51.8376 18.6811L54.1386 7.64327Z" fill="white"/>
<path id="Vector_6" d="M60.6261 19.5592C60.6261 18.3513 60.7982 17.2122 61.1422 16.1458C61.4855 15.0785 61.9802 14.1452 62.622 13.3442C63.2615 12.5471 64.0407 11.9157 64.9578 11.4521C65.8705 10.9912 66.8925 10.7588 68.0188 10.7588C68.7238 10.7588 69.3535 10.8345 69.9075 10.9863C70.4639 11.1394 70.9672 11.3372 71.4224 11.5855L70.2245 14.6801C69.9116 14.5359 69.5868 14.4089 69.2509 14.2936C68.9148 14.1761 68.5045 14.1195 68.0191 14.1195C66.8598 14.1195 65.9433 14.5735 65.2612 15.4785C64.5817 16.3842 64.2395 17.6033 64.2395 19.1325C64.2395 20.0389 64.4116 20.7717 64.757 21.3324C65.1006 21.893 65.7355 22.1719 66.6572 22.1719C67.1122 22.1719 67.5512 22.1179 67.9716 22.0126C68.3953 21.9059 68.7693 21.7716 69.0988 21.6129L69.3581 24.7853C68.9189 24.9788 68.4344 25.1536 67.9029 25.3067C67.3704 25.4546 66.7364 25.5313 66.0012 25.5313C65.0308 25.5313 64.2093 25.37 63.5374 25.0523C62.8651 24.7296 62.3096 24.3013 61.8721 23.7587C61.4322 23.2149 61.1164 22.5798 60.9211 21.8509C60.7258 21.1227 60.6261 20.3576 60.6261 19.5592Z" fill="white"/>
<path id="Vector_7" d="M76.056 25.5313C75.227 25.5313 74.5069 25.3877 73.8961 25.1036C73.287 24.8195 72.7825 24.4208 72.3835 23.9039C71.9839 23.3897 71.6849 22.7803 71.48 22.0781C71.2752 21.3762 71.1766 20.5989 71.1766 19.7472C71.1766 18.6789 71.3276 17.6109 71.6327 16.5458C71.9364 15.4785 72.387 14.5195 72.9833 13.6671C73.575 12.8135 74.3049 12.1155 75.1644 11.5713C76.0229 11.0307 77.0105 10.7588 78.1197 10.7588C78.9336 10.7588 79.6499 10.9027 80.2691 11.1868C80.8855 11.4702 81.3931 11.8722 81.7945 12.3865C82.1914 12.9033 82.4931 13.5101 82.6959 14.2133C82.9002 14.9139 83.001 15.6932 83.001 16.5455C83.001 17.6105 82.8521 18.6785 82.5565 19.7469C82.2607 20.8099 81.8217 21.7712 81.2422 22.6256C80.6638 23.4779 79.9406 24.1755 79.0718 24.7174C78.2043 25.2593 77.1982 25.5313 76.056 25.5313ZM77.792 14.1198C77.277 14.1198 76.8218 14.2897 76.4321 14.6252C76.0409 14.9646 75.7123 15.3913 75.4475 15.9058C75.1797 16.4227 74.9812 16.9863 74.8471 17.599C74.7141 18.213 74.6489 18.7934 74.6489 19.3449C74.6489 20.2348 74.7752 20.9278 75.0235 21.4265C75.2754 21.9227 75.7277 22.1722 76.3851 22.1722C76.9018 22.1722 77.3547 22.0037 77.7468 21.6646C78.1356 21.3278 78.4645 20.9008 78.7314 20.3852C78.9974 19.871 79.1976 19.3057 79.3318 18.692C79.463 18.08 79.53 17.4963 79.53 16.9458C79.53 16.0583 79.4042 15.3636 79.1536 14.8655C78.9032 14.3694 78.4489 14.1198 77.792 14.1198Z" fill="white"/>
<path id="Vector_8" d="M86.7755 25.1612H83.2992L86.2325 11.1374H89.7314L86.7755 25.1612ZM88.4631 9.4287C87.9786 9.4287 87.5393 9.26475 87.1499 8.93619C86.7587 8.6096 86.5622 8.10688 86.5622 7.42934C86.5622 7.05667 86.6297 6.70703 86.7622 6.37715C86.8946 6.04793 87.0711 5.76447 87.2907 5.52348C87.5089 5.28447 87.7653 5.09352 88.0534 4.94965C88.342 4.80808 88.6508 4.7373 88.9789 4.7373C89.4645 4.7373 89.9032 4.90126 90.2938 5.22982C90.6847 5.56003 90.882 6.06275 90.882 6.73666C90.882 7.11066 90.8119 7.46161 90.6807 7.79083C90.5494 8.12005 90.3729 8.4035 90.1542 8.64449C89.9339 8.88384 89.6807 9.07413 89.3921 9.21668C89.1011 9.36055 88.7928 9.4287 88.4631 9.4287Z" fill="white"/>
<path id="Vector_9" d="M92.2451 11.7745C92.5088 11.6869 92.8032 11.5816 93.1233 11.467C93.4447 11.3524 93.8037 11.2458 94.2048 11.1496C94.6014 11.0505 95.0491 10.9702 95.5414 10.908C96.0338 10.8444 96.5947 10.8135 97.218 10.8135C99.0499 10.8135 100.313 11.4196 101.01 12.6282C101.706 13.8367 101.827 15.4907 101.375 17.5872L99.7772 25.1593H96.2809L97.8294 17.7465C97.9239 17.2837 97.9981 16.8362 98.0528 16.399C98.1082 15.9658 98.105 15.5839 98.0404 15.2534C97.9786 14.9268 97.8332 14.6594 97.6075 14.4524C97.3782 14.2486 97.032 14.1462 96.5623 14.1462C96.1094 14.1462 95.6486 14.2015 95.1784 14.3082L92.9017 25.159H89.4039L92.2451 11.7745Z" fill="white"/>
</g>
</g>
<defs>
<clipPath id="clip0_1714_35456">
<rect width="101.516" height="30" fill="white" transform="translate(0.126038)"/>
</clipPath>
</defs>
</svg>
