<svg width="132" height="28" viewBox="0 0 132 28" fill="none" xmlns="http://www.w3.org/2000/svg">
<path d="M51.6025 1C46.2371 1 41.4423 3.85479 41.4423 9.12923C41.4423 15.178 49.946 15.5958 49.946 18.6346C49.946 19.914 48.5176 21.0594 46.078 21.0594C42.6157 21.0594 40.0279 19.459 40.0279 19.459L38.9207 24.7815C38.9207 24.7815 41.9017 26.1333 45.8595 26.1333C51.7256 26.1333 56.3415 23.1384 56.3415 17.7737C56.3415 11.3821 47.8024 10.9767 47.8024 8.15627C47.8024 7.15398 48.9749 6.05577 51.4076 6.05577C54.1524 6.05577 56.3917 7.21968 56.3917 7.21968L57.4754 2.07905C57.4754 2.07905 55.0387 1 51.6025 1ZM2.51401 1.38797L2.38409 2.16392C2.38409 2.16392 4.64134 2.58799 6.67435 3.43392C9.29203 4.40395 9.4785 4.96865 9.91936 6.72259L14.7234 25.7332H21.1632L31.0842 1.38797H24.6592L18.2843 17.9404L15.683 3.90979C15.4444 2.304 14.236 1.38797 12.7569 1.38797H2.51401ZM33.6678 1.38797L28.6276 25.7332H34.7544L39.777 1.38797H33.6678ZM67.8393 1.38797C66.3619 1.38797 65.5791 2.19993 65.0047 3.61881L56.0286 25.7332H62.4536L63.6967 22.0475H71.5243L72.2802 25.7332H77.9493L73.0036 1.38797H67.8393ZM68.6749 7.96532L70.5794 17.1009H65.4772L68.6749 7.96532Z" fill="#EFF2FF"/>
<g clip-path="url(#clip0_1714_35512)">
<path fill-rule="evenodd" clip-rule="evenodd" d="M102.276 24.971H114.587V2.98926H102.276V24.971Z" fill="#FF5F00"/>
<path fill-rule="evenodd" clip-rule="evenodd" d="M103.057 13.9798C103.057 9.52026 105.159 5.54844 108.432 2.98897C106.038 1.11683 103.018 0 99.7361 0C91.9657 0 85.6669 6.25908 85.6669 13.9798C85.6669 21.7006 91.9657 27.9597 99.7361 27.9597C103.018 27.9597 106.038 26.8428 108.432 24.9707C105.159 22.4108 103.057 18.4394 103.057 13.9798Z" fill="#EB001B"/>
<path fill-rule="evenodd" clip-rule="evenodd" d="M130.757 22.6427V22.1002H130.614L130.45 22.4734L130.286 22.1002H130.144V22.6427H130.244V22.2334L130.398 22.5864H130.502L130.656 22.2326V22.6427H130.757ZM129.854 22.6427V22.1926H130.037V22.1009H129.571V22.1926H129.754V22.6427H129.854ZM131.196 13.9798C131.196 21.7006 124.897 27.9597 117.127 27.9597C113.845 27.9597 110.825 26.8428 108.432 24.9707C111.704 22.4112 113.806 18.4394 113.806 13.9798C113.806 9.52065 111.704 5.54883 108.432 2.98897C110.825 1.11683 113.845 0 117.127 0C124.897 0 131.196 6.25908 131.196 13.9798Z" fill="#F79E1B"/>
</g>
<defs>
<clipPath id="clip0_1714_35512">
<rect width="46" height="28" fill="white" transform="translate(85.6667)"/>
</clipPath>
</defs>
</svg>
