<svg width="15" height="12" viewBox="0 0 15 12" fill="none" xmlns="http://www.w3.org/2000/svg">
<path d="M11.6464 0.396447C11.8417 0.201184 12.1583 0.201184 12.3536 0.396447L14.3536 2.39645C14.5488 2.59171 14.5488 2.90829 14.3536 3.10355L12.3536 5.10355C12.1583 5.29882 11.8417 5.29882 11.6464 5.10355C11.4512 4.90829 11.4512 4.59171 11.6464 4.39645L12.7929 3.25H1C0.723857 3.25 0.5 3.02614 0.5 2.75C0.5 2.47386 0.723857 2.25 1 2.25H12.7929L11.6464 1.10355C11.4512 0.908291 11.4512 0.591709 11.6464 0.396447Z" fill="#606373"/>
<path d="M3.35355 11.6036C3.15829 11.7988 2.84171 11.7988 2.64645 11.6036L0.646446 9.60355C0.451184 9.40829 0.451184 9.09171 0.646446 8.89645L2.64645 6.89645C2.84171 6.70119 3.15829 6.70119 3.35355 6.89645C3.54882 7.09171 3.54882 7.40829 3.35355 7.60355L2.20711 8.75L14 8.75C14.2761 8.75 14.5 8.97386 14.5 9.25C14.5 9.52614 14.2761 9.75 14 9.75L2.20711 9.75L3.35355 10.8964C3.54882 11.0917 3.54882 11.4083 3.35355 11.6036Z" fill="#606373"/>
</svg>
