<svg width="125" height="33" viewBox="0 0 125 33" fill="none" xmlns="http://www.w3.org/2000/svg">
<g id="Frame" clip-path="url(#clip0_1714_35471)">
<g id="Ethereum_logo_2014">
<g id="Group">
<path id="Vector" d="M9.99637 1L9.77802 1.74868V23.4737L9.99637 23.6936L19.993 17.7327L9.99637 1Z" fill="#B4B4B4"/>
<path id="Vector_2" d="M9.99668 1L0 17.7327L9.99668 23.6937V13.149V1Z" fill="white"/>
<path id="Vector_3" d="M9.99688 25.6025L9.87384 25.7538V33.4927L9.99688 33.8553L19.9995 19.6445L9.99688 25.6025Z" fill="#B4B4B4"/>
<path id="Vector_4" d="M9.99668 33.8553V25.6025L0 19.6445L9.99668 33.8553Z" fill="white"/>
<path id="Vector_5" d="M9.9967 23.693L19.9932 17.7321L9.9967 13.1484V23.693Z" fill="#B4B4B4"/>
<path id="Vector_6" d="M0 17.7321L9.99652 23.693V13.1484L0 17.7321Z" fill="white"/>
</g>
</g>
<path id="Vector_7" d="M35.4543 21.1325C35.4543 21.3496 35.2726 21.5263 35.0555 21.5263H27.373C27.5648 23.4242 28.9933 25.1555 31.0022 25.1555C32.3752 25.1555 33.3948 24.6306 34.1621 23.5352C34.2731 23.3838 34.4397 23.2879 34.6517 23.3788C34.7678 23.4292 34.8486 23.5352 34.8687 23.6564C34.8889 23.7826 34.8536 23.8532 34.8183 23.9239C34.046 25.2716 32.5064 25.9329 30.9972 25.9329C28.4128 25.9329 26.5704 23.621 26.5704 21.1477C26.5704 18.6743 28.4128 16.3625 30.9972 16.3625C33.5816 16.3574 35.4492 18.6642 35.4543 21.1325ZM34.6315 20.759C34.4649 18.8611 33.0112 17.1297 31.0022 17.1297C28.9933 17.1297 27.5648 18.8611 27.373 20.759H34.6315ZM44.7773 16.5492C44.9994 16.5492 45.161 16.7411 45.161 16.9329C45.161 17.155 44.9944 17.3165 44.7773 17.3165H42.7179V25.3978C42.7179 25.5896 42.5513 25.7814 42.3343 25.7814C42.1122 25.7814 41.9506 25.5896 41.9506 25.3978V17.3165H39.9719C39.7498 17.3165 39.5883 17.1499 39.5883 16.9329C39.5883 16.7411 39.7549 16.5492 39.9719 16.5492H41.9506V13.5913C41.9506 13.4046 42.0768 13.2329 42.2585 13.2026C42.516 13.1623 42.7179 13.3389 42.7179 13.5812V16.5492H44.7773ZM57.341 20.4561V25.3524C57.341 25.5745 57.1492 25.736 56.9574 25.736C56.7353 25.736 56.5737 25.5694 56.5737 25.3524V20.4561C56.5737 18.8056 55.6399 17.155 53.7975 17.155C51.4352 17.155 50.4156 19.2195 50.5519 21.3344C50.5519 21.39 50.5771 21.6373 50.5771 21.6625V25.3372C50.5771 25.524 50.4509 25.6956 50.2692 25.7259C50.0118 25.7663 49.8099 25.5896 49.8099 25.3473V9.26546C49.8099 9.07365 49.9764 8.88184 50.1935 8.88184C50.4156 8.88184 50.5771 9.07365 50.5771 9.26546V18.3664C51.2383 17.1853 52.4195 16.3877 53.7925 16.3877C56.0488 16.3877 57.341 18.3664 57.341 20.4561ZM71.1161 21.1325C71.1161 21.3496 70.9344 21.5263 70.7173 21.5263H63.0297C63.2215 23.4242 64.65 25.1555 66.659 25.1555C68.0319 25.1555 69.0516 24.6306 69.8188 23.5352C69.9299 23.3838 70.0965 23.2879 70.3085 23.3788C70.4245 23.4292 70.5053 23.5352 70.5255 23.6564C70.5457 23.7826 70.5104 23.8532 70.475 23.9239C69.7027 25.2716 68.1632 25.9329 66.6539 25.9329C64.0695 25.9329 62.2271 23.621 62.2271 21.1477C62.2271 18.6743 64.0695 16.3625 66.6539 16.3625C69.2434 16.3574 71.111 18.6642 71.1161 21.1325ZM70.2883 20.759C70.1217 18.8611 68.668 17.1297 66.659 17.1297C64.65 17.1297 63.2215 18.8611 63.0297 20.759H70.2883ZM80.5451 16.9076C80.5451 17.155 80.4088 17.2913 80.1867 17.3215C77.9304 17.6496 76.9159 19.492 76.9159 21.6373V25.312C76.9159 25.4988 76.7897 25.6704 76.6079 25.7007C76.3505 25.7411 76.1486 25.5644 76.1486 25.3221V16.948C76.1486 16.7613 76.2748 16.5896 76.4565 16.5593C76.7139 16.519 76.9159 16.6956 76.9159 16.9379V18.644C77.5468 17.5739 78.8138 16.5543 80.1312 16.5543C80.323 16.5492 80.5451 16.6906 80.5451 16.9076ZM93.1643 21.1325C93.1643 21.3496 92.9826 21.5263 92.7655 21.5263H85.083C85.2748 23.4242 86.7033 25.1555 88.7123 25.1555C90.0852 25.1555 91.1049 24.6306 91.8721 23.5352C91.9832 23.3838 92.1497 23.2879 92.3617 23.3788C92.4778 23.4292 92.5586 23.5352 92.5788 23.6564C92.599 23.7826 92.5636 23.8532 92.5283 23.9239C91.756 25.2716 90.2165 25.9329 88.7072 25.9329C86.1228 25.9329 84.2804 23.621 84.2804 21.1477C84.2804 18.6743 86.1228 16.3625 88.7072 16.3625C91.2916 16.3574 93.1593 18.6642 93.1643 21.1325ZM92.3415 20.759C92.175 18.8611 90.7212 17.1297 88.7123 17.1297C86.7033 17.1297 85.2748 18.8611 85.083 20.759H92.3415ZM105.566 17.0035V25.3978C105.566 25.6199 105.375 25.7814 105.183 25.7814C104.961 25.7814 104.799 25.6149 104.799 25.3978V23.8028C104.168 25.0697 103.038 25.9733 101.609 25.9733C99.3275 25.9733 98.0605 23.9946 98.0605 21.9048V16.9833C98.0605 16.7915 98.2271 16.5997 98.4442 16.5997C98.6663 16.5997 98.8278 16.7915 98.8278 16.9833V21.9048C98.8278 23.5554 99.7616 25.206 101.604 25.206C104.188 25.206 104.794 22.7882 104.794 20.118V16.9833C104.794 16.7613 105.016 16.5341 105.289 16.6149C105.455 16.6704 105.566 16.8319 105.566 17.0035ZM125 20.4259V25.3473C125 25.5694 124.808 25.731 124.616 25.731C124.394 25.731 124.233 25.5644 124.233 25.3473V20.4259C124.233 18.7753 123.299 17.155 121.457 17.155C119.145 17.155 118.266 19.6283 118.266 21.5515V25.3473C118.266 25.5694 118.075 25.731 117.883 25.731C117.661 25.731 117.499 25.5644 117.499 25.3473V20.4259C117.499 18.7753 116.565 17.155 114.723 17.155C112.386 17.155 111.422 18.9974 111.508 21.4455C111.508 21.501 111.533 21.6121 111.508 21.6373V25.3372C111.508 25.524 111.381 25.6956 111.195 25.7259C110.937 25.7663 110.735 25.5896 110.735 25.3473V16.948C110.735 16.7613 110.861 16.5896 111.043 16.5593C111.301 16.519 111.503 16.6956 111.503 16.9379V18.3412C112.164 17.16 113.345 16.3877 114.718 16.3877C116.283 16.3877 117.494 17.3771 117.989 18.8358C118.62 17.4074 119.856 16.3877 121.451 16.3877C123.708 16.3877 125 18.3361 125 20.4259Z" fill="white"/>
</g>
<defs>
<clipPath id="clip0_1714_35471">
<rect width="125" height="33" fill="white"/>
</clipPath>
</defs>
</svg>
