<svg width="21" height="20" viewBox="0 0 21 20" fill="none" xmlns="http://www.w3.org/2000/svg">
<g id="Icons" clip-path="url(#clip0_1714_36872)">
<path id="Vector" d="M8.00833 11.6664H3C2.54166 11.6664 2.16666 12.0414 2.16666 12.4998C2.16666 12.9581 2.54166 13.3331 3 13.3331H8.00833V14.8248C8.00833 15.1998 8.45833 15.3831 8.71666 15.1164L11.0333 12.7914C11.1917 12.6248 11.1917 12.3664 11.0333 12.1998L8.71666 9.87478C8.45833 9.60812 8.00833 9.79978 8.00833 10.1664V11.6664ZM12.9917 9.82478V8.33311H18C18.4583 8.33311 18.8333 7.95811 18.8333 7.49978C18.8333 7.04145 18.4583 6.66645 18 6.66645H12.9917V5.17478C12.9917 4.79978 12.5417 4.61645 12.2833 4.88311L9.96666 7.20811C9.80833 7.37478 9.80833 7.63311 9.96666 7.79978L12.2833 10.1248C12.5417 10.3831 12.9917 10.1998 12.9917 9.82478Z" fill="#A8ABBA"/>
</g>
<defs>
<clipPath id="clip0_1714_36872">
<rect width="20" height="20" fill="white" transform="translate(0.5)"/>
</clipPath>
</defs>
</svg>
