<svg width="65" height="40" viewBox="0 0 65 40" fill="none" xmlns="http://www.w3.org/2000/svg">
<g id="Ask Mastercard Logo" clip-path="url(#clip0_1714_35289)">
<g id="Components---Sprint-3">
<g id="assets-/-logo-/-mastercard-/-symbol">
<path id="Fill-1" fill-rule="evenodd" clip-rule="evenodd" d="M23.4691 35.673H40.8658V4.27051H23.4691V35.673Z" fill="#FF5F00"/>
<path id="Fill-2" fill-rule="evenodd" clip-rule="evenodd" d="M24.5738 19.9712C24.5738 13.6004 27.5434 7.92634 32.1676 4.26995C28.7854 1.59548 24.5185 0 19.8805 0C8.90064 0 0.00012207 8.94154 0.00012207 19.9712C0.00012207 31.0008 8.90064 39.9424 19.8805 39.9424C24.5185 39.9424 28.7854 38.3469 32.1676 35.6724C27.5434 32.0155 24.5738 26.342 24.5738 19.9712Z" fill="#EB001B"/>
<path id="Fill-4" fill-rule="evenodd" clip-rule="evenodd" d="M63.7143 32.3467V31.5717H63.5127L63.2813 32.1048L63.0494 31.5717H62.8478V32.3467H62.9897V31.762L63.2073 32.2662H63.3548L63.5724 31.7608V32.3467H63.7143ZM62.438 32.3467V31.7037H62.6965V31.5728H62.0393V31.7037H62.2972V32.3467H62.438ZM64.3351 19.9712C64.3351 31.0008 55.434 39.9424 44.4547 39.9424C39.8167 39.9424 35.5492 38.3469 32.1676 35.6724C36.7918 32.016 39.7614 26.342 39.7614 19.9712C39.7614 13.6009 36.7918 7.9269 32.1676 4.26995C35.5492 1.59548 39.8167 0 44.4547 0C55.434 0 64.3351 8.94154 64.3351 19.9712Z" fill="#F79E1B"/>
</g>
</g>
</g>
<defs>
<clipPath id="clip0_1714_35289">
<rect width="65" height="40" fill="white"/>
</clipPath>
</defs>
</svg>
