<svg width="108" height="39" viewBox="0 0 108 39" fill="none" xmlns="http://www.w3.org/2000/svg">
<g id="Qiwi Logo" clip-path="url(#clip0_1714_35449)">
<g id="layer1">
<g id="g5493">
<path id="path5491" d="M71.6971 8.73814V26.4651C71.6986 26.53 71.6866 26.5945 71.6619 26.6548C71.6372 26.715 71.6003 26.7697 71.5533 26.8156C71.5063 26.8615 71.4503 26.8976 71.3887 26.9218C71.327 26.9459 71.261 26.9576 71.1946 26.9561H67.4943C67.4279 26.9576 67.3619 26.9459 67.3003 26.9218C67.2386 26.8976 67.1826 26.8615 67.1357 26.8156C67.0887 26.7697 67.0517 26.715 67.027 26.6548C67.0023 26.5945 66.9904 26.53 66.9919 26.4651V8.73814C66.9904 8.67326 67.0023 8.60875 67.027 8.54851C67.0517 8.48827 67.0887 8.43355 67.1357 8.38766C67.1826 8.34177 67.2386 8.30566 67.3003 8.28151C67.3619 8.25737 67.4279 8.24569 67.4943 8.24718H71.1946C71.261 8.24569 71.327 8.25737 71.3887 8.28151C71.4503 8.30566 71.5063 8.34177 71.5533 8.38766C71.6003 8.43355 71.6372 8.48827 71.6619 8.54851C71.6866 8.60875 71.6986 8.67326 71.6971 8.73814ZM100.58 8.24718C100.724 8.24718 100.904 8.317 101.083 8.45775C101.191 8.56249 101.191 8.73814 101.155 8.87888L95.0477 26.6408C95.0106 26.7327 94.9465 26.8118 94.8634 26.8681C94.7803 26.9244 94.682 26.9554 94.581 26.9572H91.2759C91.0604 26.9572 90.8807 26.8514 90.8092 26.6408L87.2507 16.2859L83.6945 26.6397C83.6574 26.7316 83.5933 26.8107 83.5102 26.867C83.4272 26.9234 83.3289 26.9543 83.2278 26.9561H79.9228C79.7073 26.9561 79.5275 26.8514 79.456 26.6397L73.3485 8.87779C73.3127 8.73814 73.3127 8.5974 73.4199 8.45775C73.4925 8.317 73.6723 8.24718 73.8152 8.24718H77.9465C78.162 8.24718 78.3417 8.38683 78.4143 8.5974L81.6825 19.0931L85.2756 8.5974C85.3126 8.50548 85.3767 8.42637 85.4598 8.37005C85.5429 8.31374 85.6412 8.28275 85.7423 8.281H88.652C88.8675 8.281 89.0473 8.38683 89.1188 8.5974L92.7118 19.0931L95.9811 8.5974C96.0104 8.49797 96.0716 8.41033 96.1556 8.3473C96.2395 8.28428 96.342 8.24919 96.4479 8.24718H100.579H100.58ZM106.831 8.24718C107.082 8.24718 107.297 8.45775 107.333 8.73814V26.4651C107.335 26.53 107.323 26.5945 107.298 26.6548C107.273 26.715 107.236 26.7697 107.189 26.8156C107.142 26.8615 107.086 26.8976 107.025 26.9218C106.963 26.9459 106.897 26.9576 106.831 26.9561H103.13C103.064 26.9576 102.998 26.9459 102.936 26.9218C102.875 26.8976 102.819 26.8615 102.772 26.8156C102.725 26.7697 102.688 26.715 102.663 26.6548C102.638 26.5945 102.626 26.53 102.628 26.4651V8.73814C102.626 8.67326 102.638 8.60875 102.663 8.54851C102.688 8.48827 102.725 8.43355 102.772 8.38766C102.819 8.34177 102.875 8.30566 102.936 8.28151C102.998 8.25737 103.064 8.24569 103.13 8.24718H106.831ZM64.8358 26.3255C65.0513 26.571 64.8715 26.9212 64.5477 26.9212H60.0212C59.9321 26.9235 59.8436 26.9058 59.7626 26.8692C59.6817 26.8327 59.6105 26.7784 59.5545 26.7106L58.8008 25.7985C57.2198 26.7804 55.3506 27.3783 53.3754 27.3783C47.844 27.3783 43.3532 22.9902 43.3532 17.5842C43.3532 12.1781 47.844 7.79004 53.3754 7.79004C58.908 7.79004 63.3988 12.1781 63.3988 17.5842C63.3988 19.5153 62.8238 21.3406 61.8178 22.8844L64.8358 26.3244V26.3255ZM55.8542 22.3934L53.8779 20.0412C53.6635 19.7957 53.8433 19.4095 54.166 19.4095H58.333C58.5485 18.8476 58.6568 18.2159 58.6568 17.5842C58.6568 14.6711 56.4292 12.1432 53.3754 12.1432C50.3228 12.1432 48.0941 14.6711 48.0941 17.5842C48.0941 20.4972 50.3228 22.9902 53.3754 22.9902C54.2374 23.0251 55.1005 22.7796 55.8542 22.3934Z" fill="#FF8C00"/>
<path id="path5491_2" d="M30.8387 24.6678C31.497 24.9173 31.7502 25.8889 31.8006 26.3127C31.902 27.086 31.6747 27.3851 31.4215 27.3851C31.1682 27.3851 30.8135 27.086 30.4344 26.4879C30.0545 25.8889 29.9027 25.2164 30.1057 24.867C30.2315 24.6423 30.5099 24.5431 30.8395 24.6678H30.8387ZM26.9927 27.485C27.3977 27.485 27.8531 27.6594 28.2582 28.008C29.0423 28.6565 29.2704 29.4042 28.8653 29.9528C28.6373 30.2271 28.2582 30.4014 27.8279 30.4014C27.3977 30.4014 26.9423 30.2519 26.6388 29.9776C25.9301 29.3794 25.728 28.3815 26.1826 27.8337C26.3603 27.609 26.6388 27.485 26.9927 27.485ZM18.1366 34.6892C8.52004 34.6892 0.726562 27.0108 0.726562 17.5381C0.726562 8.06526 8.52082 0.387695 18.1358 0.387695C27.7517 0.387695 35.5459 8.06603 35.5459 17.5381C35.5459 20.7535 34.6351 23.7706 33.092 26.3383C33.0409 26.4127 32.9143 26.3879 32.8891 26.288C32.2819 22.0753 29.6754 19.7563 25.8798 19.059C25.5502 19.0086 25.4999 18.8095 25.9301 18.7599C27.0941 18.66 28.7387 18.6848 29.5992 18.8343C29.6495 18.4105 29.6754 17.9619 29.6754 17.5133C29.6754 11.2559 24.5128 6.17008 18.161 6.17008C11.81 6.17008 6.64737 11.2559 6.64737 17.5133C6.64737 23.7706 11.81 28.8564 18.1618 28.8564H18.6927C18.5123 27.8443 18.4359 26.8169 18.4646 25.7897C18.4906 25.0916 18.6424 24.9917 18.9459 25.5403C20.5402 28.2575 22.8179 30.7005 27.2711 31.6729C30.915 32.4709 34.5589 33.3929 38.4812 38.3037C38.8351 38.7275 38.3042 39.1761 37.8991 38.8274C33.9013 35.3369 30.2575 34.1902 26.9423 34.1902C23.2222 34.2158 20.692 34.6892 18.1358 34.6892H18.1366Z" fill="#FF8C00"/>
</g>
</g>
</g>
<defs>
<clipPath id="clip0_1714_35449">
<rect width="107" height="39" fill="white" transform="translate(0.333313)"/>
</clipPath>
</defs>
</svg>
