<svg width="117" height="40" viewBox="0 0 117 40" fill="none" xmlns="http://www.w3.org/2000/svg">
<g clip-path="url(#clip0_1714_35439)">
<rect width="40" height="40" rx="20" fill="url(#paint0_linear_1714_35439)"/>
<mask id="mask0_1714_35439" style="mask-type:alpha" maskUnits="userSpaceOnUse" x="0" y="0" width="40" height="40">
<rect width="40" height="40" rx="20" fill="url(#paint1_linear_1714_35439)"/>
</mask>
<g mask="url(#mask0_1714_35439)">
<path d="M18.9561 14.9908C18.9561 15.0244 18.9561 15.0581 18.9578 15.0896L14.0606 22.199C13.2673 22.163 12.4713 22.302 11.7165 22.6127C11.3837 22.7484 11.072 22.9149 10.7794 23.1072L-0.3127 18.5936C-0.3127 18.5936 -1.558 22.3676 -0.521032 25.4165L8.41618 28.9578C8.79788 30.6625 9.96807 32.1578 11.6945 32.8771C14.5191 34.0565 17.776 32.7123 18.951 29.8883C19.2568 29.1501 19.3993 28.3758 19.3787 27.6033L26.3858 22.599C26.4425 22.6007 26.5009 22.6024 26.5576 22.6024C30.7508 22.6024 34.159 19.1861 34.159 14.9908C34.159 10.7951 30.7508 7.38184 26.5576 7.38184C22.366 7.38184 18.9561 10.7951 18.9561 14.9908ZM17.7811 29.3973C16.8717 31.5793 14.3626 32.6145 12.1817 31.7063C11.1755 31.2874 10.4159 30.52 9.97769 29.605L12.4522 30.6299C14.0606 31.2994 15.9059 30.5372 16.5745 28.9303C17.2452 27.3218 16.4843 25.4745 14.8768 24.805L12.3188 23.7458C13.3058 23.3715 14.4279 23.3578 15.4763 23.7939C16.5333 24.2333 17.3534 25.0608 17.788 26.1183C18.2226 27.1758 18.2209 28.3432 17.7811 29.3973ZM26.5576 20.0617C23.7661 20.0617 21.4934 17.787 21.4934 14.9908C21.4934 12.1968 23.7661 9.92141 26.5576 9.92141C29.3508 9.92141 31.6235 12.1968 31.6235 14.9908C31.6235 17.787 29.3508 20.0617 26.5576 20.0617ZM22.7629 14.983C22.7629 12.8795 24.467 11.1734 26.5661 11.1734C28.6671 11.1734 30.3712 12.8795 30.3712 14.983C30.3712 17.0867 28.6671 18.7913 26.5661 18.7913C24.467 18.7913 22.7629 17.0867 22.7629 14.983Z" fill="white"/>
</g>
</g>
<path d="M60.02 19.76C57.9133 19.76 56.1667 19.0667 54.78 17.68C53.3933 16.28 52.7 14.5533 52.7 12.5C52.7 10.4467 53.3933 8.72667 54.78 7.34C56.1667 5.94 57.9133 5.24 60.02 5.24C61.2867 5.24 62.4533 5.54 63.52 6.14C64.6 6.74 65.44 7.55333 66.04 8.58L64.04 9.74C63.6667 9.04667 63.12 8.5 62.4 8.1C61.6933 7.68667 60.9 7.48 60.02 7.48C58.5267 7.48 57.3133 7.95333 56.38 8.9C55.46 9.84667 55 11.0467 55 12.5C55 13.9533 55.46 15.1533 56.38 16.1C57.3133 17.0467 58.5267 17.52 60.02 17.52C60.9 17.52 61.7 17.32 62.42 16.92C63.14 16.5067 63.68 15.9533 64.04 15.26L66.04 16.4C65.4533 17.4267 64.62 18.2467 63.54 18.86C62.4733 19.46 61.3 19.76 60.02 19.76ZM73.0108 19.76C71.6641 19.76 70.5174 19.4533 69.5708 18.84C68.6374 18.2267 67.9841 17.3867 67.6108 16.32L69.5908 15.16C70.1508 16.7333 71.3108 17.52 73.0708 17.52C73.9374 17.52 74.5841 17.3533 75.0108 17.02C75.4508 16.6733 75.6708 16.2267 75.6708 15.68C75.6708 15.1067 75.4374 14.6733 74.9708 14.38C74.5041 14.0733 73.6774 13.74 72.4908 13.38C71.8241 13.18 71.2841 12.9933 70.8708 12.82C70.4574 12.6467 70.0174 12.4067 69.5508 12.1C69.0974 11.78 68.7574 11.3867 68.5308 10.92C68.3041 10.4533 68.1908 9.90667 68.1908 9.28C68.1908 8.04 68.6308 7.06 69.5108 6.34C70.3908 5.60667 71.4508 5.24 72.6908 5.24C73.8108 5.24 74.7908 5.51333 75.6308 6.06C76.4708 6.60667 77.1174 7.36 77.5708 8.32L75.6308 9.44C75.0441 8.13333 74.0641 7.48 72.6908 7.48C72.0241 7.48 71.4908 7.64 71.0908 7.96C70.6908 8.26667 70.4908 8.68667 70.4908 9.22C70.4908 9.74 70.6908 10.1533 71.0908 10.46C71.5041 10.7533 72.2441 11.0667 73.3108 11.4C73.8441 11.5733 74.2308 11.7067 74.4708 11.8C74.7241 11.88 75.0708 12.0133 75.5108 12.2C75.9641 12.3867 76.3041 12.5733 76.5308 12.76C76.7574 12.9467 76.9974 13.18 77.2508 13.46C77.5174 13.74 77.7041 14.06 77.8108 14.42C77.9174 14.78 77.9708 15.1867 77.9708 15.64C77.9708 16.9067 77.5108 17.9133 76.5908 18.66C75.6841 19.3933 74.4908 19.76 73.0108 19.76ZM82.3966 11.8C82.1032 12.0933 81.7499 12.24 81.3366 12.24C80.9232 12.24 80.5699 12.0933 80.2766 11.8C79.9832 11.5067 79.8366 11.1533 79.8366 10.74C79.8366 10.3133 79.9766 9.96 80.2566 9.68C80.5499 9.38667 80.9099 9.24 81.3366 9.24C81.7499 9.24 82.1032 9.38667 82.3966 9.68C82.6899 9.97333 82.8366 10.3267 82.8366 10.74C82.8366 11.1533 82.6899 11.5067 82.3966 11.8ZM82.3966 19.3C82.1032 19.5933 81.7499 19.74 81.3366 19.74C80.9232 19.74 80.5699 19.5933 80.2766 19.3C79.9832 19.0067 79.8366 18.6533 79.8366 18.24C79.8366 17.8267 79.9766 17.4733 80.2566 17.18C80.5499 16.8867 80.9099 16.74 81.3366 16.74C81.7499 16.74 82.1032 16.8867 82.3966 17.18C82.6899 17.4733 82.8366 17.8267 82.8366 18.24C82.8366 18.6533 82.6899 19.0067 82.3966 19.3ZM99.2942 12.26V13.22C99.2942 15.14 98.6609 16.7133 97.3942 17.94C96.1276 19.1533 94.4742 19.76 92.4342 19.76C90.2742 19.76 88.4876 19.06 87.0742 17.66C85.6742 16.26 84.9742 14.54 84.9742 12.5C84.9742 10.4733 85.6742 8.76 87.0742 7.36C88.4876 5.94667 90.2342 5.24 92.3142 5.24C93.6209 5.24 94.8142 5.54 95.8942 6.14C96.9742 6.74 97.8142 7.54667 98.4142 8.56L96.4342 9.7C96.0609 9.03333 95.5076 8.5 94.7742 8.1C94.0409 7.68667 93.2209 7.48 92.3142 7.48C90.8476 7.48 89.6409 7.96 88.6942 8.92C87.7476 9.88 87.2742 11.08 87.2742 12.52C87.2742 13.96 87.7476 15.1533 88.6942 16.1C89.6542 17.0467 90.9076 17.52 92.4542 17.52C93.6942 17.52 94.7009 17.2333 95.4742 16.66C96.2609 16.0733 96.7609 15.2933 96.9742 14.32H92.2942V12.26H99.2942ZM113.497 17.66C112.097 19.06 110.384 19.76 108.357 19.76C106.33 19.76 104.61 19.06 103.197 17.66C101.797 16.2467 101.097 14.5267 101.097 12.5C101.097 10.4733 101.797 8.76 103.197 7.36C104.61 5.94667 106.33 5.24 108.357 5.24C110.384 5.24 112.097 5.94667 113.497 7.36C114.91 8.76 115.617 10.4733 115.617 12.5C115.617 14.5267 114.91 16.2467 113.497 17.66ZM104.817 16.1C105.777 17.0467 106.957 17.52 108.357 17.52C109.757 17.52 110.93 17.0467 111.877 16.1C112.837 15.14 113.317 13.94 113.317 12.5C113.317 11.06 112.837 9.86667 111.877 8.92C110.93 7.96 109.757 7.48 108.357 7.48C106.957 7.48 105.777 7.96 104.817 8.92C103.87 9.86667 103.397 11.06 103.397 12.5C103.397 13.94 103.87 15.14 104.817 16.1Z" fill="#EAECF2"/>
<path d="M70.474 30.39C70.474 30.6607 70.6093 30.88 70.88 31.048C71.1507 31.2067 71.4773 31.3373 71.86 31.44C72.2427 31.5333 72.6253 31.6453 73.008 31.776C73.3907 31.8973 73.7173 32.112 73.988 32.42C74.2587 32.7187 74.394 33.106 74.394 33.582C74.394 34.2167 74.1467 34.7253 73.652 35.108C73.1667 35.4907 72.5413 35.682 71.776 35.682C71.0947 35.682 70.5113 35.5327 70.026 35.234C69.5407 34.9353 69.1953 34.5387 68.99 34.044L70.04 33.442C70.152 33.778 70.362 34.044 70.67 34.24C70.978 34.436 71.3467 34.534 71.776 34.534C72.1773 34.534 72.5087 34.4593 72.77 34.31C73.0313 34.1513 73.162 33.9087 73.162 33.582C73.162 33.3113 73.0267 33.0967 72.756 32.938C72.4853 32.77 72.1587 32.6393 71.776 32.546C71.3933 32.4433 71.0107 32.3267 70.628 32.196C70.2453 32.0653 69.9187 31.8507 69.648 31.552C69.3773 31.2533 69.242 30.8707 69.242 30.404C69.242 29.7973 69.4753 29.298 69.942 28.906C70.418 28.514 71.0107 28.318 71.72 28.318C72.2893 28.318 72.7933 28.4487 73.232 28.71C73.68 28.962 74.016 29.3167 74.24 29.774L73.218 30.348C72.966 29.7507 72.4667 29.452 71.72 29.452C71.3747 29.452 71.0807 29.536 70.838 29.704C70.5953 29.8627 70.474 30.0913 70.474 30.39ZM81.9698 35.5H80.4578L77.2658 32.182V35.5H76.0478V25.7H77.2658V31.594L80.2898 28.5H81.8578L78.5118 31.888L81.9698 35.5ZM83.9984 27.226C83.7651 27.226 83.5691 27.1467 83.4104 26.988C83.2518 26.8293 83.1724 26.638 83.1724 26.414C83.1724 26.19 83.2518 25.9987 83.4104 25.84C83.5691 25.672 83.7651 25.588 83.9984 25.588C84.2224 25.588 84.4138 25.672 84.5724 25.84C84.7311 25.9987 84.8104 26.19 84.8104 26.414C84.8104 26.638 84.7311 26.8293 84.5724 26.988C84.4138 27.1467 84.2224 27.226 83.9984 27.226ZM83.3824 35.5V28.5H84.6004V35.5H83.3824ZM90.2246 28.318C91.0459 28.318 91.7039 28.5793 92.1986 29.102C92.6933 29.6153 92.9406 30.3153 92.9406 31.202V35.5H91.7226V31.272C91.7226 30.7027 91.5686 30.264 91.2606 29.956C90.9526 29.6387 90.5279 29.48 89.9866 29.48C89.3799 29.48 88.8899 29.6713 88.5166 30.054C88.1433 30.4273 87.9566 31.006 87.9566 31.79V35.5H86.7386V28.5H87.9566V29.508C88.4513 28.7147 89.2073 28.318 90.2246 28.318ZM95.971 30.39C95.971 30.6607 96.1063 30.88 96.377 31.048C96.6476 31.2067 96.9743 31.3373 97.357 31.44C97.7396 31.5333 98.1223 31.6453 98.505 31.776C98.8876 31.8973 99.2143 32.112 99.485 32.42C99.7556 32.7187 99.891 33.106 99.891 33.582C99.891 34.2167 99.6436 34.7253 99.149 35.108C98.6636 35.4907 98.0383 35.682 97.273 35.682C96.5916 35.682 96.0083 35.5327 95.523 35.234C95.0376 34.9353 94.6923 34.5387 94.487 34.044L95.537 33.442C95.649 33.778 95.859 34.044 96.167 34.24C96.475 34.436 96.8436 34.534 97.273 34.534C97.6743 34.534 98.0056 34.4593 98.267 34.31C98.5283 34.1513 98.659 33.9087 98.659 33.582C98.659 33.3113 98.5236 33.0967 98.253 32.938C97.9823 32.77 97.6556 32.6393 97.273 32.546C96.8903 32.4433 96.5076 32.3267 96.125 32.196C95.7423 32.0653 95.4156 31.8507 95.145 31.552C94.8743 31.2533 94.739 30.8707 94.739 30.404C94.739 29.7973 94.9723 29.298 95.439 28.906C95.915 28.514 96.5076 28.318 97.217 28.318C97.7863 28.318 98.2903 28.4487 98.729 28.71C99.177 28.962 99.513 29.3167 99.737 29.774L98.715 30.348C98.463 29.7507 97.9636 29.452 97.217 29.452C96.8716 29.452 96.5776 29.536 96.335 29.704C96.0923 29.8627 95.971 30.0913 95.971 30.39Z" fill="#EAECF2"/>
<defs>
<linearGradient id="paint0_linear_1714_35439" x1="20" y1="0" x2="20" y2="40" gradientUnits="userSpaceOnUse">
<stop stop-color="#111D2E"/>
<stop offset="0.21248" stop-color="#051839"/>
<stop offset="0.40695" stop-color="#0A1B48"/>
<stop offset="0.5811" stop-color="#132E62"/>
<stop offset="0.7376" stop-color="#144B7E"/>
<stop offset="0.87279" stop-color="#136497"/>
<stop offset="1" stop-color="#1387B8"/>
</linearGradient>
<linearGradient id="paint1_linear_1714_35439" x1="20" y1="0" x2="20" y2="40" gradientUnits="userSpaceOnUse">
<stop stop-color="#111D2E"/>
<stop offset="0.21248" stop-color="#051839"/>
<stop offset="0.40695" stop-color="#0A1B48"/>
<stop offset="0.5811" stop-color="#132E62"/>
<stop offset="0.7376" stop-color="#144B7E"/>
<stop offset="0.87279" stop-color="#136497"/>
<stop offset="1" stop-color="#1387B8"/>
</linearGradient>
<clipPath id="clip0_1714_35439">
<rect width="40" height="40" fill="white"/>
</clipPath>
</defs>
</svg>
