<svg width="100" height="32" viewBox="0 0 100 32" fill="none" xmlns="http://www.w3.org/2000/svg">
<g id="Visa Inc. Logo">
<path id="path3789" d="M64.1642 0C57.4405 0 51.4318 3.51359 51.4318 10.0052C51.4318 17.4499 62.0884 17.9641 62.0884 21.7041C62.0884 23.2788 60.2984 24.6885 57.2411 24.6885C52.9023 24.6885 49.6594 22.7188 49.6594 22.7188L48.2718 29.2695C48.2718 29.2695 52.0075 30.9333 56.9673 30.9333C64.3185 30.9333 70.103 27.2472 70.103 20.6446C70.103 12.778 59.402 12.2791 59.402 8.80772C59.402 7.57412 60.8715 6.22248 63.92 6.22248C67.3596 6.22248 70.1659 7.65499 70.1659 7.65499L71.5239 1.32806C71.5239 1.32806 68.4704 0 64.1642 0ZM2.64828 0.477505L2.48547 1.43251C2.48547 1.43251 5.31417 1.95445 7.86187 2.99559C11.1423 4.18948 11.3759 4.8845 11.9284 7.04319L17.9486 30.4409H26.0188L38.4515 0.477505H30.3998L22.4111 20.8498L19.1512 3.58128C18.8522 1.60492 17.3379 0.477505 15.4843 0.477505H2.64828ZM41.6892 0.477505L35.3729 30.4409H43.0508L49.3449 0.477505H41.6892ZM84.5116 0.477505C82.6602 0.477505 81.6793 1.47684 80.9594 3.22315L69.7108 30.4409H77.7625L79.3202 25.9046H89.1295L90.0767 30.4409H97.1811L90.9833 0.477505H84.5116ZM85.5588 8.5727L87.9454 19.8164H81.5515L85.5588 8.5727Z" fill="white"/>
</g>
</svg>
