<svg width="14" height="15" viewBox="0 0 14 15" fill="none" xmlns="http://www.w3.org/2000/svg">
<g id="gaming" clip-path="url(#clip0_1621_28853)">
<path id="Vector" d="M2.33744 13.7423H0.5V12.3642C0.5 10.081 2.35097 8.22998 4.63425 8.22998C4.78952 8.22998 4.94279 8.23854 5.09361 8.25521M10.8523 13.0779L10.9548 13.3853C11.1325 13.9188 11.6317 14.2787 12.1939 14.2787C12.9724 14.2787 13.578 13.6018 13.4921 12.8279L13.2903 11.0117C13.1552 9.79555 12.1276 8.87549 10.9043 8.87549H7.99145C6.76815 8.87549 5.74048 9.79555 5.60539 11.0117L5.40365 12.8279C5.31768 13.6018 5.92333 14.2787 6.70182 14.2787C7.26403 14.2787 7.76316 13.9188 7.94095 13.3853L8.04337 13.0779C8.16284 12.7194 8.49827 12.4776 8.87608 12.4776H10.0196C10.3974 12.4776 10.7329 12.7194 10.8523 13.0779ZM5.09369 6.2816C6.36218 6.2816 7.39048 5.25328 7.39048 3.98479C7.39048 2.7163 6.36218 1.68799 5.09369 1.68799C3.8252 1.68799 2.79688 2.7163 2.79688 3.98479C2.79688 5.25328 3.8252 6.2816 5.09369 6.2816Z" stroke="#ED7753" stroke-linecap="round" stroke-linejoin="round"/>
</g>
<defs>
<clipPath id="clip0_1621_28853">
<rect width="14" height="14" fill="white" transform="translate(0 0.983398)"/>
</clipPath>
</defs>
</svg>
