<svg width="38" height="22" viewBox="0 0 38 22" fill="none" xmlns="http://www.w3.org/2000/svg">
<path d="M10.91 21.92C7.75 21.92 5.14 20.87 3.08 18.77C1.02 16.67 -0.01 14.08 -0.01 11C-0.01 7.9 1.02 5.31 3.08 3.23C5.14 1.13 7.75 0.0799986 10.91 0.0799986C12.81 0.0799986 14.56 0.529999 16.16 1.43C17.78 2.31 19.04 3.51 19.94 5.03L16.37 7.1C15.85 6.16 15.11 5.43 14.15 4.91C13.19 4.37 12.11 4.1 10.91 4.1C8.87 4.1 7.22 4.74 5.96 6.02C4.72 7.3 4.1 8.96 4.1 11C4.1 13.02 4.72 14.67 5.96 15.95C7.22 17.23 8.87 17.87 10.91 17.87C12.11 17.87 13.19 17.61 14.15 17.09C15.13 16.55 15.87 15.82 16.37 14.9L19.94 16.97C19.04 18.49 17.79 19.7 16.19 20.6C14.59 21.48 12.83 21.92 10.91 21.92ZM29.6532 21.92C27.5732 21.92 25.8232 21.46 24.4032 20.54C22.9832 19.6 21.9832 18.33 21.4032 16.73L24.9432 14.66C25.7632 16.8 27.3732 17.87 29.7732 17.87C30.9332 17.87 31.7832 17.66 32.3232 17.24C32.8632 16.82 33.1332 16.29 33.1332 15.65C33.1332 14.91 32.8032 14.34 32.1432 13.94C31.4832 13.52 30.3032 13.07 28.6032 12.59C27.6632 12.31 26.8632 12.03 26.2032 11.75C25.5632 11.47 24.9132 11.1 24.2532 10.64C23.6132 10.16 23.1232 9.56 22.7832 8.84C22.4432 8.12 22.2732 7.28 22.2732 6.32C22.2732 4.42 22.9432 2.91 24.2832 1.79C25.6432 0.649999 27.2732 0.0799986 29.1732 0.0799986C30.8732 0.0799986 32.3632 0.499999 33.6432 1.34C34.9432 2.16 35.9532 3.31 36.6732 4.79L33.1932 6.8C32.3532 5 31.0132 4.1 29.1732 4.1C28.3132 4.1 27.6332 4.3 27.1332 4.7C26.6532 5.08 26.4132 5.58 26.4132 6.2C26.4132 6.86 26.6832 7.4 27.2232 7.82C27.7832 8.22 28.8432 8.66 30.4032 9.14C31.0432 9.34 31.5232 9.5 31.8432 9.62C32.1832 9.72 32.6332 9.89 33.1932 10.13C33.7732 10.35 34.2132 10.56 34.5132 10.76C34.8332 10.96 35.1932 11.23 35.5932 11.57C35.9932 11.91 36.2932 12.26 36.4932 12.62C36.7132 12.98 36.8932 13.42 37.0332 13.94C37.1932 14.44 37.2732 14.99 37.2732 15.59C37.2732 17.53 36.5632 19.07 35.1432 20.21C33.7432 21.35 31.9132 21.92 29.6532 21.92Z" fill="#FCFCFD"/>
</svg>
