<svg width="14" height="15" viewBox="0 0 14 15" fill="none" xmlns="http://www.w3.org/2000/svg">
<g id="US">
<g id="Vector">
<path d="M12.6667 2.9834H1.33333C0.596954 2.9834 0 3.58035 0 4.31673V11.6501C0 11.8929 0.0649297 12.1206 0.178377 12.3167C0.408916 12.7153 0.839812 12.9834 1.33333 12.9834H12.6667C13.1602 12.9834 13.5911 12.7153 13.8216 12.3167C13.9351 12.1206 14 11.8929 14 11.6501V4.31673C14 4.07387 13.9351 3.84618 13.8216 3.65007C13.5911 3.25153 13.1602 2.9834 12.6667 2.9834Z" fill="white"/>
<path fill-rule="evenodd" clip-rule="evenodd" d="M0.398851 3.36648C0.629569 3.13511 0.976119 2.9834 1.33333 2.9834C1.79253 2.9834 6 2.9834 6 2.9834V7.65007H0C0 7.65007 0.000136778 4.90527 0 4.31673C0 3.90527 0.149663 3.61638 0.398851 3.36648Z" fill="#444379"/>
<path fill-rule="evenodd" clip-rule="evenodd" d="M0.666667 3.65007V4.31673H1.33333V3.65007H0.666667ZM2 3.65007V4.31673H2.66667V3.65007H2ZM3.33333 3.65007V4.31673H4V3.65007H3.33333ZM4.66667 3.65007V4.31673H5.33333V3.65007H4.66667ZM4 4.31673V4.9834H4.66667V4.31673H4ZM2.66667 4.31673V4.9834H3.33333V4.31673H2.66667ZM1.33333 4.31673V4.9834H2V4.31673H1.33333ZM0.666667 4.9834V5.65006H1.33333V4.9834H0.666667ZM2 4.9834V5.65006H2.66667V4.9834H2ZM3.33333 4.9834V5.65006H4V4.9834H3.33333ZM4.66667 4.9834V5.65006H5.33333V4.9834H4.66667ZM0.666667 6.31673V6.9834H1.33333V6.31673H0.666667ZM2 6.31673V6.9834H2.66667V6.31673H2ZM3.33333 6.31673V6.9834H4V6.31673H3.33333ZM4.66667 6.31673V6.9834H5.33333V6.31673H4.66667ZM4 5.65006V6.31673H4.66667V5.65006H4ZM2.66667 5.65006V6.31673H3.33333V5.65006H2.66667ZM1.33333 5.65006V6.31673H2V5.65006H1.33333Z" fill="#A7B6E7"/>
<path fill-rule="evenodd" clip-rule="evenodd" d="M6 3.65007V2.9834H12.6667C13.1602 2.9834 13.5911 3.25153 13.8216 3.65007H6ZM6 4.9834V4.31673H14V4.9834H6ZM6 6.31673V5.65006H14V6.31673H6ZM6 7.65007V6.9834H14V7.65007L6 7.65007ZM0 8.9834V8.31674H14V8.9834H0ZM0 10.3167V9.65007H14V10.3167H0ZM0 11.6501V10.9834H14V11.6501H0ZM12.6667 12.9834H1.33333C0.839812 12.9834 0.408916 12.7153 0.178377 12.3167H13.8216C13.5911 12.7153 13.1602 12.9834 12.6667 12.9834Z" fill="#ED4C49"/>
</g>
</g>
</svg>
