<svg width="120" height="50" viewBox="0 0 120 50" fill="none" xmlns="http://www.w3.org/2000/svg">
<g id="Payment systems">
<g id="Vector">
<path d="M36.3398 27.1858C34.6895 33.6746 27.9852 37.6236 21.365 36.0055C14.7475 34.3877 10.719 27.8153 12.3701 21.3268C14.0196 14.8372 20.724 10.8877 27.3422 12.5055C33.962 14.1232 37.9901 20.6966 36.3398 27.1858Z" fill="#F7931A"/>
<path d="M29.8029 22.5301C30.0488 20.9184 28.797 20.052 27.0853 19.474L27.6405 17.2907L26.2848 16.9595L25.7442 19.0853C25.3879 18.9982 25.0218 18.9161 24.6581 18.8347L25.2025 16.6949L23.8476 16.3637L23.2919 18.5463C22.9969 18.4804 22.7073 18.4153 22.4262 18.3468L22.4278 18.34L20.5581 17.8824L20.1975 19.3018C20.1975 19.3018 21.2034 19.5277 21.1821 19.5418C21.7312 19.6761 21.8304 20.0323 21.8138 20.3147L21.1814 22.8019C21.2192 22.8114 21.2682 22.825 21.3223 22.8462C21.2771 22.8352 21.2289 22.823 21.179 22.8114L20.2925 26.2956C20.2253 26.4591 20.055 26.7043 19.6712 26.6113C19.6847 26.6306 18.6858 26.3701 18.6858 26.3701L18.0128 27.8914L19.777 28.3225C20.1052 28.4031 20.4269 28.4875 20.7435 28.5671L20.1824 30.7753L21.5366 31.1065L22.0922 28.9217C22.4622 29.0201 22.8213 29.111 23.1726 29.1965L22.6189 31.3711L23.9746 31.7023L24.5357 29.4981C26.8474 29.9271 28.5858 29.754 29.3175 27.7044C29.9071 26.054 29.2881 25.1021 28.0718 24.4814C28.9576 24.2811 29.6248 23.7099 29.8029 22.5301ZM26.7053 26.788C26.2864 28.4383 23.4518 27.5462 22.5328 27.3225L23.2773 24.397C24.1963 24.6218 27.1432 25.0669 26.7053 26.788ZM27.1247 22.5063C26.7424 24.0075 24.3831 23.2447 23.6178 23.0577L24.2928 20.4044C25.0581 20.5914 27.5228 20.9404 27.1247 22.5063Z" fill="white"/>
<path d="M49.3152 20.8957C50.0189 20.8957 50.6268 21.0193 51.1377 21.2621C51.651 21.5072 52.0746 21.8374 52.4143 22.2525C52.7495 22.6699 52.999 23.1577 53.16 23.7169C53.32 24.2775 53.4003 24.8802 53.4003 25.5254C53.4003 26.5165 53.2151 27.4528 52.8411 28.3354C52.4672 29.2194 51.9599 29.9861 51.3145 30.64C50.6697 31.2932 49.9082 31.8081 49.0302 32.1886C48.1535 32.5693 47.2004 32.7596 46.177 32.7596C46.0447 32.7596 45.812 32.7559 45.4834 32.7493C45.1547 32.7426 44.777 32.7094 44.354 32.6533C43.9282 32.5951 43.4781 32.5089 43.0028 32.3935C42.5277 32.2803 42.0765 32.1216 41.6516 31.9201L45.4511 16.268L48.8542 15.751L47.4938 21.3054C47.785 21.1767 48.0784 21.077 48.3713 21.0044C48.6644 20.9329 48.9789 20.8957 49.3152 20.8957ZM46.4606 30.1128C46.9731 30.1128 47.4561 29.9892 47.9097 29.7466C48.3648 29.5035 48.7574 29.1755 49.0863 28.7669C49.4153 28.3564 49.6756 27.8941 49.8654 27.3776C50.0552 26.8611 50.1512 26.3222 50.1512 25.7615C50.1512 25.0726 50.0338 24.5354 49.7998 24.147C49.5657 23.7602 49.1327 23.5656 48.5039 23.5656C48.2978 23.5656 48.0323 23.6041 47.7031 23.6729C47.3728 23.7461 47.0773 23.8979 46.8123 24.1263L45.3638 30.0249C45.4511 30.04 45.5284 30.0544 45.5943 30.0679C45.6588 30.0826 45.7301 30.0929 45.8012 30.1001C45.8763 30.1083 45.9622 30.1126 46.0661 30.1126C46.17 30.1126 46.2998 30.1128 46.4606 30.1128Z" fill="white"/>
<path d="M56.9294 32.4611H53.679L56.424 21.1368H59.6967L56.9294 32.4611ZM58.5111 19.757C58.0575 19.757 57.6461 19.6246 57.2811 19.3593C56.9132 19.0956 56.7309 18.6896 56.7309 18.1425C56.7309 17.8416 56.7933 17.5592 56.917 17.2928C57.0425 17.0271 57.2066 16.7981 57.4121 16.6035C57.6174 16.4105 57.8552 16.2564 58.1253 16.1402C58.397 16.0259 58.686 15.9687 58.9941 15.9687C59.4475 15.9687 59.8566 16.1011 60.223 16.3664C60.588 16.633 60.7716 17.039 60.7716 17.5831C60.7716 17.8852 60.7095 18.1685 60.5847 18.4344C60.4608 18.7003 60.2967 18.9291 60.0912 19.1237C59.8876 19.3171 59.6476 19.4707 59.378 19.5858C59.1061 19.702 58.8181 19.757 58.5111 19.757Z" fill="white"/>
<path d="M62.5454 18.315L65.9499 17.7979L65.1139 21.1359H68.76L68.1016 23.762H64.4775L63.5121 27.723C63.4232 28.0532 63.3727 28.3617 63.3586 28.6482C63.3426 28.9362 63.3798 29.1833 63.4676 29.3916C63.555 29.6002 63.712 29.7611 63.9397 29.8748C64.1664 29.9905 64.491 30.0487 64.9167 30.0487C65.2674 30.0487 65.609 30.016 65.9393 29.9512C66.2677 29.8874 66.6004 29.7985 66.9372 29.6824L67.1796 32.1377C66.7403 32.2957 66.2647 32.4315 65.7522 32.5458C65.2389 32.6618 64.6312 32.7175 63.9289 32.7175C62.9191 32.7175 62.1362 32.5705 61.5784 32.2778C61.0215 31.983 60.6277 31.5803 60.3921 31.0704C60.1597 30.5624 60.0559 29.9767 60.0849 29.3169C60.115 28.6554 60.2167 27.9602 60.3921 27.228L62.5454 18.315Z" fill="white"/>
<path d="M68.6166 27.9376C68.6166 26.9623 68.7777 26.0425 69.0995 25.1814C69.4209 24.3195 69.8837 23.5658 70.4844 22.919C71.0828 22.2754 71.812 21.7655 72.6702 21.3912C73.5244 21.019 74.4808 20.8313 75.5348 20.8313C76.1945 20.8313 76.7838 20.8925 77.3022 21.015C77.8229 21.1386 78.2939 21.2984 78.7199 21.4988L77.5989 23.9978C77.306 23.8814 77.0021 23.7787 76.6878 23.6857C76.3732 23.5908 75.9893 23.5451 75.5351 23.5451C74.4501 23.5451 73.5924 23.9117 72.9541 24.6426C72.3182 25.3738 71.998 26.3582 71.998 27.5931C71.998 28.325 72.1591 28.9168 72.4823 29.3695C72.8039 29.8223 73.398 30.0475 74.2606 30.0475C74.6863 30.0475 75.0971 30.0038 75.4906 29.9188C75.887 29.8326 76.2371 29.7242 76.5454 29.5961L76.7881 32.1577C76.377 32.314 75.9236 32.4552 75.4263 32.5788C74.9279 32.6982 74.3346 32.7602 73.6467 32.7602C72.7385 32.7602 71.9698 32.6299 71.341 32.3733C70.7119 32.1128 70.192 31.767 69.7826 31.3288C69.371 30.8896 69.0754 30.3769 68.8926 29.7882C68.7099 29.2002 68.6166 28.5824 68.6166 27.9376Z" fill="white"/>
<path d="M83.0561 32.7602C82.2803 32.7602 81.6064 32.6442 81.0348 32.4148C80.4648 32.1854 79.9927 31.8634 79.6194 31.4461C79.2454 31.0308 78.9656 30.5387 78.7739 29.9717C78.5822 29.4049 78.49 28.7773 78.49 28.0895C78.49 27.2268 78.6312 26.3644 78.9168 25.5044C79.201 24.6425 79.6226 23.8681 80.1807 23.1798C80.7344 22.4905 81.4174 21.9269 82.2217 21.4875C83.0252 21.0509 83.9493 20.8313 84.9873 20.8313C85.749 20.8313 86.4193 20.9475 86.9988 21.177C87.5756 21.4058 88.0507 21.7304 88.4262 22.1457C88.7977 22.563 89.08 23.053 89.2698 23.6209C89.461 24.1866 89.5554 24.8158 89.5554 25.5041C89.5554 26.3641 89.416 27.2266 89.1394 28.0892C88.8625 28.9476 88.4517 29.7239 87.9094 30.4138C87.3681 31.1021 86.6913 31.6654 85.8784 32.1029C85.0665 32.5406 84.125 32.7602 83.0561 32.7602ZM84.6806 23.5454C84.1988 23.5454 83.7728 23.6826 83.4081 23.9534C83.042 24.2276 82.7345 24.5721 82.4866 24.9876C82.2361 25.405 82.0503 25.8601 81.9248 26.3548C81.8003 26.8506 81.7393 27.3193 81.7393 27.7646C81.7393 28.4832 81.8575 29.0428 82.0899 29.4456C82.3256 29.8462 82.7489 30.0477 83.3641 30.0477C83.8476 30.0477 84.2715 29.9116 84.6383 29.6377C85.0022 29.3658 85.31 29.021 85.5598 28.6047C85.8087 28.1894 85.9961 27.7329 86.1216 27.2375C86.2444 26.7432 86.3071 26.2719 86.3071 25.8274C86.3071 25.1107 86.1894 24.5497 85.9548 24.1475C85.7206 23.7469 85.2954 23.5454 84.6806 23.5454Z" fill="white"/>
<path d="M93.0875 32.4611H89.8344L92.5793 21.1368H95.8537L93.0875 32.4611ZM94.6668 19.757C94.2134 19.757 93.8023 19.6246 93.4379 19.3593C93.0718 19.0956 92.8879 18.6896 92.8879 18.1425C92.8879 17.8416 92.9511 17.5592 93.075 17.2928C93.199 17.0271 93.3641 16.7981 93.5696 16.6035C93.7738 16.4105 94.0138 16.2564 94.2833 16.1402C94.5534 16.0259 94.8425 15.9687 95.1494 15.9687C95.6039 15.9687 96.0144 16.1011 96.38 16.3664C96.7458 16.633 96.9304 17.039 96.9304 17.5831C96.9304 17.8852 96.8648 18.1685 96.742 18.4344C96.6192 18.7003 96.454 18.9291 96.2493 19.1237C96.0432 19.3171 95.8062 19.4707 95.5361 19.5858C95.2639 19.702 94.9753 19.757 94.6668 19.757Z" fill="white"/>
<path d="M98.2059 21.6511C98.4526 21.5804 98.7281 21.4953 99.0278 21.4028C99.3285 21.3103 99.6645 21.2241 100.04 21.1466C100.411 21.0665 100.83 21.0017 101.291 20.9514C101.751 20.9001 102.276 20.8751 102.86 20.8751C104.574 20.8751 105.756 21.3645 106.408 22.3405C107.06 23.3164 107.173 24.652 106.75 26.3449L105.255 32.4594H101.983L103.432 26.4735C103.52 26.0998 103.59 25.7385 103.641 25.3855C103.693 25.0356 103.69 24.7273 103.629 24.4603C103.571 24.1966 103.435 23.9807 103.224 23.8135C103.01 23.6489 102.686 23.5663 102.246 23.5663C101.822 23.5663 101.391 23.6109 100.951 23.6971L98.8203 32.4591H95.5471L98.2059 21.6511Z" fill="white"/>
</g>
</g>
</svg>
