<svg width="120" height="50" viewBox="0 0 120 50" fill="none" xmlns="http://www.w3.org/2000/svg">
<g clip-path="url(#clip0_4355_21330)">
<path d="M34.4648 11.8268C34.7861 9.68647 33.1505 8.53595 30.9139 7.76845L31.6395 4.86917L29.8679 4.4294L29.1616 7.25235C28.6959 7.13663 28.2176 7.02759 27.7423 6.91949L28.4537 4.07792L26.6833 3.63815L25.9573 6.53649C25.572 6.44907 25.1934 6.36267 24.8262 6.27164L24.8282 6.26252L22.3853 5.65476L21.914 7.53976C21.914 7.53976 23.2283 7.8399 23.2006 7.85838C23.918 8.03675 24.0477 8.50985 24.0262 8.88484L23.1997 12.1878C23.2491 12.2003 23.3132 12.2184 23.3839 12.2467C23.3248 12.2321 23.2619 12.2161 23.1966 12.2005L22.0382 16.8275C21.9505 17.0446 21.728 17.3705 21.2264 17.2468C21.2442 17.2724 19.9389 16.9266 19.9389 16.9266L19.0593 18.9469L21.3647 19.5194C21.7935 19.6266 22.2138 19.7387 22.6277 19.8441L21.8946 22.7766L23.6641 23.2164L24.39 20.315C24.8734 20.4457 25.3426 20.5663 25.8018 20.68L25.0783 23.5677L26.8499 24.0075L27.5829 21.0804C30.6037 21.65 32.8751 21.4204 33.8312 18.6983C34.6016 16.5067 33.7928 15.2426 32.2036 14.4182C33.3611 14.1523 34.2323 13.3936 34.4648 11.8268ZM30.4173 17.4812C29.8698 19.6728 26.166 18.4881 24.9651 18.191L25.9379 14.3059C27.1387 14.6045 30.9894 15.1956 30.4173 17.4812ZM30.9652 11.795C30.4658 13.7885 27.383 12.7758 26.383 12.5274L27.265 9.00386C28.265 9.2522 31.4853 9.71571 30.9652 11.795Z" fill="#FBC04E"/>
<path d="M45.3498 19.8126C44.8716 19.8126 44.4422 19.7909 44.0618 19.7476C43.6923 19.7043 43.2847 19.6231 42.839 19.504C42.339 19.374 41.926 19.2062 41.5999 19.0005C41.2738 18.7839 41.0021 18.4861 40.7847 18.1071C40.5565 17.7281 40.4423 17.2787 40.4423 16.7589V12.1297C40.4423 10.0073 42.0782 8.94613 45.3498 8.94613C46.1868 8.94613 47.3063 9.06524 48.7084 9.30347V11.2039C47.4476 10.9007 46.3389 10.7491 45.3824 10.7491C44.9803 10.7491 44.6651 10.7599 44.4368 10.7816C44.2194 10.8032 43.9912 10.8574 43.752 10.944C43.2412 11.1173 42.9858 11.5017 42.9858 12.0972V16.5803C42.9858 17.5332 43.8607 18.0096 45.6107 18.0096C46.3607 18.0096 47.415 17.8526 48.7736 17.5386V19.4553C47.6106 19.6935 46.4694 19.8126 45.3498 19.8126Z" fill="white"/>
<path d="M50.3988 9.10856H55.1596C56.5726 9.10856 57.5943 9.28181 58.2247 9.62833C58.8551 9.96401 59.1703 10.5325 59.1703 11.3338V13.1855C59.1703 13.8027 58.9475 14.29 58.5019 14.6474C58.0671 14.9939 57.4856 15.2159 56.7574 15.3133L59.8225 19.6502H56.8878L54.1161 15.5082H52.9422V19.6502H50.3988V9.10856ZM55.127 13.8352C55.7248 13.8352 56.1324 13.7594 56.3498 13.6078C56.5671 13.4454 56.6758 13.1368 56.6758 12.682V11.9348C56.6758 11.545 56.5563 11.2797 56.3171 11.1389C56.0889 10.9873 55.6922 10.9115 55.127 10.9115H52.9422V13.8352H55.127Z" fill="white"/>
<path d="M64.1099 15.427L60.2785 9.10856H63.1643L65.3979 13.2342L67.6153 9.10856H70.5174L66.6533 15.3945V19.6502H64.1099V15.427Z" fill="white"/>
<path d="M71.7818 9.10856H76.0208C77.0534 9.10856 77.8686 9.17894 78.4664 9.31971C79.0751 9.46048 79.5153 9.70954 79.787 10.0669C80.0696 10.4134 80.2109 10.9007 80.2109 11.5287V13.5266C80.2109 14.2196 80.0588 14.7611 79.7544 15.1509C79.461 15.5407 78.9881 15.8169 78.336 15.9793C77.6947 16.1417 76.8252 16.2229 75.7274 16.2229H74.3252V19.6502H71.7818V9.10856ZM75.9393 14.4849C76.6023 14.4849 77.0697 14.4091 77.3414 14.2575C77.6132 14.0951 77.749 13.8244 77.749 13.4454V11.7561C77.749 11.4096 77.6186 11.1822 77.3577 11.0739C77.1078 10.9657 76.6241 10.9115 75.9067 10.9115H74.3252V14.4849H75.9393Z" fill="white"/>
<path d="M84.4492 10.9115H81.1884V9.10856H90.2371V10.9115H86.9926V19.6502H84.4492V10.9115Z" fill="white"/>
<path d="M96.477 19.8126C95.8901 19.8126 95.3466 19.7747 94.8466 19.6989C94.3575 19.6231 93.8467 19.4932 93.3141 19.3091C92.738 19.1142 92.2869 18.8001 91.9608 18.367C91.6348 17.923 91.4717 17.387 91.4717 16.7589V12.146C91.4717 11.6262 91.5859 11.1606 91.8141 10.7491C92.0532 10.3376 92.3576 10.0127 92.7271 9.77451C93.0532 9.56877 93.4554 9.39551 93.9336 9.25474C94.4119 9.11397 94.8575 9.02734 95.2705 8.99486C95.651 8.96237 96.0531 8.94613 96.477 8.94613C96.977 8.94613 97.4118 8.96778 97.7813 9.0111C98.1509 9.04358 98.5639 9.11938 99.0204 9.2385C99.5422 9.3901 99.9715 9.57418 100.308 9.79076C100.645 10.0073 100.928 10.3105 101.156 10.7004C101.395 11.101 101.515 11.5829 101.515 12.146V16.7589C101.515 17.3437 101.357 17.8472 101.042 18.2695C100.738 18.6918 100.314 19.0113 99.7704 19.2279C98.7922 19.6177 97.6944 19.8126 96.477 19.8126ZM96.5096 18.0096C96.8683 18.0096 97.1672 17.9988 97.4064 17.9772C97.6563 17.9447 97.9118 17.8905 98.1726 17.8147C98.4335 17.7389 98.6292 17.6144 98.7596 17.4411C98.9009 17.2571 98.9715 17.0297 98.9715 16.7589V12.1297C98.9715 11.6316 98.7704 11.2797 98.3683 11.0739C97.9661 10.8574 97.3411 10.7491 96.4933 10.7491C95.6455 10.7491 95.0206 10.852 94.6184 11.0577C94.2162 11.2634 94.0151 11.6208 94.0151 12.1297V16.7589C94.0151 17.0297 94.0858 17.2571 94.2271 17.4411C94.3684 17.6144 94.5749 17.7389 94.8466 17.8147C95.1075 17.8905 95.3575 17.9447 95.5966 17.9772C95.8466 17.9988 96.1509 18.0096 96.5096 18.0096Z" fill="white"/>
</g>
<g clip-path="url(#clip1_4355_21330)">
<path d="M23.4283 40.2214C22.4743 44.0337 18.5986 46.3537 14.7716 45.4031C10.9462 44.4527 8.61743 40.5912 9.57183 36.7793C10.5254 32.9667 14.4011 30.6464 18.2269 31.5968C22.0537 32.5473 24.3824 36.409 23.4283 40.2214Z" fill="#F7931A"/>
<path d="M19.6597 37.4748C19.8018 36.5278 19.0782 36.0188 18.0886 35.6792L18.4096 34.3964L17.6258 34.2018L17.3133 35.4508C17.1072 35.3996 16.8956 35.3514 16.6853 35.3035L17.0001 34.0463L16.2167 33.8517L15.8955 35.1341C15.725 35.0954 15.5575 35.0572 15.395 35.0169L15.396 35.0129L14.3151 34.744L14.1066 35.578C14.1066 35.578 14.6881 35.7108 14.6758 35.719C14.9932 35.7979 15.0506 36.0072 15.0411 36.1731L14.6754 37.6345C14.6973 37.6401 14.7256 37.6481 14.7569 37.6606C14.7307 37.6541 14.7029 37.647 14.674 37.6402L14.1615 39.6874C14.1227 39.7834 14.0242 39.9276 13.8023 39.8729C13.8102 39.8842 13.2326 39.7312 13.2326 39.7312L12.8435 40.6251L13.8635 40.8784C14.0532 40.9258 14.2392 40.9754 14.4223 41.0221L14.098 42.3196L14.8809 42.5141L15.2021 41.2304C15.416 41.2883 15.6235 41.3416 15.8267 41.3919L15.5066 42.6696L16.2904 42.8642L16.6148 41.5691C17.9513 41.8211 18.9563 41.7195 19.3793 40.5151C19.7202 39.5454 19.3623 38.9861 18.6592 38.6214C19.1713 38.5037 19.5568 38.168 19.6597 37.4748ZM17.8688 39.9766C17.6266 40.9463 15.9878 40.4221 15.4565 40.2906L15.8869 38.5717C16.4182 38.7038 18.122 38.9653 17.8688 39.9766ZM18.1113 37.4607C17.8903 38.3428 16.5263 37.8947 16.0839 37.7848L16.4741 36.2258C16.9165 36.3357 18.3414 36.5407 18.1113 37.4607Z" fill="white"/>
</g>
<path d="M38.5855 31.5L38.5 31.8299V41.4031L38.5855 41.5L42.5 38.8733L38.5855 31.5Z" fill="#343434"/>
<path d="M38.5 31.5L34.5 38.8733L38.5 41.5V31.5Z" fill="#8C8C8C"/>
<path d="M38.5486 42.0155L38.5 42.0794V45.3469L38.5486 45.5L42.5 39.5L38.5486 42.0155Z" fill="#3C3C3B"/>
<path d="M38.5 45.5V42.0155L34.5 39.5L38.5 45.5Z" fill="#8C8C8C"/>
<path d="M38.5 41.5L42.5 38.6735L38.5 36.5V41.5Z" fill="#141414"/>
<path d="M34.5 38.6735L38.5 41.5V36.5L34.5 38.6735Z" fill="#393939"/>
<g clip-path="url(#clip2_4355_21330)">
<path d="M60.5 45.6161C64.4449 45.6161 67.6429 42.4301 67.6429 38.5C67.6429 34.5699 64.4449 31.3839 60.5 31.3839C56.5551 31.3839 53.3572 34.5699 53.3572 38.5C53.3572 42.4301 56.5551 45.6161 60.5 45.6161Z" fill="#8DC351"/>
<path d="M62.8215 36.0539C62.4643 35.1643 61.6161 35.1199 60.5893 35.2978L60.2322 34.0525L59.4732 34.2748L59.8304 35.4757C59.6518 35.5201 59.4286 35.6091 59.2054 35.6536L58.8482 34.4083L58.0893 34.6306L58.4465 35.876C58.2679 35.9204 58.134 35.9649 57.9554 36.0094L56.9286 36.3652L57.1518 37.1657C57.1518 37.1657 57.7322 36.9878 57.6875 36.9878C58 36.8989 58.134 37.0323 58.2232 37.2102L58.625 38.6334C58.625 38.6334 58.6697 38.6334 58.7143 38.6334L58.625 38.6779L59.2054 40.6793C59.2054 40.7683 59.2054 40.9462 58.9822 41.0351L58.4465 41.213L58.5357 42.147L59.5179 41.8802C59.6965 41.8357 59.875 41.7912 60.0536 41.7467L60.4107 42.9921L61.1697 42.7697L60.8125 41.5244C61.0357 41.4799 61.2143 41.4354 61.4375 41.3465L61.7947 42.5918L62.5536 42.3694L62.1965 41.1241C63.4465 40.6793 64.25 40.1011 64.0268 38.8558C63.8482 37.8774 63.2679 37.566 62.4643 37.6105C62.9107 37.1657 63.0893 36.721 62.8215 36.0539ZM62.5536 39.0782C62.8215 40.0122 61.1697 40.368 60.634 40.5459L60.1429 38.8558C60.6786 38.7224 62.2411 38.0997 62.5536 39.0782ZM61.4822 36.8099C61.75 37.655 60.3661 37.9663 59.9197 38.0997L59.4732 36.5876C59.9197 36.4541 61.259 35.9204 61.4822 36.8099Z" fill="white"/>
</g>
<path d="M82.5 31.3839C78.5572 31.3839 75.3572 34.5719 75.3572 38.5C75.3572 42.4281 78.5572 45.6161 82.5 45.6161C86.4429 45.6161 89.6429 42.4281 89.6429 38.5C89.6429 34.5719 86.4429 31.3839 82.5 31.3839Z" fill="white"/>
<path fill-rule="evenodd" clip-rule="evenodd" d="M75.3572 38.5C75.3572 34.5719 78.5572 31.3839 82.5 31.3839C86.4429 31.3839 89.6429 34.5719 89.6429 38.5C89.6429 42.4281 86.4429 45.6161 82.5 45.6161C78.5572 45.6161 75.3572 42.4281 75.3572 38.5ZM81.7547 40.9341L82.4646 38.5475L83.5592 38.23L83.792 37.4455L82.7073 37.7744L83.863 33.8548C83.8679 33.8384 83.8696 33.8203 83.8696 33.8022C83.8696 33.6936 83.7821 33.6081 83.6748 33.6081H82.2054C82.0898 33.6081 81.9875 33.6854 81.9561 33.7973L80.5792 38.4323L79.4928 38.7613L79.2534 39.5327L80.3381 39.2038L79.3574 42.5032H85.1574C85.2729 42.5032 85.3753 42.4276 85.4083 42.3157L85.7385 41.1825C85.7435 41.1644 85.7468 41.1463 85.7468 41.1282C85.7468 41.0213 85.6593 40.9341 85.5519 40.9341H81.7547Z" fill="#345D9D"/>
<path fill-rule="evenodd" clip-rule="evenodd" d="M99.9729 32.4257L97.3681 37.8275C97.3582 37.8476 97.3551 37.8703 97.3592 37.8922C97.3633 37.9142 97.3744 37.9343 97.3909 37.9496L104.426 44.6051C104.446 44.624 104.472 44.6346 104.5 44.6346C104.528 44.6346 104.554 44.624 104.574 44.6051L111.609 37.9501C111.626 37.9348 111.637 37.9146 111.641 37.8927C111.645 37.8707 111.642 37.848 111.632 37.8279L109.027 32.4261C109.019 32.408 109.005 32.3926 108.988 32.3818C108.971 32.3711 108.951 32.3654 108.931 32.3654H100.07C100.049 32.3652 100.029 32.3707 100.012 32.3814C99.9951 32.3921 99.9814 32.4075 99.9729 32.4257Z" fill="#50AF95"/>
<path fill-rule="evenodd" clip-rule="evenodd" d="M105.404 38.3821C105.353 38.3859 105.092 38.4012 104.51 38.4012C104.047 38.4012 103.719 38.3875 103.603 38.3821C101.814 38.3044 100.479 37.9969 100.479 37.6288C100.479 37.2606 101.814 36.9536 103.603 36.8746V38.0759C103.72 38.0842 104.055 38.1037 104.518 38.1037C105.074 38.1037 105.352 38.0809 105.402 38.0763V36.8754C107.187 36.954 108.52 37.2615 108.52 37.6288C108.52 37.9961 107.188 38.3036 105.402 38.3817L105.404 38.3821ZM105.404 36.7512V35.6762H107.895V34.037H101.112V35.6762H103.603V36.7508C101.578 36.8426 100.055 37.2386 100.055 37.7131C100.055 38.1877 101.578 38.5832 103.603 38.6755V42.1202H105.403V38.6742C107.424 38.5824 108.944 38.1868 108.944 37.7127C108.944 37.2386 107.425 36.8434 105.404 36.7512Z" fill="white"/>
<defs>
<clipPath id="clip0_4355_21330">
<rect width="83" height="22" fill="white" transform="translate(19 3)"/>
</clipPath>
<clipPath id="clip1_4355_21330">
<rect width="15" height="15" fill="white" transform="translate(9 31)"/>
</clipPath>
<clipPath id="clip2_4355_21330">
<rect width="15" height="15" fill="white" transform="translate(53 31)"/>
</clipPath>
</defs>
</svg>
