<svg width="120" height="50" viewBox="0 0 120 50" fill="none" xmlns="http://www.w3.org/2000/svg">
<g id="Payment systems">
<g id="Vector">
<path d="M19.5973 12.1168L19.4313 12.6858V29.1969L19.5973 29.364L27.1947 24.8337L19.5973 12.1168Z" fill="#B4B4B4"/>
<path d="M19.5973 12.1168L12 24.8336L19.5973 29.364L19.5975 21.3501L19.5973 12.1168Z" fill="white"/>
<path d="M19.5975 30.815L19.504 30.93V36.8116L19.5975 37.0872L27.1995 26.287L19.5975 30.815Z" fill="#B4B4B4"/>
<path d="M19.5975 37.0872V30.815L12 26.287L19.5975 37.0872Z" fill="white"/>
<path d="M19.5973 29.364L27.1947 24.8337L19.5975 21.3501L19.5973 29.364Z" fill="#B4B4B4"/>
<path d="M12 24.8336L19.5973 29.364L19.5975 21.3501L12 24.8336Z" fill="white"/>
<path d="M38.9452 27.4179C38.9452 27.5828 38.8071 27.7171 38.6422 27.7171H32.8034C32.9492 29.1595 34.0349 30.4753 35.5617 30.4753C36.6051 30.4753 37.3801 30.0764 37.9632 29.2439C38.0476 29.1288 38.1742 29.0559 38.3353 29.125C38.4235 29.1633 38.4849 29.2439 38.5002 29.336C38.5156 29.4319 38.4887 29.4856 38.4619 29.5393C37.8749 30.5636 36.7049 31.0661 35.5579 31.0661C33.5937 31.0661 32.1935 29.3091 32.1935 27.4294C32.1935 25.5496 33.5937 23.7926 35.5579 23.7926C37.522 23.7888 38.9414 25.5419 38.9452 27.4179ZM38.3199 27.134C38.1933 25.6915 37.0885 24.3757 35.5617 24.3757C34.0349 24.3757 32.9492 25.6915 32.8034 27.134H38.3199ZM46.0308 23.9346C46.1996 23.9346 46.3223 24.0803 46.3223 24.2261C46.3223 24.3949 46.1957 24.5177 46.0308 24.5177H44.4656V30.6595C44.4656 30.8052 44.339 30.951 44.174 30.951C44.0052 30.951 43.8825 30.8052 43.8825 30.6595V24.5177H42.3787C42.2099 24.5177 42.0871 24.3911 42.0871 24.2261C42.0871 24.0803 42.2137 23.9346 42.3787 23.9346H43.8825V21.6865C43.8825 21.5446 43.9784 21.4141 44.1165 21.3911C44.3121 21.3604 44.4656 21.4947 44.4656 21.6788V23.9346H46.0308ZM55.5791 26.9038V30.6249C55.5791 30.7937 55.4334 30.9165 55.2876 30.9165C55.1188 30.9165 54.996 30.7899 54.996 30.6249V26.9038C54.996 25.6493 54.2863 24.3949 52.8861 24.3949C51.0908 24.3949 50.3158 25.9639 50.4194 27.5713C50.4194 27.6135 50.4386 27.8015 50.4386 27.8207V30.6134C50.4386 30.7554 50.3427 30.8858 50.2046 30.9088C50.0089 30.9395 49.8555 30.8052 49.8555 30.6211V18.3989C49.8555 18.2531 49.9821 18.1073 50.147 18.1073C50.3158 18.1073 50.4386 18.2531 50.4386 18.3989V25.3156C50.9411 24.4179 51.8388 23.8118 52.8823 23.8118C54.5971 23.8118 55.5791 25.3156 55.5791 26.9038ZM66.0482 27.4179C66.0482 27.5828 65.9101 27.7171 65.7452 27.7171H59.9026C60.0484 29.1595 61.134 30.4753 62.6608 30.4753C63.7043 30.4753 64.4792 30.0764 65.0623 29.2439C65.1467 29.1288 65.2733 29.0559 65.4344 29.125C65.5227 29.1633 65.584 29.2439 65.5994 29.336C65.6147 29.4319 65.5879 29.4856 65.561 29.5393C64.9741 30.5636 63.804 31.0661 62.657 31.0661C60.6928 31.0661 59.2926 29.3091 59.2926 27.4294C59.2926 25.5496 60.6928 23.7926 62.657 23.7926C64.625 23.7888 66.0444 25.5419 66.0482 27.4179ZM65.4191 27.134C65.2925 25.6915 64.1877 24.3757 62.6608 24.3757C61.134 24.3757 60.0484 25.6915 59.9026 27.134H65.4191ZM73.2143 24.2069C73.2143 24.3949 73.1107 24.4985 72.9419 24.5215C71.2271 24.7709 70.4561 26.1711 70.4561 27.8015V30.5942C70.4561 30.7362 70.3601 30.8666 70.222 30.8896C70.0264 30.9203 69.8729 30.7861 69.8729 30.6019V24.2376C69.8729 24.0957 69.9689 23.9652 70.107 23.9422C70.3026 23.9115 70.4561 24.0458 70.4561 24.2299V25.5266C70.9356 24.7133 71.8985 23.9384 72.8997 23.9384C73.0455 23.9345 73.2143 24.042 73.2143 24.2069ZM82.8049 27.4179C82.8049 27.5828 82.6668 27.7171 82.5018 27.7171H76.6631C76.8089 29.1595 77.8945 30.4753 79.4213 30.4753C80.4648 30.4753 81.2397 30.0764 81.8228 29.2439C81.9072 29.1288 82.0338 29.0559 82.1949 29.125C82.2832 29.1633 82.3445 29.2439 82.3599 29.336C82.3752 29.4319 82.3484 29.4856 82.3215 29.5393C81.7346 30.5636 80.5645 31.0661 79.4175 31.0661C77.4533 31.0661 76.0531 29.3091 76.0531 27.4294C76.0531 25.5496 77.4533 23.7926 79.4175 23.7926C81.3816 23.7888 82.801 25.5419 82.8049 27.4179ZM82.1796 27.134C82.053 25.6915 80.9481 24.3757 79.4213 24.3757C77.8945 24.3757 76.8089 25.6915 76.6631 27.134H82.1796ZM92.2305 24.2798V30.6595C92.2305 30.8283 92.0847 30.951 91.939 30.951C91.7702 30.951 91.6474 30.8244 91.6474 30.6595V29.4472C91.1679 30.4101 90.3086 31.0968 89.2229 31.0968C87.4889 31.0968 86.526 29.593 86.526 28.0048V24.2645C86.526 24.1187 86.6526 23.9729 86.8176 23.9729C86.9864 23.9729 87.1091 24.1187 87.1091 24.2645V28.0048C87.1091 29.2592 87.8188 30.5137 89.2191 30.5137C91.1832 30.5137 91.6436 28.6761 91.6436 26.6468V24.2645C91.6436 24.0957 91.8124 23.923 92.0195 23.9844C92.1461 24.0266 92.2305 24.1494 92.2305 24.2798ZM107 26.8808V30.6211C107 30.7899 106.854 30.9127 106.708 30.9127C106.54 30.9127 106.417 30.7861 106.417 30.6211V26.8808C106.417 25.6263 105.707 24.3949 104.307 24.3949C102.55 24.3949 101.882 26.2747 101.882 27.7363V30.6211C101.882 30.7899 101.737 30.9127 101.591 30.9127C101.422 30.9127 101.299 30.7861 101.299 30.6211V26.8808C101.299 25.6263 100.59 24.3949 99.1894 24.3949C97.4133 24.3949 96.6805 25.7951 96.7458 27.6557C96.7458 27.6979 96.7649 27.7823 96.7458 27.8015V30.6134C96.7458 30.7554 96.6498 30.8858 96.5079 30.9088C96.3123 30.9395 96.1588 30.8052 96.1588 30.6211V24.2376C96.1588 24.0957 96.2547 23.9652 96.3928 23.9422C96.5885 23.9115 96.7419 24.0458 96.7419 24.2299V25.2964C97.2445 24.3987 98.1421 23.8118 99.1856 23.8118C100.375 23.8118 101.296 24.5637 101.671 25.6724C102.151 24.5867 103.091 23.8118 104.303 23.8118C106.018 23.8118 107 25.2926 107 26.8808Z" fill="white"/>
</g>
</g>
</svg>
