<svg width="120" height="50" viewBox="0 0 120 50" fill="none" xmlns="http://www.w3.org/2000/svg">
<g id="Payment systems">
<g id="Vector">
<path fill-rule="evenodd" clip-rule="evenodd" d="M32.7101 15.6033C33.339 15.5995 35.2082 15.4312 36 18.1033C36.5333 19.9033 37.3829 22.8518 38.5487 26.9488H39.0234C40.2737 22.6295 41.1325 19.681 41.6 18.1033C42.4 15.4033 44.4 15.6033 45.2 15.6033L51.3721 15.6033V34.8033H45.0813V23.4884H44.6594L41.1526 34.8033H36.4195L32.9127 23.4801H32.4908V34.8033H26.2V15.6033L32.7101 15.6033ZM60.4057 15.6033V26.9266H60.9076L65.1733 17.6156C66.0014 15.7626 67.7662 15.6033 67.7662 15.6033H73.8539V34.8033H67.4317V23.4801H66.9298L62.7477 32.7911C61.9196 34.6357 60.0711 34.8033 60.0711 34.8033H53.9835V15.6033H60.4057ZM96.0521 24.7273C95.1562 27.2659 92.3429 29.084 89.2283 29.084H82.4933V34.8033H76.3861V24.7273H96.0521Z" fill="#16A770"/>
<path fill-rule="evenodd" clip-rule="evenodd" d="M89.5228 15.6033H76.0658C76.3861 19.8779 80.0672 23.5372 83.878 23.5372H96.4764C97.2034 19.9846 94.7006 15.6033 89.5228 15.6033Z" fill="url(#paint0_linear_3084_21091)"/>
</g>
</g>
<defs>
<linearGradient id="paint0_linear_3084_21091" x1="2129.48" y1="514.679" x2="76.0658" y2="514.679" gradientUnits="userSpaceOnUse">
<stop stop-color="#1F5CD7"/>
<stop offset="1" stop-color="#02AEFF"/>
</linearGradient>
</defs>
</svg>
