<svg width="101" height="11" viewBox="0 0 101 11" fill="none" xmlns="http://www.w3.org/2000/svg">
<g id="Skinsback" clip-path="url(#clip0_3084_21053)">
<path id="Skinsback_2" fill-rule="evenodd" clip-rule="evenodd" d="M4.78661 11.0052C8.16266 11.0052 9.81771 9.43275 9.81771 7.58863C9.81771 3.68824 3.37603 4.89545 3.37603 3.28001C3.37603 2.75083 3.86296 2.32748 5.21014 2.32748C6.31575 2.35389 7.39723 2.63435 8.35844 3.14394L9.34854 0.923241C8.08003 0.296734 6.66195 -0.0205475 5.22637 0.000944444C1.85082 0.000944444 0.195262 1.54315 0.195262 3.43263C0.195262 7.36326 6.6547 6.13904 6.6547 7.81685C6.6547 8.33091 6.1353 8.67866 4.80436 8.67866C3.47503 8.66168 2.177 8.30045 1.0555 7.63541L0.000488281 9.84287C1.44693 10.6415 3.10569 11.0444 4.78661 11.0052ZM18.9213 10.7935H22.6544L17.7714 4.89734L22.4109 0.209783H18.8726L14.4745 4.61007V0.209783H11.2932V10.7935H14.4745V8.14759L15.6756 6.95314L18.9213 10.7935ZM23.4989 10.7935H26.7127V0.209783H23.4989V10.7935ZM36.6618 0.209783V5.84988L31.6464 0.209783H29.0012V10.7935H32.1496V5.15437L37.1649 10.7935H39.8101V0.209783H36.6618ZM46.0742 11.0052C49.4503 11.0052 51.1059 9.43275 51.1059 7.58863C51.1059 3.68824 44.6642 4.89545 44.6642 3.28001C44.6642 2.75083 45.1511 2.32748 46.4983 2.32748C47.6041 2.35383 48.6857 2.6343 49.6471 3.14394L50.6372 0.923241C49.3685 0.296714 47.9503 -0.0205659 46.5145 0.000944444C43.139 0.000944444 41.4834 1.54315 41.4834 3.43263C41.4834 7.36326 47.9428 6.13904 47.9428 7.81685C47.9428 8.33091 47.4234 8.67866 46.0925 8.67866C44.7632 8.6617 43.4651 8.30048 42.3436 7.63541L41.2886 9.84287C42.7349 10.6414 44.3935 11.0442 46.0742 11.0052ZM61.3162 5.27533C61.7802 5.06879 62.1707 4.74235 62.4412 4.3349C62.7117 3.92745 62.8508 3.45615 62.8419 2.97715C62.8419 1.34423 61.3811 0.210257 58.3951 0.210257H52.5844V10.7935H58.7218C61.7727 10.7935 63.3958 9.72003 63.3958 7.89055C63.4066 7.30217 63.2087 6.72691 62.8326 6.25404C62.4566 5.78117 61.9235 5.43714 61.3162 5.27533ZM57.9731 2.37284C59.0443 2.37284 59.5962 2.72059 59.5962 3.38585C59.5962 4.06623 59.0448 4.41399 57.9731 4.41399H55.7657V2.37284H57.9731ZM58.46 8.63189H55.7657V6.4849H58.46C59.5632 6.4849 60.1475 6.83265 60.1475 7.55839C60.1475 8.28414 59.5632 8.63189 58.46 8.63189ZM73.5706 10.7935H76.9132L71.8815 0.209783H68.717L63.7032 10.7935H66.9813L67.874 8.73725H72.6779L73.5706 10.7935ZM68.8154 6.53026L70.2762 3.14346L71.7365 6.53026H68.8154ZM83.3259 11.0052C84.2502 11.0453 85.1719 10.886 86.0192 10.5399C86.8665 10.1937 87.6166 9.66992 88.211 9.00941L86.1659 7.28577C85.8527 7.67104 85.4479 7.98348 84.9834 8.19859C84.5188 8.4137 84.007 8.52562 83.4882 8.52558C83.0609 8.54198 82.6347 8.47439 82.2373 8.32719C81.8399 8.18 81.4802 7.95651 81.1816 7.67126C80.8831 7.38601 80.6523 7.04541 80.5044 6.6716C80.3565 6.29779 80.2948 5.89916 80.3232 5.50165C80.2948 5.10414 80.3565 4.70552 80.5044 4.33171C80.6523 3.9579 80.8831 3.61729 81.1816 3.33204C81.4802 3.0468 81.8399 2.8233 82.2373 2.67611C82.6347 2.52892 83.0609 2.46133 83.4882 2.47773C84.007 2.47769 84.5188 2.58961 84.9834 2.80471C85.4479 3.01982 85.8527 3.33226 86.1659 3.71754L88.211 1.9939C87.6166 1.33338 86.8665 0.809624 86.0192 0.463447C85.1719 0.11727 84.2502 -0.0419785 83.3259 -0.00189073C79.7247 -0.00189073 77.077 2.28117 77.077 5.50118C77.077 8.72119 79.7226 11.0052 83.3259 11.0052ZM97.2679 10.7935H101L96.1155 4.89734L100.758 0.209783H97.2192L92.8211 4.60912V0.209783H89.6398V10.7935H92.8211V8.14759L94.0217 6.95314L97.2679 10.7935Z" fill="#6F86DF"/>
</g>
<defs>
<clipPath id="clip0_3084_21053">
<rect width="101" height="11" fill="white"/>
</clipPath>
</defs>
</svg>
