<svg width="120" height="50" viewBox="0 0 120 50" fill="none" xmlns="http://www.w3.org/2000/svg">
<g id="Payment systems">
<g id="Vector">
<path d="M33.5885 33.3608H29.1789L31.937 17.5525H36.3463L33.5885 33.3608Z" fill="white"/>
<path d="M49.5734 17.9391C48.7036 17.6192 47.3241 17.2661 45.6183 17.2661C41.2637 17.2661 38.1972 19.4186 38.1784 22.496C38.1423 24.7665 40.3739 26.0276 42.0431 26.7847C43.7491 27.5583 44.329 28.0632 44.329 28.7528C44.3116 29.8119 42.9504 30.3 41.6809 30.3C39.9204 30.3 38.9771 30.0483 37.5435 29.4591L36.9629 29.2066L36.3458 32.7552C37.38 33.1919 39.2855 33.5795 41.2637 33.5965C45.8906 33.5965 48.9028 31.4773 48.9385 28.1978C48.9561 26.3982 47.7777 25.0193 45.2371 23.8926C43.6948 23.1693 42.7503 22.6815 42.7503 21.9415C42.7684 21.2687 43.5492 20.5796 45.2902 20.5796C46.7237 20.5458 47.777 20.8652 48.5749 21.1848L48.9737 21.3527L49.5734 17.9391Z" fill="white"/>
<path d="M55.4343 27.7605C55.7975 26.8523 57.1948 23.3375 57.1948 23.3375C57.1765 23.3712 57.5573 22.4125 57.775 21.824L58.0832 23.1861C58.0832 23.1861 58.9182 26.9701 59.0996 27.7605C58.4104 27.7605 56.3053 27.7605 55.4343 27.7605ZM60.8774 17.5525H57.4666C56.4148 17.5525 55.6157 17.8382 55.1619 18.8641L48.612 33.3606H53.2388C53.2388 33.3606 54.0006 31.4095 54.1643 30.9892C54.6719 30.9892 59.1729 30.9892 59.8258 30.9892C59.9524 31.5442 60.352 33.3606 60.352 33.3606H64.4349L60.8774 17.5525Z" fill="white"/>
<path d="M25.4956 17.5525L21.1772 28.3323L20.7053 26.146C19.9069 23.6233 17.403 20.8825 14.6087 19.5197L18.5643 33.344H23.2273L30.1584 17.5525H25.4956Z" fill="white"/>
<path d="M17.1672 17.5525H10.0726L10 17.8719C15.5342 19.1838 19.1995 22.3452 20.7053 26.146L19.163 18.8814C18.9091 17.8717 18.1288 17.5858 17.1672 17.5525Z" fill="#FAA61A"/>
</g>
<g id="Vector_2">
<path d="M96.5112 34.4198H86.5097V16.4455H96.5112V34.4198Z" fill="#FF5F00"/>
<path d="M87.1505 25.4313C87.1505 21.7851 88.8576 18.5372 91.5162 16.4441C89.5721 14.9135 87.1185 14 84.452 14C78.1393 14 73.0222 19.1179 73.0222 25.4313C73.0222 31.7447 78.1393 36.8626 84.452 36.8626C87.1185 36.8626 89.5721 35.949 91.5162 34.4185C88.8576 32.3254 87.1505 29.0775 87.1505 25.4313Z" fill="#EB001B"/>
<path d="M110 25.4313C110 31.7447 104.883 36.8626 98.5701 36.8626C95.9036 36.8626 93.45 35.949 91.5052 34.4185C94.1644 32.3254 95.8716 29.0775 95.8716 25.4313C95.8716 21.7851 94.1644 18.5372 91.5052 16.4441C93.45 14.9135 95.9036 14 98.5701 14C104.883 14 110 19.1179 110 25.4313Z" fill="#F79E1B"/>
<path d="M81.6231 25.5036C81.6231 25.0043 81.9503 24.5941 82.485 24.5941C82.9959 24.5941 83.3407 24.9866 83.3407 25.5036C83.3407 26.0206 82.9959 26.4131 82.485 26.4131C81.9503 26.4131 81.6231 26.0029 81.6231 25.5036ZM83.9231 24.0832H83.3054V24.4281C83.1095 24.1723 82.8122 24.0118 82.4081 24.0118C81.6115 24.0118 80.987 24.6363 80.987 25.5036C80.987 26.3716 81.6115 26.9954 82.4081 26.9954C82.8122 26.9954 83.1095 26.8349 83.3054 26.5791V26.924H83.9231V24.0832ZM104.796 25.5036C104.796 25.0043 105.124 24.5941 105.658 24.5941C106.17 24.5941 106.514 24.9866 106.514 25.5036C106.514 26.0206 106.17 26.4131 105.658 26.4131C105.124 26.4131 104.796 26.0029 104.796 25.5036ZM107.097 22.9424H106.479V24.4281C106.283 24.1723 105.985 24.0118 105.581 24.0118C104.785 24.0118 104.16 24.6363 104.16 25.5036C104.16 26.3716 104.785 26.9954 105.581 26.9954C105.985 26.9954 106.283 26.8349 106.479 26.5791V26.924H107.097V22.9424ZM91.5903 24.5648C91.9883 24.5648 92.2441 24.8145 92.3094 25.254H90.8353C90.9012 24.8438 91.1502 24.5648 91.5903 24.5648ZM91.6026 24.0118C90.7699 24.0118 90.1876 24.6179 90.1876 25.5036C90.1876 26.407 90.7938 26.9954 91.6441 26.9954C92.072 26.9954 92.4638 26.8886 92.8087 26.5975L92.506 26.1397C92.2679 26.3295 91.9645 26.4369 91.6795 26.4369C91.2815 26.4369 90.9189 26.2526 90.8298 25.741H92.9393C92.9454 25.6642 92.9516 25.5866 92.9516 25.5036C92.9454 24.6179 92.3985 24.0118 91.6026 24.0118ZM99.061 25.5036C99.061 25.0043 99.3882 24.5941 99.9229 24.5941C100.434 24.5941 100.779 24.9866 100.779 25.5036C100.779 26.0206 100.434 26.4131 99.9229 26.4131C99.3882 26.4131 99.061 26.0029 99.061 25.5036ZM101.361 24.0832H100.743V24.4281C100.547 24.1723 100.25 24.0118 99.8461 24.0118C99.0495 24.0118 98.425 24.6363 98.425 25.5036C98.425 26.3716 99.0495 26.9954 99.8461 26.9954C100.25 26.9954 100.547 26.8349 100.743 26.5791V26.924H101.361V24.0832ZM95.5726 25.5036C95.5726 26.3655 96.1726 26.9954 97.0883 26.9954C97.5162 26.9954 97.8012 26.9002 98.11 26.6567L97.8134 26.1573C97.5815 26.324 97.3379 26.4131 97.0699 26.4131C96.5767 26.407 96.2141 26.0505 96.2141 25.5036C96.2141 24.9567 96.5767 24.6002 97.0699 24.5941C97.3379 24.5941 97.5815 24.6832 97.8134 24.8499L98.11 24.3506C97.8012 24.107 97.5162 24.0118 97.0883 24.0118C96.1726 24.0118 95.5726 24.6417 95.5726 25.5036ZM103.537 24.0118C103.18 24.0118 102.948 24.1785 102.788 24.4281V24.0832H102.175V26.924H102.794V25.3315C102.794 24.8614 102.996 24.6002 103.4 24.6002C103.525 24.6002 103.656 24.6179 103.786 24.6716L103.977 24.0893C103.84 24.0356 103.662 24.0118 103.537 24.0118ZM86.9781 24.3091C86.6809 24.1131 86.2713 24.0118 85.8196 24.0118C85.0999 24.0118 84.6367 24.3567 84.6367 24.9213C84.6367 25.3846 84.9816 25.6703 85.6169 25.7594L85.9088 25.8009C86.2475 25.8485 86.4074 25.9376 86.4074 26.0982C86.4074 26.3179 86.1815 26.4431 85.7598 26.4431C85.3319 26.4431 85.023 26.3063 84.8149 26.1458L84.5237 26.6267C84.8625 26.8764 85.2904 26.9954 85.7537 26.9954C86.5741 26.9954 87.0496 26.609 87.0496 26.0682C87.0496 25.5689 86.6754 25.3077 86.0571 25.2186L85.7659 25.1764C85.4986 25.141 85.2843 25.088 85.2843 24.8975C85.2843 24.6893 85.4863 24.5648 85.8251 24.5648C86.1877 24.5648 86.5387 24.7016 86.7108 24.8084L86.9781 24.3091ZM94.9481 24.0118C94.5917 24.0118 94.3597 24.1785 94.1998 24.4281V24.0832H93.5876V26.924H94.2053V25.3315C94.2053 24.8614 94.4073 24.6002 94.8114 24.6002C94.9366 24.6002 95.0672 24.6179 95.1978 24.6716L95.3883 24.0893C95.2515 24.0356 95.0733 24.0118 94.9481 24.0118ZM89.6768 24.0832H88.6666V23.2213H88.0421V24.0832H87.4659V24.6478H88.0421V25.9437C88.0421 26.6029 88.2979 26.9954 89.0285 26.9954C89.2965 26.9954 89.6053 26.9124 89.8012 26.7757L89.623 26.2465C89.4387 26.3533 89.2366 26.407 89.0761 26.407C88.7672 26.407 88.6666 26.2165 88.6666 25.9315V24.6478H89.6768V24.0832ZM80.4408 26.924V25.141C80.4408 24.4696 80.0129 24.0179 79.3231 24.0118C78.9605 24.0057 78.5864 24.1186 78.3245 24.5172C78.1285 24.2023 77.8197 24.0118 77.3857 24.0118C77.0823 24.0118 76.7857 24.1009 76.5537 24.4336V24.0832H75.9354V26.924H76.5592V25.3492C76.5592 24.856 76.8326 24.5941 77.2551 24.5941C77.6653 24.5941 77.8728 24.8614 77.8728 25.3431V26.924H78.4972V25.3492C78.4972 24.856 78.7823 24.5941 79.1925 24.5941C79.6142 24.5941 79.8163 24.8614 79.8163 25.3431V26.924H80.4408Z" fill="white"/>
</g>
</g>
</svg>
