<svg width="20" height="20" viewBox="0 0 20 20" fill="none" xmlns="http://www.w3.org/2000/svg">
<g clip-path="url(#clip0_1176_40299)">
<path fill-rule="evenodd" clip-rule="evenodd" d="M2.46588 2.66652H1.6665C1.11422 2.66652 0.666504 2.2188 0.666504 1.66652C0.666504 1.11423 1.11422 0.666517 1.6665 0.666517H2.75497C2.76096 0.666517 2.7671 0.666514 2.7734 0.666511C2.85883 0.666466 2.97115 0.666408 3.07225 0.674147C3.19328 0.683411 3.36985 0.707501 3.56065 0.794698C3.80782 0.907656 4.01728 1.08932 4.16406 1.31803C4.27736 1.49458 4.32618 1.66598 4.35247 1.78447C4.37443 1.88346 4.39025 1.99466 4.40229 2.07925C4.40318 2.08547 4.40404 2.09156 4.40489 2.09748L4.67666 3.99985H17.5275C17.5353 3.99985 17.5433 3.99985 17.5513 3.99984C17.6678 3.99979 17.8114 3.99972 17.9375 4.01071C18.0812 4.02324 18.3097 4.05661 18.543 4.19257C18.8331 4.36162 19.0537 4.62821 19.1655 4.94477C19.2554 5.19935 19.2454 5.43006 19.2308 5.57356C19.218 5.69951 19.1911 5.84062 19.1692 5.95501C19.1677 5.96293 19.1662 5.97072 19.1648 5.97837L18.0556 11.8014C17.9874 12.1597 17.9263 12.4806 17.8549 12.7461C17.7781 13.0316 17.6728 13.3208 17.4837 13.5955C17.2031 14.003 16.8147 14.3244 16.3619 14.5237C16.0568 14.6581 15.753 14.7074 15.4581 14.7294C15.1839 14.7499 14.8573 14.7499 14.4925 14.7499H7.29432C6.91082 14.7499 6.5684 14.7499 6.282 14.7279C5.9747 14.7043 5.6577 14.6515 5.34182 14.5063C4.87479 14.2918 4.47972 13.9468 4.20414 13.513C4.01776 13.2195 3.92269 12.9126 3.85787 12.6112C3.79747 12.3304 3.75132 11.9911 3.69964 11.6111L2.81894 5.13796L2.46588 2.66652ZM4.95463 5.99985L5.67681 11.3079C5.73449 11.7318 5.77085 11.994 5.81315 12.1907C5.85282 12.3751 5.88329 12.4263 5.89236 12.4406C5.96125 12.5491 6.06002 12.6353 6.17678 12.689C6.19216 12.696 6.24707 12.7193 6.43515 12.7338C6.63571 12.7492 6.90038 12.7499 7.32826 12.7499H14.4598C14.8674 12.7499 15.1185 12.7492 15.3091 12.735C15.4872 12.7217 15.5402 12.7003 15.556 12.6933C15.6692 12.6435 15.7663 12.5631 15.8364 12.4613C15.8462 12.4471 15.8771 12.399 15.9235 12.2265C15.9732 12.0419 16.0208 11.7954 16.0971 11.395L17.1247 5.99985H4.95463ZM5.6665 17.4999C5.6665 16.4873 6.48731 15.6665 7.49984 15.6665C8.51236 15.6665 9.33317 16.4873 9.33317 17.4999C9.33317 18.5124 8.51236 19.3332 7.49984 19.3332C6.48731 19.3332 5.6665 18.5124 5.6665 17.4999ZM12.3332 17.4999C12.3332 16.4873 13.154 15.6665 14.1665 15.6665C15.179 15.6665 15.9998 16.4873 15.9998 17.4999C15.9998 18.5124 15.179 19.3332 14.1665 19.3332C13.154 19.3332 12.3332 18.5124 12.3332 17.4999Z" fill="#FCFCFD"/>
</g>
<defs>
<clipPath id="clip0_1176_40299">
<rect width="20" height="20" fill="white"/>
</clipPath>
</defs>
</svg>
