<svg width="20" height="20" viewBox="0 0 20 20" fill="none" xmlns="http://www.w3.org/2000/svg">
<g clip-path="url(#clip0_1327_71990)">
<path fill-rule="evenodd" clip-rule="evenodd" d="M6.9422 2.60701C11.0251 0.918402 15.7038 2.85933 17.3924 6.9422C19.081 11.0251 17.14 15.7038 13.0572 17.3924C8.97432 19.081 4.29561 17.14 2.60701 13.0572C0.918402 8.97432 2.85933 4.29561 6.9422 2.60701ZM19.2405 6.17783C17.1298 1.07424 11.2814 -1.35192 6.17783 0.758837C1.07424 2.86959 -1.35192 8.71797 0.758837 13.8216C2.86959 18.9251 8.71797 21.3513 13.8216 19.2405C18.9251 17.1298 21.3513 11.2814 19.2405 6.17783ZM14.0153 6.73476C14.0268 6.44325 13.7874 6.2038 13.4958 6.21535L9.05699 6.39126C8.62137 6.40853 8.41496 6.93615 8.72324 7.24443L12.9862 11.5074C13.2945 11.8156 13.8221 11.6092 13.8393 11.1736L14.0153 6.73476Z" fill="#FCFCFD"/>
</g>
<defs>
<clipPath id="clip0_1327_71990">
<rect width="20" height="20" fill="white"/>
</clipPath>
</defs>
</svg>
