<svg width="14" height="14" viewBox="0 0 14 14" fill="none" xmlns="http://www.w3.org/2000/svg">
<g id="ai-generate-variation" clip-path="url(#clip0_977_24236)">
<g id="Vector">
<path d="M5.28132 8.23096H1.13174C0.862124 8.23096 0.643555 8.44953 0.643555 8.71914V12.8687C0.643555 13.1383 0.862124 13.3569 1.13174 13.3569H5.28132C5.55094 13.3569 5.76951 13.1383 5.76951 12.8687V8.71914C5.76951 8.44953 5.55094 8.23096 5.28132 8.23096Z" stroke="#FCFCFD" stroke-linecap="round" stroke-linejoin="round"/>
<path d="M12.8692 8.23096H8.71963C8.45001 8.23096 8.23145 8.44953 8.23145 8.71914V12.8687C8.23145 13.1383 8.45001 13.3569 8.71963 13.3569H12.8692C13.1388 13.3569 13.3573 13.1383 13.3573 12.8687V8.71914C13.3573 8.44953 13.1388 8.23096 12.8692 8.23096Z" stroke="#FCFCFD" stroke-linecap="round" stroke-linejoin="round"/>
<path d="M5.28132 0.643066H1.13174C0.862124 0.643066 0.643555 0.861635 0.643555 1.13125V5.28083C0.643555 5.55045 0.862124 5.76902 1.13174 5.76902H5.28132C5.55094 5.76902 5.76951 5.55045 5.76951 5.28083V1.13125C5.76951 0.861635 5.55094 0.643066 5.28132 0.643066Z" stroke="#FCFCFD" stroke-linecap="round" stroke-linejoin="round"/>
<path d="M8.14634 3.58439C7.84575 3.5321 7.84575 3.10059 8.14634 3.0483C9.23531 2.85885 10.1014 2.0294 10.3378 0.949642L10.3559 0.866874C10.4209 0.569797 10.8439 0.567948 10.9115 0.864446L10.9335 0.960901C11.1787 2.03557 12.045 2.85801 13.131 3.04693C13.4331 3.09949 13.4331 3.5332 13.131 3.58576C12.045 3.77469 11.1787 4.59713 10.9335 5.67179L10.9115 5.76825C10.8439 6.06475 10.4209 6.0629 10.3559 5.76582L10.3378 5.68305C10.1014 4.60329 9.23531 3.77385 8.14634 3.58439Z" stroke="#FCFCFD" stroke-linecap="round" stroke-linejoin="round"/>
</g>
</g>
<defs>
<clipPath id="clip0_977_24236">
<rect width="14" height="14" fill="white"/>
</clipPath>
</defs>
</svg>
