<svg width="20" height="20" viewBox="0 0 20 20" fill="none" xmlns="http://www.w3.org/2000/svg">
<g id="check_circle">
<path id="Vector" d="M9.99996 1.6665C5.39996 1.6665 1.66663 5.39984 1.66663 9.99984C1.66663 14.5998 5.39996 18.3332 9.99996 18.3332C14.6 18.3332 18.3333 14.5998 18.3333 9.99984C18.3333 5.39984 14.6 1.6665 9.99996 1.6665ZM7.74163 13.5748L4.74996 10.5832C4.42496 10.2582 4.42496 9.73317 4.74996 9.40817C5.07496 9.08317 5.59996 9.08317 5.92496 9.40817L8.33329 11.8082L14.0666 6.07484C14.3916 5.74984 14.9166 5.74984 15.2416 6.07484C15.5666 6.39984 15.5666 6.92484 15.2416 7.24984L8.91663 13.5748C8.59996 13.8998 8.06663 13.8998 7.74163 13.5748Z" fill="#09E48D"/>
</g>
</svg>
