<svg width="20" height="20" viewBox="0 0 20 20" fill="none" xmlns="http://www.w3.org/2000/svg">
<g id="campaign">
<g id="Vector">
<path d="M15 9.99996C15 10.4583 15.375 10.8333 15.8333 10.8333H17.5C17.9583 10.8333 18.3333 10.4583 18.3333 9.99996C18.3333 9.54162 17.9583 9.16662 17.5 9.16662H15.8333C15.375 9.16662 15 9.54162 15 9.99996Z" fill="#F79009"/>
<path d="M13.825 14.0166C13.55 14.3833 13.625 14.8916 13.9916 15.1583C14.4333 15.4833 14.9 15.8333 15.3416 16.1666C15.7083 16.4416 16.225 16.3666 16.4916 16C16.4916 15.9916 16.5 15.9916 16.5 15.9833C16.775 15.6166 16.7 15.1 16.3333 14.8333C15.8916 14.5 15.425 14.15 14.9916 13.825C14.625 13.55 14.1083 13.6333 13.8333 14C13.8333 14.0083 13.825 14.0166 13.825 14.0166Z" fill="#F79009"/>
<path d="M16.5083 4.00829C16.5083 3.99996 16.5 3.99996 16.5 3.99162C16.225 3.62496 15.7083 3.54996 15.35 3.82496C14.9083 4.15829 14.4333 4.50829 14 4.84162C13.6333 5.11662 13.5666 5.63329 13.8416 5.99162C13.8416 5.99996 13.85 5.99996 13.85 6.00829C14.125 6.37496 14.6333 6.44996 15 6.17496C15.4416 5.84996 15.9083 5.49162 16.35 5.15829C16.7083 4.89162 16.775 4.37496 16.5083 4.00829Z" fill="#F79009"/>
<path d="M6.66663 7.49996H3.33329C2.41663 7.49996 1.66663 8.24996 1.66663 9.16662V10.8333C1.66663 11.75 2.41663 12.5 3.33329 12.5H4.16663V15C4.16663 15.4583 4.54163 15.8333 4.99996 15.8333C5.45829 15.8333 5.83329 15.4583 5.83329 15V12.5H6.66663L10.8333 15V4.99996L6.66663 7.49996Z" fill="#F79009"/>
<path d="M12.9166 9.99996C12.9166 8.89162 12.4333 7.89162 11.6666 7.20829V12.7833C12.4333 12.1083 12.9166 11.1083 12.9166 9.99996Z" fill="#F79009"/>
</g>
</g>
</svg>
