<svg width="20" height="20" viewBox="0 0 20 20" fill="none" xmlns="http://www.w3.org/2000/svg">
<g id="info">
<path id="Vector" d="M9.99996 1.6665C5.39996 1.6665 1.66663 5.39984 1.66663 9.99984C1.66663 14.5998 5.39996 18.3332 9.99996 18.3332C14.6 18.3332 18.3333 14.5998 18.3333 9.99984C18.3333 5.39984 14.6 1.6665 9.99996 1.6665ZM9.99996 14.1665C9.54163 14.1665 9.16663 13.7915 9.16663 13.3332V9.99984C9.16663 9.5415 9.54163 9.1665 9.99996 9.1665C10.4583 9.1665 10.8333 9.5415 10.8333 9.99984V13.3332C10.8333 13.7915 10.4583 14.1665 9.99996 14.1665ZM10.8333 7.49984H9.16663V5.83317H10.8333V7.49984Z" fill="#F04438"/>
</g>
</svg>
