<svg width="20" height="20" viewBox="0 0 20 20" fill="none" xmlns="http://www.w3.org/2000/svg">
<g id="shopping-cart" clip-path="url(#clip0_1176_40296)">
<path id="Vector" fill-rule="evenodd" clip-rule="evenodd" d="M2.46636 2.66652H1.66699C1.11471 2.66652 0.666992 2.2188 0.666992 1.66652C0.666992 1.11423 1.11471 0.666517 1.66699 0.666517H2.75546C2.76145 0.666517 2.76759 0.666514 2.77388 0.666511C2.85932 0.666466 2.97164 0.666408 3.07274 0.674147C3.19376 0.683411 3.37034 0.707501 3.56114 0.794698C3.80831 0.907656 4.01777 1.08932 4.16455 1.31803C4.27785 1.49458 4.32667 1.66598 4.35296 1.78447C4.37491 1.88346 4.39074 1.99466 4.40278 2.07925C4.40367 2.08547 4.40453 2.09156 4.40538 2.09748L4.67715 3.99985H17.528C17.5358 3.99985 17.5438 3.99985 17.5518 3.99984C17.6683 3.99979 17.8119 3.99972 17.938 4.01071C18.0817 4.02324 18.3102 4.05661 18.5435 4.19257C18.8336 4.36162 19.0542 4.62821 19.1659 4.94477C19.2559 5.19935 19.2459 5.43006 19.2313 5.57356C19.2185 5.69951 19.1916 5.84062 19.1697 5.95501C19.1682 5.96293 19.1667 5.97072 19.1653 5.97837L18.0561 11.8014C17.9879 12.1597 17.9268 12.4806 17.8554 12.7461C17.7785 13.0316 17.6733 13.3208 17.4842 13.5955C17.2036 14.003 16.8152 14.3244 16.3624 14.5237C16.0573 14.6581 15.7535 14.7074 15.4586 14.7294C15.1844 14.7499 14.8577 14.7499 14.493 14.7499H7.29481C6.9113 14.7499 6.56889 14.7499 6.28248 14.7279C5.97519 14.7043 5.65818 14.6515 5.34231 14.5063C4.87528 14.2918 4.48021 13.9468 4.20463 13.513C4.01825 13.2195 3.92318 12.9126 3.85836 12.6112C3.79796 12.3304 3.75181 11.9911 3.70013 11.6111L2.81943 5.13796L2.46636 2.66652ZM4.95512 5.99985L5.6773 11.3079C5.73498 11.7318 5.77134 11.994 5.81364 12.1907C5.85331 12.3751 5.88378 12.4263 5.89285 12.4406C5.96174 12.5491 6.06051 12.6353 6.17727 12.689C6.19265 12.696 6.24755 12.7193 6.43564 12.7338C6.63619 12.7492 6.90087 12.7499 7.32875 12.7499H14.4603C14.8679 12.7499 15.1189 12.7492 15.3096 12.735C15.4877 12.7217 15.5407 12.7003 15.5565 12.6933C15.6697 12.6435 15.7668 12.5631 15.8369 12.4613C15.8467 12.4471 15.8776 12.399 15.924 12.2265C15.9737 12.0419 16.0213 11.7954 16.0975 11.395L17.1252 5.99985H4.95512ZM5.66699 17.4999C5.66699 16.4873 6.4878 15.6665 7.50033 15.6665C8.51285 15.6665 9.33366 16.4873 9.33366 17.4999C9.33366 18.5124 8.51285 19.3332 7.50033 19.3332C6.4878 19.3332 5.66699 18.5124 5.66699 17.4999ZM12.3337 17.4999C12.3337 16.4873 13.1545 15.6665 14.167 15.6665C15.1795 15.6665 16.0003 16.4873 16.0003 17.4999C16.0003 18.5124 15.1795 19.3332 14.167 19.3332C13.1545 19.3332 12.3337 18.5124 12.3337 17.4999Z" fill="#FCFCFD"/>
</g>
<defs>
<clipPath id="clip0_1176_40296">
<rect width="20" height="20" fill="white"/>
</clipPath>
</defs>
</svg>
