<svg width="14" height="14" viewBox="0 0 14 14" fill="none" xmlns="http://www.w3.org/2000/svg">
<g id="confetti" clip-path="url(#clip0_1029_48064)">
<path id="Vector" d="M11.9283 7.13029C11.4843 6.88248 10.9643 6.80768 10.4683 6.92029M9.64865 4.28057C9.93183 3.85367 10.0492 3.33797 9.97865 2.83057M7.34669 0.720215C7.69718 1.79388 7.65106 2.95764 7.21669 4.00021M2.12842 13.2006L8.80847 10.7106C9.0062 10.6407 9.18319 10.5223 9.32314 10.3661C9.46308 10.2099 9.56149 10.0211 9.6093 9.81688C9.65711 9.6127 9.65278 9.39977 9.59671 9.19771C9.54065 8.99564 9.43464 8.81092 9.28847 8.66056L5.09847 4.47056C4.94369 4.32549 4.75479 4.22185 4.54928 4.16924C4.34377 4.11664 4.12831 4.11677 3.92282 4.16962C3.71742 4.22248 3.52862 4.32635 3.37402 4.47161C3.21942 4.61687 3.10402 4.79881 3.03842 5.00056L0.558418 11.6806C0.489618 11.897 0.482418 12.1283 0.537918 12.3486C0.593418 12.5688 0.709218 12.7692 0.872418 12.9271C1.03552 13.0851 1.23962 13.1944 1.46152 13.2427C1.68342 13.291 1.91442 13.2764 2.12842 13.2006ZM12.9772 3.78027C12.701 3.78027 12.4772 3.55641 12.4772 3.28027C12.4772 3.00413 12.701 2.78027 12.9772 2.78027C13.2533 2.78027 13.4772 3.00413 13.4772 3.28027C13.4772 3.55641 13.2533 3.78027 12.9772 3.78027Z" stroke="#FCFCFD" stroke-linecap="round" stroke-linejoin="round"/>
</g>
<defs>
<clipPath id="clip0_1029_48064">
<rect width="14" height="14" fill="white"/>
</clipPath>
</defs>
</svg>
