<svg width="14" height="14" viewBox="0 0 14 14" fill="none" xmlns="http://www.w3.org/2000/svg">
<g id="dollar" clip-path="url(#clip0_1041_65778)">
<path id="Vector" d="M10 3.5V1.5C10 1.23478 9.89464 0.98043 9.70711 0.792893C9.51957 0.605357 9.26522 0.5 9 0.5H5C4.73478 0.5 4.48043 0.605357 4.29289 0.792893C4.10536 0.98043 4 1.23478 4 1.5V3.5M8.27676 7.16667C8.23286 7.04246 8.16512 6.92952 8.07903 6.83334C7.89593 6.62875 7.62983 6.5 7.33366 6.5H6.55962C6.06663 6.5 5.66699 6.89965 5.66699 7.39264C5.66699 7.81212 5.95907 8.17501 6.36887 8.26465L7.54736 8.52245C8.00644 8.62287 8.33367 9.02971 8.33367 9.49965C8.33367 10.0519 7.88595 10.5 7.33366 10.5H6.66699C6.23158 10.5 5.86117 10.2217 5.72389 9.83335M7 6.50001V5.5M7 11.5V10.5M12.5 3.5H1.5C0.947715 3.5 0.5 3.94772 0.5 4.5V12.5C0.5 13.0523 0.947715 13.5 1.5 13.5H12.5C13.0523 13.5 13.5 13.0523 13.5 12.5V4.5C13.5 3.94772 13.0523 3.5 12.5 3.5Z" stroke="#FCFCFD" stroke-linecap="round" stroke-linejoin="round"/>
</g>
<defs>
<clipPath id="clip0_1041_65778">
<rect width="14" height="14" fill="white"/>
</clipPath>
</defs>
</svg>
