<svg width="14" height="14" viewBox="0 0 14 14" fill="none" xmlns="http://www.w3.org/2000/svg">
<g id="star-badge--ribbon-reward-like-social-rating-media" clip-path="url(#clip0_1029_48078)">
<path id="Vector" d="M2.70402 7.91309L0.5 11.7306L2.8815 11.0925L3.51962 13.474L5.43194 10.1618M11.2963 7.91309L13.5003 11.7306L11.1188 11.0925L10.4807 13.474L8.56836 10.1618M11.9534 5.48206C11.9534 8.21927 9.73441 10.4383 6.99719 10.4383C4.25997 10.4383 2.04102 8.21927 2.04102 5.48206C2.04102 2.74484 4.25997 0.525879 6.99719 0.525879C9.73441 0.525879 11.9534 2.74484 11.9534 5.48206ZM7.20049 2.79088L7.88319 4.16423C7.89846 4.19896 7.92267 4.22902 7.95335 4.25134C7.98403 4.27365 8.02009 4.28742 8.05784 4.29124L9.57408 4.52146C9.61742 4.5271 9.65827 4.54497 9.69184 4.57297C9.7254 4.60097 9.75031 4.63795 9.76363 4.67958C9.77695 4.72122 9.77815 4.76579 9.76707 4.80807C9.756 4.85036 9.73311 4.88862 9.70109 4.91838L8.58177 5.98213C8.56508 6.01397 8.55636 6.04938 8.55636 6.08533C8.55636 6.12128 8.56508 6.15669 8.58177 6.18853L8.79611 7.69683C8.80526 7.74042 8.80156 7.78574 8.78546 7.82727C8.76936 7.86881 8.74156 7.90478 8.70543 7.93083C8.66929 7.95688 8.62638 7.97189 8.58188 7.97404C8.53739 7.97618 8.49323 7.96537 8.45476 7.94292L7.10523 7.22846C7.0703 7.21268 7.03241 7.20452 6.99409 7.20452C6.95576 7.20452 6.91788 7.21268 6.88295 7.22846L5.53342 7.94292C5.49495 7.96537 5.45078 7.97618 5.40629 7.97404C5.3618 7.97189 5.31888 7.95688 5.28275 7.93083C5.24661 7.90478 5.21881 7.86881 5.20272 7.82727C5.18662 7.78574 5.18292 7.74042 5.19207 7.69683L5.4461 6.18853C5.45702 6.15352 5.45911 6.11635 5.45219 6.08034C5.44526 6.04433 5.42953 6.01059 5.4064 5.98213L4.28709 4.91044C4.2574 4.88037 4.23656 4.8427 4.22685 4.80157C4.21715 4.76043 4.21896 4.71742 4.23208 4.67725C4.24519 4.63708 4.26912 4.60129 4.30122 4.57381C4.33333 4.54633 4.37238 4.52822 4.4141 4.52146L5.93034 4.29918C5.96809 4.29536 6.00414 4.28159 6.03483 4.25928C6.06551 4.23696 6.08972 4.2069 6.10498 4.17217L6.78769 2.79882C6.80596 2.75994 6.83474 2.72695 6.87078 2.70358C6.90681 2.68021 6.94867 2.66738 6.99162 2.66655C7.03457 2.66573 7.07689 2.67693 7.1138 2.69891C7.15071 2.72088 7.18074 2.75274 7.20049 2.79088Z" stroke="#FCFCFD" stroke-linecap="round" stroke-linejoin="round"/>
</g>
<defs>
<clipPath id="clip0_1029_48078">
<rect width="14" height="14" fill="white"/>
</clipPath>
</defs>
</svg>
