<svg width="14" height="14" viewBox="0 0 14 14" fill="none" xmlns="http://www.w3.org/2000/svg">
<g id="shield" clip-path="url(#clip0_299_3640)">
<path id="Vector" d="M10 4L6 8.5L4 7M7.35335 13.3838C7.12358 13.4724 6.86905 13.4724 6.63928 13.3838C4.84643 12.6954 3.30455 11.4795 2.21732 9.89646C1.13008 8.31342 0.548643 6.43781 0.549806 4.51737V1.54206C0.549806 1.27903 0.654295 1.02676 0.840288 0.840776C1.02629 0.654783 1.27855 0.550293 1.54158 0.550293H12.4511C12.7141 0.550293 12.9664 0.654783 13.1524 0.840776C13.3384 1.02676 13.4429 1.27903 13.4429 1.54206V4.51737C13.444 6.43781 12.8626 8.31342 11.7754 9.89646C10.6881 11.4795 9.14621 12.6954 7.35335 13.3838Z" stroke="#FCFCFD" stroke-linecap="round" stroke-linejoin="round"/>
</g>
<defs>
<clipPath id="clip0_299_3640">
<rect width="14" height="14" fill="white"/>
</clipPath>
</defs>
</svg>
