<svg width="15" height="14" viewBox="0 0 15 14" fill="none" xmlns="http://www.w3.org/2000/svg">
<g id="stream" clip-path="url(#clip0_1819_4384)">
<path id="Vector" d="M4.66089 8.66073C5.06948 8.3245 5.58465 8.11027 6.15338 8.07753C6.20858 8.07436 6.26347 8.07293 6.318 8.07322L7.95444 4.50688C7.91645 4.34121 7.89179 4.17013 7.88169 3.99475C7.78452 2.30651 9.07434 0.859153 10.7626 0.761985C12.4508 0.664816 13.8982 1.95463 13.9954 3.64287C14.087 5.23523 12.9448 6.61329 11.3981 6.84622L8.72708 9.76161C8.81366 9.99606 8.86743 10.2471 8.88254 10.5096C8.96457 11.9349 7.87569 13.1568 6.45044 13.2388C5.07607 13.3179 3.89078 12.3082 3.73438 10.958M1.51146 6.93018L6.09926 9.48313C6.5667 9.74324 6.78034 10.3011 6.60623 10.8069C6.40392 11.3946 5.75648 11.6995 5.17459 11.481L1.05957 9.93614M12.2807 3.64327C12.3226 4.37053 11.7669 4.99402 11.0397 5.03588C10.3124 5.07774 9.68894 4.52211 9.64708 3.79485C9.60522 3.06759 10.1608 2.4441 10.8881 2.40224C11.6154 2.36038 12.2389 2.91601 12.2807 3.64327Z" stroke="white" stroke-linecap="round" stroke-linejoin="round"/>
</g>
<defs>
<clipPath id="clip0_1819_4384">
<rect width="14" height="14" fill="white" transform="translate(0.5)"/>
</clipPath>
</defs>
</svg>
