<svg width="14" height="14" viewBox="0 0 14 14" fill="none" xmlns="http://www.w3.org/2000/svg">
<g id="history" clip-path="url(#clip0_2764_11280)">
<path id="Vector" d="M7.5 3.5C7.5 3.22386 7.27614 3 7 3C6.72386 3 6.5 3.22386 6.5 3.5H7.5ZM7 7.5H6.5C6.5 7.68939 6.607 7.86252 6.77639 7.94721L7 7.5ZM9.37639 9.24721C9.62338 9.37071 9.92372 9.2706 10.0472 9.02361C10.1707 8.77662 10.0706 8.47628 9.82361 8.35279L9.37639 9.24721ZM13.8127 8.61495C13.8762 8.34621 13.7098 8.07688 13.4411 8.01339C13.1723 7.94991 12.903 8.1163 12.8395 8.38505L13.8127 8.61495ZM12.3244 4.23109C12.452 4.47597 12.754 4.57102 12.9989 4.44339C13.2438 4.31577 13.3388 4.01379 13.2112 3.76891L12.3244 4.23109ZM14 2C14 1.72386 13.7761 1.5 13.5 1.5C13.2239 1.5 13 1.72386 13 2H14ZM13.5 4.5V5C13.7761 5 14 4.77614 14 4.5H13.5ZM11 4C10.7239 4 10.5 4.22386 10.5 4.5C10.5 4.77614 10.7239 5 11 5V4ZM6.5 3.5V7.5H7.5V3.5H6.5ZM6.77639 7.94721L9.37639 9.24721L9.82361 8.35279L7.22361 7.05279L6.77639 7.94721ZM12.8395 8.38505C12.2144 11.0312 9.83652 13 7 13V14C10.3107 14 13.0834 11.7022 13.8127 8.61495L12.8395 8.38505ZM7 13C3.68629 13 1 10.3138 1 7H0C0 10.866 3.13401 14 7 14V13ZM1 7C1 3.68629 3.68629 1 7 1V0C3.13401 0 0 3.13401 0 7H1ZM7 1C9.31412 1 11.3231 2.30994 12.3244 4.23109L13.2112 3.76891C12.0445 1.53028 9.70132 0 7 0V1ZM13 2V4.5H14V2H13ZM13.5 4H11V5H13.5V4Z" fill="#FCFCFD"/>
</g>
<defs>
<clipPath id="clip0_2764_11280">
<rect width="14" height="14" fill="white"/>
</clipPath>
</defs>
</svg>
