<svg width="64" height="30" viewBox="0 0 64 30" fill="none" xmlns="http://www.w3.org/2000/svg">
<g clip-path="url(#clip0_5363_11266)">
<path fill-rule="evenodd" clip-rule="evenodd" d="M2.73672 1.26765C3.0474 1.10798 3.73441 0.790396 3.99695 0.79748C4.32512 0.806335 4.94622 0.877286 5.13255 1.26765C5.28161 1.57994 5.19466 2.32644 5.13255 2.66065L6.62319 5.87263V6.32515L12.6124 6.65345C13.201 6.4819 14.3958 6.1122 14.4668 6.00573C14.5555 5.87263 15.0081 3.87623 15.3364 3.77863C15.599 3.70055 19.3085 3.87032 21.1303 3.96496C21.2398 3.79342 21.5048 3.45034 21.6893 3.45034C21.8739 3.45034 22.2335 3.48583 22.3903 3.50357L22.6654 3.3971L30.1363 3.91173L30.6243 3.67216L31.1035 3.76976L32.0351 3.45921L32.2658 3.5923L32.878 3.34386L33.2773 3.5923L35.2294 3.2995L35.3802 3.5923L36.4095 3.45921L36.5869 3.98271L34.9454 4.19566L36.1255 4.40861L36.2497 4.93211L37.4831 5.00309C37.5304 4.96168 37.6552 4.87887 37.7759 4.87887C37.8965 4.87887 38.0095 4.96168 38.0509 5.00309L41.7864 5.26928C41.8722 5.23674 42.0774 5.17345 42.2123 5.18055C42.3472 5.18765 42.4578 5.28998 42.4962 5.34026L45.2202 5.53546C45.3119 5.48814 45.529 5.39527 45.6639 5.40237C45.7987 5.40947 45.9567 5.52955 46.0188 5.5887L48.5564 5.66856C48.6037 5.65673 48.7357 5.65791 48.8847 5.75729C49.0338 5.85666 49.3017 6.04713 49.4171 6.12995C49.5975 6.36656 49.9601 6.85042 49.9672 6.89301C49.9743 6.9356 50.5321 7.30708 50.8101 7.4875L51.5377 8.73857L54.2883 9.90092C54.522 9.81219 55.0301 9.63296 55.1933 9.62586C55.3566 9.61876 59.6387 9.67614 61.7593 9.70572C62.0462 9.73825 62.675 9.85656 62.895 10.0695C63.115 10.2825 63.1996 10.8385 63.2144 11.0899L63.6226 18.1971C63.1464 18.3302 62.139 18.5946 61.919 18.5875C61.6989 18.5804 61.1411 18.413 60.8897 18.3302L55.1933 14.4971C54.7172 14.1806 53.6867 13.5335 53.3744 13.4767C53.0621 13.4199 51.7654 12.8733 51.1562 12.6072L50.2511 12.6781L50.1802 13.9381V15.1093L51.1828 19.0844V20.2822L50.1802 21.1606L48.1217 21.0098L48.0063 19.5546L46.7197 14.8609C46.6133 14.9023 46.3488 14.9869 46.143 14.994C45.8857 15.0028 43.6675 14.9851 43.5344 14.923C43.4279 14.8733 43.3303 14.7662 43.2948 14.7189L42.9044 14.8609C42.9665 15.2661 43.0801 16.1119 43.0375 16.2539C42.9949 16.3959 42.5051 16.3426 42.2656 16.2983C41.8344 18.1086 40.8379 21.9508 40.3011 22.8365C39.6301 23.9437 36.8958 28.3722 36.6945 28.5735C36.5334 28.7346 36.6077 28.8375 36.665 28.8688L36.3212 29.1835L35.181 29.0382L32.8201 24.0154C33.983 22.7837 35.7101 20.9043 36.6775 18.0195C37.8587 14.4974 37.7609 12.9953 38.0509 11.7316L35.306 11.4548L33.8611 12.0202L31.9346 12.1145L30.2594 11.3397C27.785 11.0954 22.7295 10.5146 22.3023 10.1461C21.8751 10.1461 21.4752 10.0205 21.3286 9.95764L21.0982 9.68542L14.2509 9.49696V9.85294H12.6595V9.49696L5.67599 9.25615C5.65505 9.33642 5.58595 9.49696 5.47706 9.49696H4.38819L4.30443 9.25615H3.99033L3.81234 9.04675H3.2679L2.97474 8.10446L0.587592 8.01023L0.37793 7.47626L1.51915 6.27221L1.95889 6.13611L2.84884 6.27221L2.73672 2.38786L2.62897 2.0947L2.73672 1.26765ZM4.90095 4.55514H3.89583V5.40321L3.99695 5.66496L5.47706 5.70684L4.90095 4.55514ZM12.6124 8.94051C12.5909 8.77807 12.5467 8.44764 12.5423 8.42548L6.66649 8.21504L6.17361 8.42548H5.55889L5.70842 8.70792L12.6124 8.94051ZM20.8714 9.21187L20.7218 8.84083H20.5945L20.4893 8.647L16.5905 8.5307L16.1586 8.75222L14.2509 8.71346V8.97928L20.8714 9.21187ZM20.5502 6.99669V6.54811L20.8714 6.42074L20.7994 6.18815L16.5241 5.9334L16.4355 6.33767L16.6182 6.81947L20.5502 6.99669ZM45.3576 12.318L44.1196 12.2385V14.1297L43.9208 14.2603L44.1196 14.6862C44.6326 14.7444 45.6927 14.8486 45.829 14.7998C45.9653 14.7509 46.0637 14.2948 46.0959 14.0729L45.7381 14.3341L45.2497 14.2603C45.3141 14.124 45.4621 13.8014 45.5394 13.6015C45.6166 13.4016 45.5716 12.8178 45.5394 12.5509L45.3576 12.318Z" fill="#373B4A"/>
</g>
<defs>
<clipPath id="clip0_5363_11266">
<rect width="64" height="28.5091" fill="white" transform="translate(0 0.745605)"/>
</clipPath>
</defs>
</svg>
