<svg width="80" height="70" viewBox="0 0 80 70" fill="none" xmlns="http://www.w3.org/2000/svg">
<g clip-path="url(#clip0_4686_13128)">
<path d="M63.1898 56.7885C75.6977 46.2968 79.1017 30.041 70.7969 20.4819C62.4921 10.9204 45.6203 11.6774 33.1124 22.1691C20.607 32.6608 14.0636 46.188 25.5053 58.4782C34.1366 67.7478 50.6819 67.2827 63.1898 56.791V56.7885Z" fill="url(#paint0_linear_4686_13128)"/>
<path style="mix-blend-mode:color-dodge" d="M23.1397 55.0603C15.2586 45.1525 19.2291 28.8806 32.0078 18.7159C44.7866 8.55118 61.5347 8.34293 69.4157 18.2507C77.2967 28.1585 73.3263 44.4305 60.5475 54.5952C47.7688 64.7599 31.0207 64.9681 23.1397 55.0603Z" fill="url(#paint1_linear_4686_13128)"/>
<path d="M23.106 54.9152C15.225 45.0074 19.1954 28.7354 31.9741 18.5707C44.7529 8.406 61.501 8.19774 69.382 18.1055C77.263 28.0133 73.2926 44.2853 60.5138 54.45C47.7351 64.6147 30.987 64.823 23.106 54.9152Z" fill="url(#paint2_linear_4686_13128)"/>
<path d="M22.9849 54.7493C15.1039 44.8415 19.0743 28.5695 31.8531 18.4048C44.6318 8.24011 61.3799 8.03185 69.2609 17.9396C77.1419 27.8474 73.1715 44.1194 60.3927 54.2841C47.614 64.4488 30.8659 64.6571 22.9849 54.7493Z" fill="url(#paint3_linear_4686_13128)"/>
<path d="M25.2944 50.9259C18.7479 42.7604 22.1975 29.1207 32.9991 20.4607C43.8008 11.8008 57.8643 11.3999 64.4107 19.5654C70.9572 27.7309 67.5077 41.3706 56.706 50.0306C45.9043 58.6905 31.8409 59.0914 25.2944 50.9259Z" fill="url(#paint4_linear_4686_13128)"/>
<path style="mix-blend-mode:screen" d="M29.1672 46.0821C24.1719 39.8514 26.8093 29.4394 35.0579 22.8262C43.3065 16.2131 54.0429 15.9031 59.0382 22.1338C64.0335 28.3645 61.3962 38.7765 53.1475 45.3896C44.8989 52.0028 34.1626 52.3128 29.1672 46.0821Z" fill="url(#paint5_linear_4686_13128)"/>
<path style="mix-blend-mode:screen" d="M29.6463 47.0259C24.6509 40.7952 27.2883 30.3832 35.5369 23.7701C43.7855 17.157 54.5219 16.847 59.5172 23.0777C64.5125 29.3084 61.8752 39.7204 53.6265 46.3335C45.3779 52.9466 34.6416 53.2566 29.6463 47.0259Z" fill="url(#paint6_linear_4686_13128)"/>
<path d="M29.3489 46.4399C24.3536 40.2092 26.9909 29.7972 35.2395 23.1841C43.4882 16.571 54.2245 16.261 59.2198 22.4917C64.2151 28.7224 61.5778 39.1344 53.3292 45.7475C45.0805 52.3606 34.3442 52.6706 29.3489 46.4399Z" fill="url(#paint7_linear_4686_13128)"/>
<path style="mix-blend-mode:multiply" d="M29.3489 46.4399C24.3536 40.2092 26.9909 29.7972 35.2395 23.1841C43.4882 16.571 54.2245 16.261 59.2198 22.4917C64.2151 28.7224 61.5778 39.1344 53.3292 45.7475C45.0805 52.3606 34.3442 52.6706 29.3489 46.4399Z" fill="url(#paint8_linear_4686_13128)"/>
<path d="M29.6194 46.6223C24.6241 40.3916 27.2614 29.9796 35.5101 23.3664C43.7587 16.7533 54.495 16.4433 59.4903 22.674C64.4857 28.9047 61.8483 39.3167 53.5997 45.9298C45.3511 52.543 34.6147 52.853 29.6194 46.6223Z" fill="url(#paint9_linear_4686_13128)"/>
<path d="M32.7732 42.4952C29.229 38.1044 31.221 30.6178 37.2225 25.7735C43.224 20.9292 50.9623 20.5615 54.5065 24.9523C58.0507 29.3431 56.0587 36.8297 50.0572 41.674C44.0557 46.5183 36.3174 46.886 32.7732 42.4952Z" fill="url(#paint10_linear_4686_13128)"/>
<path style="mix-blend-mode:screen" d="M36.9341 37.0986C35.1196 34.8531 36.1531 31.0091 39.2423 28.5128C42.3316 26.0165 46.3069 25.8132 48.1214 28.0587C49.9358 30.3042 48.9024 34.1482 45.8131 36.6445C42.7238 39.1408 38.7486 39.3441 36.9341 37.0986Z" fill="url(#paint11_linear_4686_13128)"/>
<path style="mix-blend-mode:screen" d="M37.3521 37.9304C35.5376 35.6849 36.571 31.841 39.6603 29.3447C42.7496 26.8484 46.7248 26.6451 48.5393 28.8906C50.3538 31.136 49.3204 34.98 46.2311 37.4763C43.1418 39.9726 39.1665 40.1759 37.3521 37.9304Z" fill="url(#paint12_linear_4686_13128)"/>
<path d="M37.0567 37.3453C35.2422 35.0998 36.2756 31.2559 39.3649 28.7596C42.4542 26.2633 46.4294 26.06 48.2439 28.3054C50.0584 30.5509 49.0249 34.3949 45.9357 36.8912C42.8464 39.3875 38.8711 39.5908 37.0567 37.3453Z" fill="url(#paint13_linear_4686_13128)"/>
<path style="mix-blend-mode:multiply" d="M37.0567 37.3453C35.2422 35.0998 36.2756 31.2559 39.3649 28.7596C42.4542 26.2633 46.4294 26.06 48.2439 28.3054C50.0584 30.5509 49.0249 34.3949 45.9357 36.8912C42.8464 39.3875 38.8711 39.5908 37.0567 37.3453Z" fill="url(#paint14_linear_4686_13128)"/>
<path d="M37.1553 37.5367C35.3408 35.2912 36.3743 31.4473 39.4635 28.951C42.5528 26.4547 46.5281 26.2514 48.3425 28.4968C50.157 30.7423 49.1236 34.5863 46.0343 37.0826C42.945 39.5789 38.9698 39.7822 37.1553 37.5367Z" fill="url(#paint15_linear_4686_13128)"/>
<g clip-path="url(#clip1_4686_13128)">
<path d="M13.3172 23.4491C13.8265 23.6186 14.1705 23.3383 14.0841 22.8287L13.8867 21.6728C13.7989 21.163 13.3113 20.6075 12.8032 20.4396L8.0576 18.8656C7.54829 18.6961 7.20424 18.9764 7.29066 19.486L7.48811 20.6419C7.57587 21.1518 8.06345 21.7072 8.57162 21.8751L13.3172 23.4491Z" fill="#FF9D00"/>
<path d="M13.3194 23.4547C13.8269 23.6266 13.9291 24.0566 13.5453 24.4112L12.6717 25.2196C12.2879 25.5741 11.6505 25.7573 11.2565 25.6253C10.8626 25.4933 10.3349 25.3182 10.0848 25.2349C9.83477 25.1516 9.21809 24.9381 8.7116 24.7598L6.00315 23.8052C5.49801 23.6272 5.4274 23.2235 5.84762 22.908L6.8977 22.1179C7.31658 21.8022 8.07589 21.684 8.58343 21.8558L13.3209 23.4537L13.3194 23.4547Z" fill="#FFCE00"/>
<path d="M41.1783 32.6103L7.57584 21.9957C7.38956 21.9361 7.28856 21.7434 7.34656 21.566C7.40612 21.3876 7.60543 21.2917 7.79036 21.3511L41.3928 31.9657C41.5791 32.0253 41.6801 32.2181 41.6221 32.3954C41.5625 32.5738 41.3634 32.6684 41.1783 32.6103Z" fill="#562726"/>
<path d="M7.34806 21.5663C7.40762 21.3879 7.60692 21.292 7.79186 21.3514L41.3943 31.9659C41.5806 32.0256 41.6816 32.2183 41.6236 32.3956L7.34806 21.5663Z" fill="#68322F"/>
<path d="M12.6282 24.1777L10.5376 25.3871L9.63008 25.0863C10.8919 24.6978 12.628 24.179 12.628 24.179L12.6282 24.1777Z" fill="white"/>
<path d="M42.4947 32.9092C41.4407 32.8202 39.9473 32.5229 39.9473 32.5229L40.1092 32.0313L40.3149 31.4065C40.3149 31.4065 41.731 31.9654 42.6322 32.5077L42.6123 32.7389L42.4947 32.9092Z" fill="#5A4D66"/>
<path d="M42.6126 32.7376L40.1291 31.9696L40.3151 31.4065C40.3151 31.4065 41.7312 31.9654 42.6323 32.5077L42.6124 32.7389L42.6126 32.7376Z" fill="#9480AD"/>
</g>
<g clip-path="url(#clip2_4686_13128)">
<path d="M17.3169 39.9844C17.8471 40.068 18.1405 39.7351 17.9717 39.2465L17.5873 38.1387C17.417 37.6501 16.845 37.1822 16.3161 37.1L11.3766 36.3258C10.8464 36.2422 10.553 36.5751 10.7219 37.0637L11.1063 38.1715C11.2765 38.66 11.8486 39.1279 12.3774 39.2102L17.3169 39.9844Z" fill="#FF9D00"/>
<path d="M17.3196 39.9896C17.8484 40.0758 18.0198 40.4833 17.6993 40.896L16.9702 41.8368C16.6497 42.2495 16.051 42.5348 15.6408 42.4692C15.2305 42.4036 14.6812 42.3174 14.4209 42.2763C14.1605 42.2351 13.5172 42.1257 12.9883 42.0329L10.16 41.5357C9.63246 41.4429 9.49657 41.0562 9.85933 40.6761L10.7656 39.7244C11.127 39.3443 11.8566 39.1031 12.3855 39.1893L17.3209 39.9883L17.3196 39.9896Z" fill="#FFCE00"/>
<path d="M46.3037 44.4505L11.4151 39.4926C11.2216 39.4643 11.0903 39.2908 11.1185 39.1063C11.1479 38.9206 11.3288 38.7933 11.521 38.8215L46.4095 43.7794C46.6031 43.8077 46.7343 43.9812 46.7062 44.1657C46.6767 44.3514 46.4959 44.4774 46.3037 44.4505Z" fill="#562726"/>
<path d="M11.1199 39.1063C11.1494 38.9206 11.3303 38.7933 11.5224 38.8215L46.411 43.7794C46.6045 43.8077 46.7358 43.9812 46.7077 44.1657L11.1199 39.1063Z" fill="#68322F"/>
<path d="M16.7564 40.8161L14.8925 42.3522L13.948 42.2043C15.129 41.6141 16.7564 40.8175 16.7564 40.8175L16.7564 40.8161Z" fill="white"/>
<path d="M47.6511 44.5293C46.5968 44.6145 45.0748 44.5662 45.0748 44.5662L45.1539 44.0547L45.2543 43.4046C45.2543 43.4046 46.743 43.7236 47.7208 44.1107L47.7392 44.3421L47.6511 44.5293Z" fill="#5A4D66"/>
<path d="M47.7391 44.3408L45.1632 43.9906L45.2543 43.4046C45.2543 43.4046 46.7429 43.7236 47.7208 44.1107L47.7391 44.3421L47.7391 44.3408Z" fill="#9480AD"/>
</g>
</g>
<defs>
<linearGradient id="paint0_linear_4686_13128" x1="51.2736" y1="33.2586" x2="33.5652" y2="63.9269" gradientUnits="userSpaceOnUse">
<stop stop-color="#AE5D00"/>
<stop offset="0.08" stop-color="#D57100"/>
<stop offset="0.14" stop-color="#EB7D00"/>
<stop offset="0.32" stop-color="#FFB764"/>
<stop offset="0.48" stop-color="#FF8800"/>
<stop offset="0.66" stop-color="#C26700"/>
<stop offset="1" stop-color="#864700"/>
</linearGradient>
<linearGradient id="paint1_linear_4686_13128" x1="31.4064" y1="19.1904" x2="61.1755" y2="54.0761" gradientUnits="userSpaceOnUse">
<stop stop-color="#AE5D00"/>
<stop offset="0.07" stop-color="#B46000"/>
<stop offset="0.45" stop-color="#D26F00"/>
<stop offset="0.77" stop-color="#E47900"/>
<stop offset="1" stop-color="#EB7D00"/>
</linearGradient>
<linearGradient id="paint2_linear_4686_13128" x1="76.1354" y1="48.9357" x2="40.2987" y2="34.0049" gradientUnits="userSpaceOnUse">
<stop stop-color="#E87C00"/>
<stop offset="0.05" stop-color="#E87E05"/>
<stop offset="0.12" stop-color="#E88514"/>
<stop offset="0.19" stop-color="#E8912D"/>
<stop offset="0.26" stop-color="#E8A150"/>
<stop offset="0.34" stop-color="#E8B67C"/>
<stop offset="0.43" stop-color="#E8CFB2"/>
<stop offset="0.5" stop-color="#E9E9E9"/>
<stop offset="0.59" stop-color="#E8CBAA"/>
<stop offset="0.71" stop-color="#E8A962"/>
<stop offset="0.8" stop-color="#E8912D"/>
<stop offset="0.87" stop-color="#E8810C"/>
<stop offset="0.91" stop-color="#E87C00"/>
</linearGradient>
<linearGradient id="paint3_linear_4686_13128" x1="31.2473" y1="18.8794" x2="61.0175" y2="53.7673" gradientUnits="userSpaceOnUse">
<stop stop-color="#AE5D00"/>
<stop offset="0.07" stop-color="#B46000"/>
<stop offset="0.45" stop-color="#D26F00"/>
<stop offset="0.77" stop-color="#E47900"/>
<stop offset="1" stop-color="#EB7D00"/>
</linearGradient>
<linearGradient id="paint4_linear_4686_13128" x1="36.8046" y1="25.7869" x2="61.306" y2="54.4945" gradientUnits="userSpaceOnUse">
<stop stop-color="#D3D3D3"/>
<stop offset="1" stop-color="#E9E9E9"/>
</linearGradient>
<linearGradient id="paint5_linear_4686_13128" x1="30.647" y1="22.3055" x2="49.4705" y2="44.3606" gradientUnits="userSpaceOnUse">
<stop stop-color="#D3D3D3"/>
<stop offset="1" stop-color="#E9E9E9"/>
</linearGradient>
<linearGradient id="paint6_linear_4686_13128" x1="31.1279" y1="23.2509" x2="49.9514" y2="45.306" gradientUnits="userSpaceOnUse">
<stop stop-color="#D3D3D3"/>
<stop offset="1" stop-color="#E9E9E9"/>
</linearGradient>
<linearGradient id="paint7_linear_4686_13128" x1="30.8296" y1="22.6632" x2="49.6532" y2="44.7183" gradientUnits="userSpaceOnUse">
<stop stop-color="#AE5D00"/>
<stop offset="0.07" stop-color="#B46000"/>
<stop offset="0.45" stop-color="#D26F00"/>
<stop offset="0.77" stop-color="#E47900"/>
<stop offset="1" stop-color="#EB7D00"/>
</linearGradient>
<linearGradient id="paint8_linear_4686_13128" x1="30.8296" y1="22.6632" x2="49.6532" y2="44.7183" gradientUnits="userSpaceOnUse">
<stop stop-color="#AE5D00"/>
<stop offset="0.07" stop-color="#B46000"/>
<stop offset="0.45" stop-color="#D26F00"/>
<stop offset="0.77" stop-color="#E47900"/>
<stop offset="1" stop-color="#EB7D00"/>
</linearGradient>
<linearGradient id="paint9_linear_4686_13128" x1="31.1001" y1="22.8447" x2="49.9236" y2="44.8998" gradientUnits="userSpaceOnUse">
<stop stop-color="#AE5D00"/>
<stop offset="0.07" stop-color="#B46000"/>
<stop offset="0.45" stop-color="#D26F00"/>
<stop offset="0.77" stop-color="#E47900"/>
<stop offset="1" stop-color="#EB7D00"/>
</linearGradient>
<linearGradient id="paint10_linear_4686_13128" x1="31.3958" y1="22.9805" x2="44.7156" y2="38.587" gradientUnits="userSpaceOnUse">
<stop stop-color="#D3D3D3"/>
<stop offset="1" stop-color="#E9E9E9"/>
</linearGradient>
<linearGradient id="paint11_linear_4686_13128" x1="37.9406" y1="29.6449" x2="44.7291" y2="37.5989" gradientUnits="userSpaceOnUse">
<stop stop-color="#D3D3D3"/>
<stop offset="1" stop-color="#E9E9E9"/>
</linearGradient>
<linearGradient id="paint12_linear_4686_13128" x1="38.359" y1="30.4773" x2="45.1491" y2="38.4332" gradientUnits="userSpaceOnUse">
<stop stop-color="#D3D3D3"/>
<stop offset="1" stop-color="#E9E9E9"/>
</linearGradient>
<linearGradient id="paint13_linear_4686_13128" x1="38.0629" y1="29.8908" x2="44.8531" y2="37.8466" gradientUnits="userSpaceOnUse">
<stop stop-color="#AE5D00"/>
<stop offset="0.07" stop-color="#B46000"/>
<stop offset="0.45" stop-color="#D26F00"/>
<stop offset="0.77" stop-color="#E47900"/>
<stop offset="1" stop-color="#EB7D00"/>
</linearGradient>
<linearGradient id="paint14_linear_4686_13128" x1="38.0629" y1="29.8908" x2="44.8531" y2="37.8466" gradientUnits="userSpaceOnUse">
<stop stop-color="#AE5D00"/>
<stop offset="0.07" stop-color="#B46000"/>
<stop offset="0.45" stop-color="#D26F00"/>
<stop offset="0.77" stop-color="#E47900"/>
<stop offset="1" stop-color="#EB7D00"/>
</linearGradient>
<linearGradient id="paint15_linear_4686_13128" x1="38.1623" y1="30.0832" x2="44.9525" y2="38.0391" gradientUnits="userSpaceOnUse">
<stop stop-color="#AE5D00"/>
<stop offset="0.07" stop-color="#B46000"/>
<stop offset="0.45" stop-color="#D26F00"/>
<stop offset="0.77" stop-color="#E47900"/>
<stop offset="1" stop-color="#EB7D00"/>
</linearGradient>
<clipPath id="clip0_4686_13128">
<rect width="80" height="70" fill="white" transform="matrix(-1 0 0 1 80 0)"/>
</clipPath>
<clipPath id="clip1_4686_13128">
<rect width="38.0744" height="8.35779" fill="white" transform="translate(6.34961 18.5729) rotate(9.29189)"/>
</clipPath>
<clipPath id="clip2_4686_13128">
<rect width="38.0744" height="8.35779" fill="white" transform="translate(9.64355 36.3173) rotate(-0.150828)"/>
</clipPath>
</defs>
</svg>
