<svg width="13" height="14" viewBox="0 0 13 14" fill="none" xmlns="http://www.w3.org/2000/svg">
<g id="steam 1" clip-path="url(#clip0_10631_9342)">
<g id="Group">
<path id="Vector" d="M9.69746 1.448C7.88342 1.448 6.40358 2.90833 6.3895 4.70883L4.32954 7.64846C3.75483 7.59646 3.25921 7.71508 2.821 7.98104L0 6.84516V9.94729L1.66833 10.6152C1.90938 11.7196 2.90225 12.5522 4.07713 12.5522C5.35438 12.5522 6.41279 11.5755 6.52925 10.3319L9.70071 8.02491C11.5202 8.02491 13 6.55646 13 4.73537L12.9995 4.73483C12.9995 2.92241 11.5196 1.448 9.69746 1.448ZM4.07713 11.8978C3.38 11.8978 2.77983 11.5073 2.47487 10.938C2.77062 11.0507 3.06963 11.1747 3.36592 11.2906C4.10638 11.594 4.94758 11.2327 5.24333 10.4955C5.54233 9.75825 5.17942 8.92625 4.44004 8.63104L3.6855 8.32771C3.81604 8.29846 3.94658 8.28437 4.07713 8.28437C5.08408 8.28437 5.89062 9.08766 5.89062 10.0908C5.89062 11.0945 5.08408 11.8978 4.07713 11.8978ZM9.70071 6.93833C8.476 6.93833 7.48096 5.95521 7.48096 4.73537C7.48096 3.52096 8.47329 2.53241 9.70071 2.53241C10.9168 2.53241 11.9118 3.52096 11.9118 4.73537C11.9118 5.95846 10.9162 6.94158 9.70071 6.93833Z" fill="#949DB4"/>
<path id="Vector_2" d="M9.70664 2.96802C8.72893 2.96802 7.93701 3.75723 7.93701 4.73114C7.93701 5.70506 8.72622 6.49427 9.70664 6.49427C10.6784 6.49427 11.4763 5.70777 11.4763 4.73114C11.4763 3.75452 10.6784 2.96802 9.70664 2.96802Z" fill="#949DB4"/>
</g>
</g>
<defs>
<clipPath id="clip0_10631_9342">
<rect width="13" height="13" fill="white" transform="translate(0 0.5)"/>
</clipPath>
</defs>
</svg>
