<svg width="110" height="50" viewBox="0 0 110 50" fill="none" xmlns="http://www.w3.org/2000/svg">
<g clip-path="url(#clip0_5204_156899)">
<path fill-rule="evenodd" clip-rule="evenodd" d="M4.70358 1.39766C5.23757 1.12322 6.41837 0.57738 6.8696 0.589556C7.43364 0.604776 8.50116 0.726722 8.82141 1.39766C9.07762 1.93441 8.92816 3.21745 8.82141 3.79188L11.3835 9.31248V10.0902L21.6774 10.6545C22.689 10.3597 24.7427 9.72423 24.8647 9.54123C25.0172 9.31248 25.795 5.88117 26.3592 5.71341C26.8106 5.57921 33.1862 5.871 36.3176 6.03367C36.5057 5.73883 36.9612 5.14915 37.2784 5.14915C37.5956 5.14915 38.2138 5.21016 38.4832 5.24066L38.9559 5.05765L51.7967 5.94217L52.6354 5.53041L53.4589 5.69816L55.0602 5.1644L55.4567 5.39316L56.509 4.96615L57.1952 5.39316L60.5503 4.8899L60.8096 5.39316L62.5786 5.1644L62.8836 6.06417L60.0623 6.43018L62.0906 6.79618L62.3041 7.69595L64.4239 7.81795C64.5052 7.74678 64.7197 7.60445 64.9271 7.60445C65.1345 7.60445 65.3287 7.74678 65.3999 7.81795L71.8203 8.27546C71.9677 8.21954 72.3205 8.11075 72.5523 8.12295C72.7841 8.13516 72.9742 8.31104 73.0403 8.39746L77.7221 8.73297C77.8797 8.65163 78.2528 8.49201 78.4846 8.50421C78.7164 8.51641 78.9879 8.7228 79.0946 8.82447L83.4562 8.96172C83.5375 8.94139 83.7643 8.94342 84.0205 9.11422C84.2767 9.28503 84.7372 9.6124 84.9355 9.75473C85.2456 10.1614 85.8688 10.9931 85.881 11.0663C85.8932 11.1395 86.8519 11.7779 87.3298 12.088L88.5803 14.2383L93.3079 16.2361C93.7095 16.0836 94.5828 15.7755 94.8634 15.7633C95.144 15.7511 102.504 15.8498 106.149 15.9006C106.642 15.9565 107.722 16.1598 108.101 16.5259C108.479 16.8919 108.624 17.8475 108.65 18.2796L109.351 30.4951C108.533 30.7238 106.801 31.1783 106.423 31.1661C106.045 31.1539 105.086 30.8662 104.654 30.7238L94.8634 24.1357C94.045 23.5918 92.2739 22.4796 91.7371 22.382C91.2003 22.2843 88.9717 21.3449 87.9245 20.8874L86.369 21.0094L86.247 23.175V25.188L87.9703 32.0201V34.0789L86.247 35.5887L82.7089 35.3294L82.5107 32.8284L80.2994 24.761C80.1164 24.8322 79.6619 24.9775 79.3081 24.9897C78.8659 25.005 75.0533 24.9745 74.8246 24.8677C74.6415 24.7823 74.4738 24.5983 74.4128 24.517L73.7418 24.761C73.8485 25.4574 74.0437 26.9113 73.9705 27.1553C73.8973 27.3993 73.0555 27.3078 72.6438 27.2315C71.9027 30.3431 70.19 36.9468 69.2673 38.4692C68.1141 40.3721 63.4145 47.9837 63.0685 48.3296C62.7917 48.6064 62.9193 48.7833 63.0178 48.8371L62.4269 49.378L60.4673 49.1283L56.4095 40.4954C58.4081 38.3784 61.3765 35.1481 63.0394 30.1899C65.0696 24.1363 64.9015 21.5545 65.3999 19.3825L60.682 18.9069L58.1986 19.8786L54.8875 20.0406L52.0083 18.709C47.7554 18.2891 39.0661 17.2909 38.3319 16.6575C37.5977 16.6575 36.9103 16.4416 36.6583 16.3336L36.2624 15.8657L24.4936 15.5418V16.1536H21.7583V15.5418L9.75546 15.1279C9.71947 15.2659 9.6007 15.5418 9.41355 15.5418H7.54204L7.39808 15.1279H6.85822L6.5523 14.768H5.61655L5.11269 13.1484L1.00977 12.9865L0.649414 12.0687L2.61089 9.99926L3.36669 9.76532L4.89629 9.99926L4.70358 3.32302L4.51839 2.81916L4.70358 1.39766ZM8.42335 7.04804H6.69581V8.50565L6.8696 8.95553L9.41355 9.02751L8.42335 7.04804ZM21.6774 14.5854C21.6404 14.3062 21.5645 13.7383 21.5569 13.7002L11.4579 13.3385L10.6107 13.7002H9.5542L9.81119 14.1856L21.6774 14.5854ZM35.8725 15.0518L35.6155 14.4141H35.3966L35.2157 14.0809L28.5148 13.881L27.7724 14.2618L24.4936 14.1951V14.652L35.8725 15.0518ZM35.3204 11.2444V10.4735L35.8725 10.2545L35.7488 9.85476L28.4006 9.41692L28.2483 10.1118L28.5624 10.9399L35.3204 11.2444ZM77.9583 20.3905L75.8304 20.2539V23.5042L75.4888 23.7288L75.8304 24.4608C76.7122 24.5609 78.5342 24.74 78.7685 24.656C79.0027 24.5721 79.1719 23.7881 79.2272 23.4066L78.6123 23.8556L77.7728 23.7288C77.8835 23.4945 78.1379 22.9401 78.2707 22.5965C78.4034 22.2529 78.326 21.2495 78.2707 20.7907L77.9583 20.3905Z" fill="#2A2C3B"/>
</g>
<defs>
<clipPath id="clip0_5204_156899">
<rect width="110" height="49" fill="white" transform="translate(0 0.5)"/>
</clipPath>
</defs>
</svg> 