<svg width="20" height="20" viewBox="0 0 20 20" fill="none" xmlns="http://www.w3.org/2000/svg">
<g id="discord-icon">
<path id="Vector" d="M15.9707 5.54284C15.7374 5.17925 15.4072 4.90113 15.0155 4.73945C14.1652 4.38762 13.434 4.15258 12.7798 4.02011C12.3208 3.92752 11.8664 4.16042 11.6479 4.59915L11.5934 4.70883C11.1089 4.65363 10.5944 4.63511 10.0085 4.65043C9.40771 4.63547 8.89148 4.65363 8.40631 4.70883L8.35213 4.59915C8.1337 4.16042 7.67854 3.92788 7.22063 4.02047C6.56637 4.15258 5.83482 4.38762 4.9849 4.73981C4.59359 4.90148 4.26335 5.17925 4.02974 5.54319C2.40064 8.08261 1.76226 10.8218 2.07834 13.9178C2.08939 14.0264 2.14805 14.1237 2.23742 14.1817C3.49073 14.9972 4.5753 15.5556 5.65055 15.9395C6.10018 16.1015 6.59881 15.9202 6.86417 15.5018L7.33727 14.7536C6.96045 14.6069 6.5926 14.4331 6.23993 14.2255C6.07464 14.1283 6.01701 13.9107 6.11122 13.7401C6.20542 13.5688 6.41626 13.5087 6.5819 13.6073C7.63127 14.2248 8.81763 14.5513 10.0126 14.5513C11.2076 14.5513 12.394 14.2248 13.4433 13.6073C13.6086 13.5087 13.8195 13.5688 13.914 13.7401C14.0082 13.9107 13.9506 14.1283 13.7853 14.2255C13.4209 14.4402 13.04 14.619 12.6497 14.7682L13.1366 15.5168C13.3371 15.8248 13.668 16 14.0089 16C14.12 16 14.2322 15.9811 14.3412 15.9427C15.4196 15.5584 16.5062 14.9993 17.7623 14.1821C17.8517 14.124 17.9103 14.0264 17.9214 13.9182C18.2381 10.8218 17.5998 8.08226 15.9707 5.54284ZM7.79587 11.7153C7.13126 11.7153 6.58432 10.9927 6.58432 10.1146C6.58432 9.23641 7.13126 8.51386 7.79587 8.51386C8.46048 8.51386 9.00742 9.23641 9.00742 10.1146C9.00742 10.9927 8.46048 11.7153 7.79587 11.7153ZM12.2794 11.706C11.621 11.706 11.0792 10.9792 11.0792 10.0957C11.0792 9.21219 11.621 8.48537 12.2794 8.48537C12.9378 8.48537 13.4796 9.21219 13.4796 10.0957C13.4796 10.9792 12.9378 11.706 12.2794 11.706Z" fill="#606373"/>
</g>
</svg>
