<svg width="20" height="20" viewBox="0 0 20 20" fill="none" xmlns="http://www.w3.org/2000/svg">
<g id="instagram-icon">
<path id="Vector" d="M7.11111 3.5C5.11706 3.5 3.5 5.11706 3.5 7.11111V12.8889C3.5 14.8829 5.11706 16.5 7.11111 16.5H12.8889C14.8829 16.5 16.5 14.8829 16.5 12.8889V7.11111C16.5 5.11706 14.8829 3.5 12.8889 3.5H7.11111ZM14.3333 4.94444C14.732 4.94444 15.0556 5.268 15.0556 5.66667C15.0556 6.06533 14.732 6.38889 14.3333 6.38889C13.9347 6.38889 13.6111 6.06533 13.6111 5.66667C13.6111 5.268 13.9347 4.94444 14.3333 4.94444ZM10 6.38889C11.9941 6.38889 13.6111 8.00594 13.6111 10C13.6111 11.9941 11.9941 13.6111 10 13.6111C8.00594 13.6111 6.38889 11.9941 6.38889 10C6.38889 8.00594 8.00594 6.38889 10 6.38889ZM10 7.83333C9.42536 7.83333 8.87426 8.06161 8.46793 8.46793C8.06161 8.87426 7.83333 9.42536 7.83333 10C7.83333 10.5746 8.06161 11.1257 8.46793 11.5321C8.87426 11.9384 9.42536 12.1667 10 12.1667C10.5746 12.1667 11.1257 11.9384 11.5321 11.5321C11.9384 11.1257 12.1667 10.5746 12.1667 10C12.1667 9.42536 11.9384 8.87426 11.5321 8.46793C11.1257 8.06161 10.5746 7.83333 10 7.83333Z" fill="#606373"/>
</g>
</svg>
