<svg width="20" height="20" viewBox="0 0 20 20" fill="none" xmlns="http://www.w3.org/2000/svg">
<g id="tik-tok-icon">
<path id="Vector" d="M16 8.74117C14.8203 8.74405 13.6697 8.36853 12.7105 7.66766V12.5558C12.7102 13.4611 12.4391 14.3448 11.9335 15.0886C11.428 15.8324 10.712 16.4009 9.88131 16.7182C9.05065 17.0354 8.14492 17.0862 7.28521 16.8637C6.42551 16.6413 5.65282 16.1562 5.07047 15.4734C4.48812 14.7906 4.12385 13.9426 4.02638 13.0427C3.92892 12.1429 4.10289 11.2341 4.52505 10.4379C4.94721 9.64172 5.59742 8.99607 6.38875 8.58729C7.18008 8.17851 8.07481 8.02608 8.95329 8.1504V10.6089C8.5513 10.4799 8.11963 10.4838 7.71993 10.6201C7.32022 10.7564 6.97293 11.0181 6.72764 11.3679C6.48236 11.7177 6.35163 12.1377 6.3541 12.5678C6.35658 12.998 6.49216 13.4164 6.74147 13.7632C6.99077 14.11 7.34106 14.3676 7.74231 14.4991C8.14355 14.6305 8.57524 14.6292 8.97571 14.4953C9.37619 14.3614 9.72499 14.1018 9.97228 13.7535C10.2196 13.4051 10.3527 12.986 10.3527 12.5558V3H12.7105C12.7089 3.20325 12.7256 3.40623 12.7604 3.60636C12.8423 4.05313 13.0127 4.47814 13.261 4.8554C13.5094 5.23265 13.8305 5.55422 14.2048 5.80043C14.7373 6.15984 15.3616 6.35141 16 6.35127V8.74117Z" fill="#606373"/>
</g>
</svg>
